{
.appVersion = "1246";
DisplayStrings = (
"/dieresiscomb_acutecomb  /dotaccentcomb_macroncomb  /dieresiscomb_macroncomb  /brevecomb_tildecomb"
);
classes = (
{
automatic = 1;

glyphs = (
{
color = 3;
glyphname = A;
lastChange = "2019-07-01 21:38:49 +0000";
layers = (
{
anchors = (
{
name = bottom;
position = "{357, 0}";
},
{
name = ogonek;
position = "{680, 0}";
},
{
name = top;
position = "{357, 705}";
}
);
background = {
anchors = (
{
name = bottom;
position = "{357, 0}";
},
{
name = ogonek;
position = "{680, 0}";
},
{
name = top;
position = "{357, 705}";
}
);
paths = (
{
closed = 1;
nodes = (
"680 0 LINE",
"377 705 LINE",
"337 705 LINE",
"34 0 LINE",
"77 0 LINE",
"165 204 LINE",
"139 195 LINE",
"575 195 LINE",
"549 204 LINE",
"636 0 LINE"
);
},
{
closed = 1;
nodes = (
"368 680 LINE",
"345 680 LINE",
"538 228 LINE",
"558 235 LINE",
"156 235 LINE",
"175 228 LINE"
);
}
);
};
layerId = "F1F93986-3ED8-4AAE-84C4-CA3EEECDDFA0";
paths = (
{
closed = 1;
nodes = (
"680 0 LINE",
"377 705 LINE",
"337 705 LINE",
"34 0 LINE",
"77 0 LINE",
"165 204 LINE",
"139 195 LINE",
"575 195 LINE",
"549 204 LINE",
"636 0 LINE"
);
},
{
closed = 1;
nodes = (
"368 680 LINE",
"345 680 LINE",
"538 228 LINE",
"558 235 LINE",
"156 235 LINE",
"175 228 LINE"
);
}
);
width = 713.88235;
},
{
anchors = (
{
name = bottom;
position = "{386, 0}";
},
{
name = ogonek;
position = "{721, 0}";
},
{
name = top;
position = "{385, 705}";
}
);
background = {
anchors = (
{
name = bottom;
position = "{386, 0}";
},
{
name = ogonek;
position = "{721, 0}";
},
{
name = top;
position = "{385, 705}";
}
);
paths = (
{
closed = 1;
nodes = (
"408 530 LINE",
"368 530 LINE",
"594 0 LINE",
"805 0 LINE",
"470 705 LINE",
"301 705 LINE",
"-34 0 LINE",
"182 0 LINE"
);
}
);
};
layerId = "4121B50C-FD42-45C5-8FBE-41E76D98F91E";
paths = (
{
closed = 1;
nodes = (
"805 0 LINE",
"470 705 LINE",
"301 705 LINE",
"-34 0 LINE",
"182 0 LINE",
"264 191 LINE",
"184 135 LINE",
"591 135 LINE",
"511 191 LINE",
"594 0 LINE"
);
},
{
closed = 1;
nodes = (
"406 530 LINE",
"370 530 LINE",
"491 238 LINE",
"522 295 LINE",
"254 295 LINE",
"284 238 LINE"
);
}
);
width = 770.84314;
}
);
leftKerningGroup = A;
rightKerningGroup = A;
unicode = 0041;
userData = {
anchors = (
);
b = {
};
com.typemytype.robofont.layerData = {
b = {
anchors = (
);
components = (
);
contours = (
{
points = (
{
segmentType = line;
smooth = 0;
x = 403;
y = 502;
},
{
segmentType = line;
smooth = 0;
x = 703;
y = 1275;
},
{
segmentType = line;
smooth = 0;
x = 705;
y = 1275;
},
{
segmentType = line;
smooth = 0;
x = 1004;
y = 502;
}
);
},
{
points = (
{
segmentType = curve;
smooth = 1;
x = 150;
y = 0;
},
{
smooth = 0;
x = 181;
y = 0;
},
{
smooth = 0;
x = 214;
y = 15;
},
{
segmentType = curve;
smooth = 1;
x = 229;
y = 53;
},
{
segmentType = line;
smooth = 0;
x = 356;
y = 373;
},
{
segmentType = line;
smooth = 0;
x = 1051;
y = 373;
},
{
segmentType = line;
smooth = 1;
x = 1179;
y = 53;
},
{
smooth = 0;
x = 1193;
y = 17;
},
{
smooth = 0;
x = 1228;
y = 0;
},
{
segmentType = curve;
smooth = 1;
x = 1260;
y = 0;
},
{
smooth = 0;
x = 1306;
y = 0;
},
{
smooth = 0;
x = 1354;
y = 31;
},
{
segmentType = curve;
smooth = 1;
x = 1354;
y = 80;
},
{
smooth = 0;
x = 1354;
y = 87;
},
{
smooth = 0;
x = 1352;
y = 97;
},
{
segmentType = curve;
smooth = 0;
x = 1349;
y = 108;
},
{
segmentType = line;
smooth = 1;
x = 871;
y = 1288;
},
{
smooth = 0;
x = 817;
y = 1420;
},
{
smooth = 0;
x = 777;
y = 1430;
},
{
segmentType = curve;
smooth = 1;
x = 710;
y = 1430;
},
{
smooth = 0;
x = 644;
y = 1430;
},
{
smooth = 0;
x = 596;
y = 1413;
},
{
segmentType = curve;
smooth = 1;
x = 542;
y = 1280;
},
{
segmentType = line;
smooth = 1;
x = 66;
y = 108;
},
{
smooth = 0;
x = 62;
y = 97;
},
{
smooth = 0;
x = 60;
y = 87;
},
{
segmentType = curve;
smooth = 1;
x = 60;
y = 78;
},
{
smooth = 0;
x = 60;
y = 32;
},
{
smooth = 0;
x = 106;
y = 0;
}
);
}
);
lib = {
};
name = A;
unicodes = (
);
width = 1414;
};
};
components = (
);
contours = {
};
lib = {
};
name = A;
points = {
};
segmentType = line;
unicodes = (
);
width = 1445;
x = 718;
y = 1232;
};
},
{
color = 3;
glyphname = AE;
lastChange = "2019-07-01 21:40:41 +0000";
layers = (
{
anchors = (
{
name = bottom;
position = "{496, 0}";
},
{
name = top;
position = "{495, 705}";
}
);
background = {
anchors = (
{
name = bottom;
position = "{496, 0}";
},
{
name = top;
position = "{495, 705}";
}
);
paths = (
{
closed = 1;
nodes = (
"930 705 LINE",
"434 705 LINE",
"14 0 LINE",
"58 0 LINE",
"181 208 LINE",
"152 195 LINE",
"557 195 LINE",
"536 207 LINE",
"579 0 LINE",
"930 0 LINE",
"930 40 LINE",
"595 40 LINE",
"615 20 LINE",
"473 690 LINE",
"468 665 LINE",
"930 665 LINE"
);
},
{
closed = 1;
nodes = (
"459 676 LINE",
"437 676 LINE",
"531 225 LINE",
"539 235 LINE",
"162 235 LINE",
"190 225 LINE"
);
}
);
};
layerId = "F1F93986-3ED8-4AAE-84C4-CA3EEECDDFA0";
paths = (
{
closed = 1;
nodes = (
"930 705 LINE",
"434 705 LINE",
"14 0 LINE",
"58 0 LINE",
"181 208 LINE",
"152 195 LINE",
"557 195 LINE",
"536 207 LINE",
"579 0 LINE",
"930 0 LINE",
"930 40 LINE",
"595 40 LINE",
"615 20 LINE",
"545 350 LINE",
"524 338 LINE",
"910 338 LINE",
"910 377 LINE",
"516 377 LINE",
"541 368 LINE",
"474 690 LINE",
"468 665 LINE",
"930 665 LINE"
);
},
{
closed = 1;
nodes = (
"459 676 LINE",
"437 676 LINE",
"531 225 LINE",
"539 235 LINE",
"162 235 LINE",
"191 225 LINE"
);
}
);
width = 986.47059;
},
{
anchors = (
{
name = bottom;
position = "{509, 0}";
},
{
name = top;
position = "{510, 705}";
}
);
background = {
anchors = (
{
name = bottom;
position = "{509, 0}";
},
{
name = top;
position = "{510, 705}";
}
);
paths = (
{
closed = 1;
nodes = (
"490 523 LINE",
"437 523 LINE",
"503 235 LINE",
"551 295 LINE",
"582 135 LINE",
"511 194 LINE",
"556 0 LINE",
"981 0 LINE",
"981 164 LINE",
"656 164 LINE",
"727 109 LINE",
"617 584 LINE",
"566 541 LINE",
"981 541 LINE",
"981 705 LINE",
"402 705 LINE",
"-54 0 LINE",
"180 0 LINE"
);
}
);
};
layerId = "4121B50C-FD42-45C5-8FBE-41E76D98F91E";
paths = (
{
closed = 1;
nodes = (
"981 705 LINE",
"402 705 LINE",
"-54 0 LINE",
"180 0 LINE",
"290 186 LINE",
"204 135 LINE",
"582 135 LINE",
"511 194 LINE",
"556 0 LINE",
"981 0 LINE",
"981 164 LINE",
"656 164 LINE",
"727 109 LINE",
"675 335 LINE",
"633 277 LINE",
"961 277 LINE",
"961 441 LINE",
"596 441 LINE",
"664 381 LINE",
"617 584 LINE",
"566 541 LINE",
"981 541 LINE"
);
},
{
closed = 1;
nodes = (
"488 523 LINE",
"439 523 LINE",
"503 235 LINE",
"551 293 LINE",
"305 293 LINE",
"324 243 LINE"
);
}
);
width = 1007.62745;
}
);
leftKerningGroup = A;
rightKerningGroup = E;
unicode = 00C6;
userData = {
com.typemytype.robofont.layerData = {
b = {
anchors = (
);
components = (
);
contours = (
);
lib = {
};
name = AE;
unicodes = (
);
width = 1976;
};
};
};
},
{
color = 3;
glyphname = B;
lastChange = "2019-07-01 21:42:41 +0000";
layers = (
{
anchors = (
{
name = bottom;
position = "{337, 0}";
},
{
name = top;
position = "{336, 705}";
}
);
background = {
anchors = (
{
name = bottom;
position = "{337, 0}";
},
{
name = top;
position = "{336, 705}";
}
);
paths = (
{
closed = 1;
nodes = (
"524 371 OFFCURVE",
"579 431 OFFCURVE",
"579 520 CURVE SMOOTH",
"579 641 OFFCURVE",
"498 705 OFFCURVE",
"356 705 CURVE SMOOTH",
"96 705 LINE",
"96 0 LINE",
"367 0 LINE SMOOTH",
"513 0 OFFCURVE",
"595 65 OFFCURVE",
"595 191 CURVE SMOOTH",
"595 292 OFFCURVE",
"535 356 OFFCURVE",
"434 366 CURVE",
"435 352 LINE"
);
},
{
closed = 1;
nodes = (
"475 666 OFFCURVE",
"535 619 OFFCURVE",
"535 526 CURVE SMOOTH",
"535 430 OFFCURVE",
"471 378 OFFCURVE",
"351 378 CURVE SMOOTH",
"138 378 LINE",
"138 666 LINE",
"351 666 LINE SMOOTH"
);
},
{
closed = 1;
nodes = (
"138 39 LINE",
"138 338 LINE",
"366 338 LINE SMOOTH",
"489 338 OFFCURVE",
"551 286 OFFCURVE",
"551 186 CURVE SMOOTH",
"551 86 OFFCURVE",
"491 39 OFFCURVE",
"366 39 CURVE SMOOTH"
);
}
);
};
layerId = "F1F93986-3ED8-4AAE-84C4-CA3EEECDDFA0";
paths = (
{
closed = 1;
nodes = (
"524 372 OFFCURVE",
"579 431 OFFCURVE",
"579 520 CURVE SMOOTH",
"579 641 OFFCURVE",
"498 705 OFFCURVE",
"356 705 CURVE SMOOTH",
"96 705 LINE",
"96 0 LINE",
"367 0 LINE SMOOTH",
"513 0 OFFCURVE",
"595 65 OFFCURVE",
"595 191 CURVE SMOOTH",
"595 292 OFFCURVE",
"535 357 OFFCURVE",
"432 367 CURVE",
"433 353 LINE"
);
},
{
closed = 1;
nodes = (
"475 666 OFFCURVE",
"535 619 OFFCURVE",
"535 526 CURVE SMOOTH",
"535 430 OFFCURVE",
"471 378 OFFCURVE",
"351 378 CURVE SMOOTH",
"138 378 LINE",
"138 666 LINE",
"351 666 LINE SMOOTH"
);
},
{
closed = 1;
nodes = (
"138 39 LINE",
"138 338 LINE",
"366 338 LINE SMOOTH",
"489 338 OFFCURVE",
"551 286 OFFCURVE",
"551 186 CURVE SMOOTH",
"551 86 OFFCURVE",
"491 39 OFFCURVE",
"366 39 CURVE SMOOTH"
);
}
);
width = 665.41176;
},
{
anchors = (
{
name = bottom;
position = "{355, 0}";
},
{
name = top;
position = "{355, 705}";
}
);
background = {
anchors = (
{
name = bottom;
position = "{355, 0}";
},
{
name = top;
position = "{355, 705}";
}
);
paths = (
{
closed = 1;
nodes = (
"609 374 OFFCURVE",
"662 441 OFFCURVE",
"662 523 CURVE SMOOTH",
"662 632 OFFCURVE",
"565 705 OFFCURVE",
"416 705 CURVE SMOOTH",
"57 705 LINE",
"57 0 LINE",
"425 0 LINE SMOOTH",
"581 0 OFFCURVE",
"681 78 OFFCURVE",
"681 194 CURVE SMOOTH",
"681 289 OFFCURVE",
"623 358 OFFCURVE",
"519 375 CURVE",
"521 358 LINE"
);
},
{
closed = 1;
nodes = (
"436 544 OFFCURVE",
"461 527 OFFCURVE",
"461 488 CURVE SMOOTH",
"461 453 OFFCURVE",
"437 439 OFFCURVE",
"379 439 CURVE SMOOTH",
"266 439 LINE",
"266 544 LINE",
"379 544 LINE SMOOTH"
);
},
{
closed = 1;
nodes = (
"266 161 LINE",
"266 278 LINE",
"398 278 LINE SMOOTH",
"460 278 OFFCURVE",
"481 263 OFFCURVE",
"481 220 CURVE SMOOTH",
"481 178 OFFCURVE",
"459 161 OFFCURVE",
"398 161 CURVE SMOOTH"
);
}
);
};
layerId = "4121B50C-FD42-45C5-8FBE-41E76D98F91E";
paths = (
{
closed = 1;
nodes = (
"609 379 OFFCURVE",
"662 441 OFFCURVE",
"662 523 CURVE SMOOTH",
"662 633 OFFCURVE",
"564 705 OFFCURVE",
"416 705 CURVE SMOOTH",
"57 705 LINE",
"57 0 LINE",
"425 0 LINE SMOOTH",
"580 0 OFFCURVE",
"681 77 OFFCURVE",
"681 194 CURVE SMOOTH",
"681 292 OFFCURVE",
"625 355 OFFCURVE",
"519 375 CURVE",
"521 358 LINE"
);
},
{
closed = 1;
nodes = (
"439 544 OFFCURVE",
"461 527 OFFCURVE",
"461 492 CURVE SMOOTH",
"461 453 OFFCURVE",
"435 439 OFFCURVE",
"379 439 CURVE SMOOTH",
"266 439 LINE",
"266 544 LINE",
"379 544 LINE SMOOTH"
);
},
{
closed = 1;
nodes = (
"266 161 LINE",
"266 278 LINE",
"398 278 LINE SMOOTH",
"458 278 OFFCURVE",
"481 263 OFFCURVE",
"481 219 CURVE SMOOTH",
"481 179 OFFCURVE",
"456 161 OFFCURVE",
"398 161 CURVE SMOOTH"
);
}
);
width = 701.21569;
}
);
leftKerningGroup = H;
leftMetricsKey = H;
rightKerningGroup = B;
unicode = 0042;
userData = {
anchors = (
);
b = {
};
com.typemytype.robofont.layerData = {
b = {
anchors = (
);
components = (
);
contours = (
{
points = (
{
segmentType = curve;
smooth = 1;
x = 266;
y = 0;
},
{
segmentType = line;
smooth = 1;
x = 1035;
y = 0;
},
{
smooth = 0;
x = 1084;
y = 0;
},
{
smooth = 0;
x = 1108;
y = 36;
},
{
segmentType = curve;
smooth = 1;
x = 1108;
y = 73;
},
{
smooth = 0;
x = 1108;
y = 109;
},
{
smooth = 0;
x = 1084;
y = 145;
},
{
segmentType = curve;
smooth = 1;
x = 1035;
y = 145;
},
{
segmentType = line;
smooth = 0;
x = 353;
y = 145;
},
{
segmentType = line;
smooth = 0;
x = 353;
y = 662;
},
{
segmentType = line;
smooth = 1;
x = 975;
y = 662;
},
{
smooth = 0;
x = 1024;
y = 662;
},
{
smooth = 0;
x = 1049;
y = 698;
},
{
segmentType = curve;
smooth = 1;
x = 1049;
y = 734;
},
{
smooth = 0;
x = 1049;
y = 770;
},
{
smooth = 0;
x = 1026;
y = 806;
},
{
segmentType = curve;
smooth = 1;
x = 975;
y = 806;
},
{
segmentType = line;
smooth = 0;
x = 353;
y = 806;
},
{
segmentType = line;
smooth = 0;
x = 353;
y = 1281;
},
{
segmentType = line;
smooth = 1;
x = 1007;
y = 1281;
},
{
smooth = 0;
x = 1056;
y = 1281;
},
{
smooth = 0;
x = 1080;
y = 1317;
},
{
segmentType = curve;
smooth = 1;
x = 1080;
y = 1354;
},
{
smooth = 0;
x = 1080;
y = 1390;
},
{
smooth = 0;
x = 1056;
y = 1426;
},
{
segmentType = curve;
smooth = 1;
x = 1007;
y = 1426;
},
{
segmentType = line;
smooth = 1;
x = 261;
y = 1426;
},
{
smooth = 0;
x = 213;
y = 1426;
},
{
smooth = 0;
x = 178;
y = 1383;
},
{
segmentType = curve;
smooth = 1;
x = 178;
y = 1340;
},
{
segmentType = line;
smooth = 1;
x = 178;
y = 86;
},
{
smooth = 0;
x = 178;
y = 41;
},
{
smooth = 0;
x = 222;
y = 0;
}
);
}
);
lib = {
};
name = B;
unicodes = (
);
width = 1292;
};
};
components = (
);
contours = {
};
lib = {
};
name = B;
points = {
};
segmentType = curve;
unicodes = (
);
width = 1395;
x = 676;
y = 1260;
};
},
{
color = 3;
glyphname = C;
lastChange = "2019-07-01 21:43:36 +0000";
layers = (
{
anchors = (
{
name = bottom;
position = "{380, 0}";
},
{
name = top;
position = "{382, 705}";
}
);
background = {
anchors = (
{
name = bottom;
position = "{380, 0}";
},
{
name = top;
position = "{382, 705}";
}
);
paths = (
{
closed = 1;
nodes = (
"478 -8 OFFCURVE",
"559 23 OFFCURVE",
"621 87 CURVE",
"600 122 LINE",
"530 57 OFFCURVE",
"466 33 OFFCURVE",
"380 33 CURVE SMOOTH",
"209 33 OFFCURVE",
"111 150 OFFCURVE",
"111 353 CURVE SMOOTH",
"111 555 OFFCURVE",
"210 672 OFFCURVE",
"380 672 CURVE SMOOTH",
"466 672 OFFCURVE",
"530 648 OFFCURVE",
"600 583 CURVE",
"621 618 LINE",
"559 682 OFFCURVE",
"478 713 OFFCURVE",
"381 713 CURVE SMOOTH",
"187 713 OFFCURVE",
"67 579 OFFCURVE",
"67 353 CURVE SMOOTH",
"67 127 OFFCURVE",
"187 -8 OFFCURVE",
"381 -8 CURVE SMOOTH"
);
}
);
};
layerId = "F1F93986-3ED8-4AAE-84C4-CA3EEECDDFA0";
paths = (
{
closed = 1;
nodes = (
"479 -8 OFFCURVE",
"560 24 OFFCURVE",
"621 87 CURVE",
"600 122 LINE",
"534 59 OFFCURVE",
"468 33 OFFCURVE",
"380 33 CURVE SMOOTH",
"209 33 OFFCURVE",
"111 150 OFFCURVE",
"111 353 CURVE SMOOTH",
"111 555 OFFCURVE",
"210 672 OFFCURVE",
"380 672 CURVE SMOOTH",
"468 672 OFFCURVE",
"534 646 OFFCURVE",
"600 583 CURVE",
"621 618 LINE",
"560 681 OFFCURVE",
"479 713 OFFCURVE",
"381 713 CURVE SMOOTH",
"185 713 OFFCURVE",
"67 577 OFFCURVE",
"67 353 CURVE SMOOTH",
"67 128 OFFCURVE",
"186 -8 OFFCURVE",
"381 -8 CURVE SMOOTH"
);
}
);
width = 676.88235;
},
{
anchors = (
{
name = bottom;
position = "{402, 0}";
},
{
name = top;
position = "{401, 705}";
}
);
background = {
anchors = (
{
name = bottom;
position = "{402, 0}";
},
{
name = top;
position = "{401, 705}";
}
);
paths = (
{
closed = 1;
nodes = (
"503 -10 OFFCURVE",
"598 20 OFFCURVE",
"650 64 CURVE",
"585 215 LINE",
"527 178 OFFCURVE",
"471 160 OFFCURVE",
"416 160 CURVE SMOOTH",
"315 160 OFFCURVE",
"259 223 OFFCURVE",
"259 353 CURVE SMOOTH",
"259 484 OFFCURVE",
"315 545 OFFCURVE",
"416 545 CURVE SMOOTH",
"471 545 OFFCURVE",
"527 527 OFFCURVE",
"585 490 CURVE",
"650 641 LINE",
"598 685 OFFCURVE",
"503 715 OFFCURVE",
"412 715 CURVE SMOOTH",
"182 715 OFFCURVE",
"41 567 OFFCURVE",
"41 353 CURVE SMOOTH",
"41 139 OFFCURVE",
"182 -10 OFFCURVE",
"412 -10 CURVE SMOOTH"
);
}
);
};
layerId = "4121B50C-FD42-45C5-8FBE-41E76D98F91E";
paths = (
{
closed = 1;
nodes = (
"502 -10 OFFCURVE",
"598 20 OFFCURVE",
"650 64 CURVE",
"585 215 LINE",
"527 178 OFFCURVE",
"471 160 OFFCURVE",
"416 160 CURVE SMOOTH",
"313 160 OFFCURVE",
"259 226 OFFCURVE",
"259 353 CURVE SMOOTH",
"259 480 OFFCURVE",
"312 545 OFFCURVE",
"416 545 CURVE SMOOTH",
"471 545 OFFCURVE",
"527 527 OFFCURVE",
"585 490 CURVE",
"650 641 LINE",
"598 685 OFFCURVE",
"502 715 OFFCURVE",
"412 715 CURVE SMOOTH",
"187 715 OFFCURVE",
"41 572 OFFCURVE",
"41 353 CURVE SMOOTH",
"41 133 OFFCURVE",
"188 -10 OFFCURVE",
"412 -10 CURVE SMOOTH"
);
}
);
width = 678.5098;
}
);
leftKerningGroup = O;
leftMetricsKey = O;
rightKerningGroup = C;
unicode = 0043;
userData = {
anchors = (
);
b = {
};
com.typemytype.robofont.layerData = {
b = {
anchors = (
);
components = (
);
contours = (
);
lib = {
};
name = C;
unicodes = (
);
width = 1353.89001;
};
};
components = (
);
contours = (
);
lib = {
};
name = C;
unicodes = (
);
width = 1354;
};
},
{
color = 3;
glyphname = D;
lastChange = "2019-07-01 21:43:14 +0000";
layers = (
{
anchors = (
{
name = bottom;
position = "{363, 0}";
},
{
name = center;
position = "{173, 358}";
},
{
name = top;
position = "{362, 705}";
}
);
background = {
anchors = (
{
name = bottom;
position = "{363, 0}";
},
{
name = center;
position = "{173, 358}";
},
{
name = top;
position = "{362, 705}";
}
);
paths = (
{
closed = 1;
nodes = (
"313 0 LINE SMOOTH",
"533 0 OFFCURVE",
"658 127 OFFCURVE",
"658 353 CURVE SMOOTH",
"658 580 OFFCURVE",
"534 705 OFFCURVE",
"313 705 CURVE SMOOTH",
"96 705 LINE",
"96 0 LINE"
);
},
{
closed = 1;
nodes = (
"137 667 LINE",
"312 667 LINE SMOOTH",
"512 667 OFFCURVE",
"613 561 OFFCURVE",
"613 353 CURVE SMOOTH",
"613 145 OFFCURVE",
"511 38 OFFCURVE",
"312 38 CURVE SMOOTH",
"137 38 LINE"
);
}
);
};
layerId = "F1F93986-3ED8-4AAE-84C4-CA3EEECDDFA0";
paths = (
{
closed = 1;
nodes = (
"313 0 LINE SMOOTH",
"533 0 OFFCURVE",
"658 127 OFFCURVE",
"658 353 CURVE SMOOTH",
"658 579 OFFCURVE",
"535 705 OFFCURVE",
"313 705 CURVE SMOOTH",
"96 705 LINE",
"96 0 LINE"
);
},
{
closed = 1;
nodes = (
"137 667 LINE",
"312 667 LINE SMOOTH",
"512 667 OFFCURVE",
"613 561 OFFCURVE",
"613 353 CURVE SMOOTH",
"613 145 OFFCURVE",
"511 38 OFFCURVE",
"312 38 CURVE SMOOTH",
"137 38 LINE"
);
}
);
width = 724.76471;
},
{
anchors = (
{
name = bottom;
position = "{391, 0}";
},
{
name = center;
position = "{214, 358}";
},
{
name = top;
position = "{391, 705}";
}
);
background = {
anchors = (
{
name = bottom;
position = "{391, 0}";
},
{
name = center;
position = "{214, 358}";
},
{
name = top;
position = "{391, 705}";
}
);
paths = (
{
closed = 1;
nodes = (
"360 0 LINE SMOOTH",
"600 0 OFFCURVE",
"743 133 OFFCURVE",
"743 353 CURVE SMOOTH",
"743 571 OFFCURVE",
"598 705 OFFCURVE",
"360 705 CURVE SMOOTH",
"57 705 LINE",
"57 0 LINE"
);
},
{
closed = 1;
nodes = (
"272 533 LINE",
"344 533 LINE SMOOTH",
"468 533 OFFCURVE",
"528 475 OFFCURVE",
"528 353 CURVE SMOOTH",
"528 231 OFFCURVE",
"469 172 OFFCURVE",
"344 172 CURVE SMOOTH",
"272 172 LINE"
);
}
);
};
layerId = "4121B50C-FD42-45C5-8FBE-41E76D98F91E";
paths = (
{
closed = 1;
nodes = (
"360 0 LINE SMOOTH",
"599 0 OFFCURVE",
"743 132 OFFCURVE",
"743 353 CURVE SMOOTH",
"743 571 OFFCURVE",
"598 705 OFFCURVE",
"360 705 CURVE SMOOTH",
"57 705 LINE",
"57 0 LINE"
);
},
{
closed = 1;
nodes = (
"272 533 LINE",
"344 533 LINE SMOOTH",
"468 533 OFFCURVE",
"528 475 OFFCURVE",
"528 353 CURVE SMOOTH",
"528 231 OFFCURVE",
"469 172 OFFCURVE",
"344 172 CURVE SMOOTH",
"272 172 LINE"
);
}
);
width = 784;
}
);
leftKerningGroup = H;
leftMetricsKey = H;
rightKerningGroup = O;
rightMetricsKey = O;
unicode = 0044;
userData = {
anchors = (
);
b = {
};
com.typemytype.robofont.layerData = {
b = {
anchors = (
);
components = (
);
contours = (
{
points = (
{
segmentType = curve;
smooth = 1;
x = 266;
y = 0;
},
{
segmentType = line;
smooth = 1;
x = 1035;
y = 0;
},
{
smooth = 0;
x = 1084;
y = 0;
},
{
smooth = 0;
x = 1108;
y = 34;
},
{
segmentType = curve;
smooth = 1;
x = 1108;
y = 71;
},
{
smooth = 0;
x = 1108;
y = 107;
},
{
smooth = 0;
x = 1084;
y = 141;
},
{
segmentType = curve;
smooth = 1;
x = 1035;
y = 141;
},
{
segmentType = line;
smooth = 0;
x = 356;
y = 141;
},
{
segmentType = line;
smooth = 0;
x = 356;
y = 665;
},
{
segmentType = line;
smooth = 1;
x = 975;
y = 665;
},
{
smooth = 0;
x = 1024;
y = 665;
},
{
smooth = 0;
x = 1049;
y = 698;
},
{
segmentType = curve;
smooth = 1;
x = 1049;
y = 734;
},
{
smooth = 0;
x = 1049;
y = 770;
},
{
smooth = 0;
x = 1026;
y = 803;
},
{
segmentType = curve;
smooth = 1;
x = 975;
y = 803;
},
{
segmentType = line;
smooth = 0;
x = 356;
y = 803;
},
{
segmentType = line;
smooth = 0;
x = 356;
y = 1285;
},
{
segmentType = line;
smooth = 1;
x = 1007;
y = 1285;
},
{
smooth = 0;
x = 1056;
y = 1285;
},
{
smooth = 0;
x = 1080;
y = 1319;
},
{
segmentType = curve;
smooth = 1;
x = 1080;
y = 1356;
},
{
smooth = 0;
x = 1080;
y = 1392;
},
{
smooth = 0;
x = 1056;
y = 1426;
},
{
segmentType = curve;
smooth = 1;
x = 1007;
y = 1426;
},
{
segmentType = line;
smooth = 1;
x = 261;
y = 1426;
},
{
smooth = 0;
x = 213;
y = 1426;
},
{
smooth = 0;
x = 178;
y = 1383;
},
{
segmentType = curve;
smooth = 1;
x = 178;
y = 1340;
},
{
segmentType = line;
smooth = 1;
x = 178;
y = 86;
},
{
smooth = 0;
x = 178;
y = 41;
},
{
smooth = 0;
x = 222;
y = 0;
}
);
}
);
lib = {
};
name = D;
unicodes = (
);
width = 1499;
};
};
components = (
);
contours = (
);
lib = {
};
name = D;
unicodes = (
);
width = 1535;
};
},
{
color = 3;
glyphname = E;
lastChange = "2019-07-01 22:04:42 +0000";
layers = (
{
anchors = (
{
name = bottom;
position = "{320, 0}";
},
{
name = ogonek;
position = "{501, 0}";
},
{
name = top;
position = "{320, 705}";
},
{
name = topleft;
position = "{27, 705}";
}
);
background = {
anchors = (
{
name = bottom;
position = "{320, 0}";
},
{
name = ogonek;
position = "{501, 0}";
},
{
name = top;
position = "{320, 705}";
},
{
name = topleft;
position = "{27, 705}";
}
);
paths = (
{
closed = 1;
nodes = (
"520 705 LINE",
"96 705 LINE",
"96 0 LINE",
"520 0 LINE",
"520 39 LINE",
"138 39 LINE",
"138 338 LINE",
"500 338 LINE",
"500 377 LINE",
"138 377 LINE",
"138 666 LINE",
"520 666 LINE"
);
}
);
};
layerId = "F1F93986-3ED8-4AAE-84C4-CA3EEECDDFA0";
paths = (
{
closed = 1;
nodes = (
"520 705 LINE",
"96 705 LINE",
"96 0 LINE",
"520 0 LINE",
"520 39 LINE",
"138 39 LINE",
"138 338 LINE",
"500 338 LINE",
"500 377 LINE",
"138 377 LINE",
"138 666 LINE",
"520 666 LINE"
);
}
);
width = 576.11765;
},
{
anchors = (
{
name = bottom;
position = "{336, 0}";
},
{
name = ogonek;
position = "{552, 0}";
},
{
name = top;
position = "{336, 705}";
},
{
name = topleft;
position = "{18, 705}";
}
);
background = {
anchors = (
{
name = bottom;
position = "{336, 0}";
},
{
name = ogonek;
position = "{552, 0}";
},
{
name = top;
position = "{336, 705}";
},
{
name = topleft;
position = "{18, 705}";
}
);
paths = (
{
closed = 1;
nodes = (
"575 705 LINE",
"57 705 LINE",
"57 0 LINE",
"575 0 LINE",
"575 164 LINE",
"266 164 LINE",
"266 277 LINE",
"555 277 LINE",
"555 441 LINE",
"266 441 LINE",
"266 541 LINE",
"575 541 LINE"
);
}
);
};
layerId = "4121B50C-FD42-45C5-8FBE-41E76D98F91E";
paths = (
{
closed = 1;
nodes = (
"575 705 LINE",
"57 705 LINE",
"57 0 LINE",
"575 0 LINE",
"575 164 LINE",
"266 164 LINE",
"266 277 LINE",
"555 277 LINE",
"555 441 LINE",
"266 441 LINE",
"266 541 LINE",
"575 541 LINE"
);
}
);
width = 602.15686;
}
);
leftKerningGroup = H;
leftMetricsKey = H;
rightKerningGroup = E;
unicode = 0045;
userData = {
anchors = (
);
b = {
};
com.typemytype.robofont.layerData = {
b = {
anchors = (
);
components = (
);
contours = (
);
lib = {
};
name = E;
unicodes = (
);
width = 1234;
};
};
components = (
);
contours = (
);
lib = {
};
name = E;
unicodes = (
);
width = 1258;
};
},
{
color = 3;
glyphname = F;
lastChange = "2019-07-01 22:04:42 +0000";
layers = (
{
anchors = (
{
name = bottom;
position = "{293, 0}";
},
{
name = top;
position = "{293, 705}";
}
);
background = {
anchors = (
{
name = bottom;
position = "{293, 0}";
},
{
name = top;
position = "{293, 705}";
}
);
paths = (
{
closed = 1;
nodes = (
"510 705 LINE",
"96 705 LINE",
"96 0 LINE",
"137 0 LINE",
"137 339 LINE",
"490 339 LINE",
"490 377 LINE",
"137 377 LINE",
"137 666 LINE",
"510 666 LINE"
);
}
);
};
layerId = "F1F93986-3ED8-4AAE-84C4-CA3EEECDDFA0";
paths = (
{
closed = 1;
nodes = (
"510 705 LINE",
"96 705 LINE",
"96 0 LINE",
"137 0 LINE",
"137 339 LINE",
"490 339 LINE",
"490 377 LINE",
"137 377 LINE",
"137 666 LINE",
"510 666 LINE"
);
}
);
width = 548.41176;
},
{
anchors = (
{
name = bottom;
position = "{302, 0}";
},
{
name = top;
position = "{302, 705}";
}
);
background = {
anchors = (
{
name = bottom;
position = "{302, 0}";
},
{
name = top;
position = "{302, 705}";
}
);
paths = (
{
closed = 1;
nodes = (
"565 705 LINE",
"57 705 LINE",
"57 0 LINE",
"269 0 LINE",
"269 275 LINE",
"545 275 LINE",
"545 442 LINE",
"269 442 LINE",
"269 538 LINE",
"565 538 LINE"
);
}
);
};
layerId = "4121B50C-FD42-45C5-8FBE-41E76D98F91E";
paths = (
{
closed = 1;
nodes = (
"565 705 LINE",
"57 705 LINE",
"57 0 LINE",
"269 0 LINE",
"269 275 LINE",
"545 275 LINE",
"545 442 LINE",
"269 442 LINE",
"269 538 LINE",
"565 538 LINE"
);
}
);
width = 584.21569;
}
);
leftKerningGroup = H;
leftMetricsKey = H;
rightKerningGroup = F;
unicode = 0046;
userData = {
anchors = (
);
b = {
};
com.typemytype.robofont.layerData = {
b = {
anchors = (
);
components = (
);
contours = (
{
points = (
{
segmentType = curve;
smooth = 1;
x = 266;
y = 0;
},
{
segmentType = line;
smooth = 1;
x = 1035;
y = 0;
},
{
smooth = 0;
x = 1084;
y = 0;
},
{
smooth = 0;
x = 1108;
y = 34;
},
{
segmentType = curve;
smooth = 1;
x = 1108;
y = 71;
},
{
smooth = 0;
x = 1108;
y = 107;
},
{
smooth = 0;
x = 1084;
y = 141;
},
{
segmentType = curve;
smooth = 1;
x = 1035;
y = 141;
},
{
segmentType = line;
smooth = 0;
x = 353;
y = 141;
},
{
segmentType = line;
smooth = 0;
x = 353;
y = 665;
},
{
segmentType = line;
smooth = 1;
x = 975;
y = 665;
},
{
smooth = 0;
x = 1024;
y = 665;
},
{
smooth = 0;
x = 1049;
y = 698;
},
{
segmentType = curve;
smooth = 1;
x = 1049;
y = 734;
},
{
smooth = 0;
x = 1049;
y = 770;
},
{
smooth = 0;
x = 1026;
y = 803;
},
{
segmentType = curve;
smooth = 1;
x = 975;
y = 803;
},
{
segmentType = line;
smooth = 0;
x = 353;
y = 803;
},
{
segmentType = line;
smooth = 0;
x = 353;
y = 1285;
},
{
segmentType = line;
smooth = 1;
x = 1007;
y = 1285;
},
{
smooth = 0;
x = 1056;
y = 1285;
},
{
smooth = 0;
x = 1080;
y = 1319;
},
{
segmentType = curve;
smooth = 1;
x = 1080;
y = 1356;
},
{
smooth = 0;
x = 1080;
y = 1392;
},
{
smooth = 0;
x = 1056;
y = 1426;
},
{
segmentType = curve;
smooth = 1;
x = 1007;
y = 1426;
},
{
segmentType = line;
smooth = 1;
x = 261;
y = 1426;
},
{
smooth = 0;
x = 213;
y = 1426;
},
{
smooth = 0;
x = 178;
y = 1383;
},
{
segmentType = curve;
smooth = 1;
x = 178;
y = 1340;
},
{
segmentType = line;
smooth = 1;
x = 178;
y = 86;
},
{
smooth = 0;
x = 178;
y = 41;
},
{
smooth = 0;
x = 222;
y = 0;
}
);
}
);
lib = {
};
name = F;
unicodes = (
);
width = 1142;
};
};
components = (
);
contours = (
);
lib = {
};
name = F;
unicodes = (
);
width = 1175;
};
},
{
color = 3;
glyphname = G;
lastChange = "2019-07-01 22:04:42 +0000";
layers = (
{
anchors = (
{
name = bottom;
position = "{390, 0}";
},
{
name = top;
position = "{383, 705}";
}
);
background = {
anchors = (
{
name = bottom;
position = "{390, 0}";
},
{
name = top;
position = "{383, 705}";
}
);
paths = (
{
closed = 1;
nodes = (
"481 -8 OFFCURVE",
"579 12 OFFCURVE",
"628 40 CURVE",
"628 355 LINE",
"394 355 LINE",
"394 315 LINE",
"589 315 LINE",
"589 35 LINE",
"600 73 LINE",
"547 48 OFFCURVE",
"480 32 OFFCURVE",
"401 32 CURVE SMOOTH",
"206 32 OFFCURVE",
"111 146 OFFCURVE",
"111 353 CURVE SMOOTH",
"111 556 OFFCURVE",
"211 672 OFFCURVE",
"383 672 CURVE SMOOTH",
"468 672 OFFCURVE",
"538 647 OFFCURVE",
"602 582 CURVE",
"623 618 LINE",
"564 681 OFFCURVE",
"481 713 OFFCURVE",
"386 713 CURVE SMOOTH",
"188 713 OFFCURVE",
"67 581 OFFCURVE",
"67 353 CURVE SMOOTH",
"67 126 OFFCURVE",
"182 -8 OFFCURVE",
"402 -8 CURVE SMOOTH"
);
}
);
};
layerId = "F1F93986-3ED8-4AAE-84C4-CA3EEECDDFA0";
paths = (
{
closed = 1;
nodes = (
"482 -8 OFFCURVE",
"579 13 OFFCURVE",
"628 40 CURVE",
"628 355 LINE",
"394 355 LINE",
"394 315 LINE",
"589 315 LINE",
"589 35 LINE",
"600 73 LINE",
"543 47 OFFCURVE",
"475 33 OFFCURVE",
"401 33 CURVE SMOOTH",
"210 33 OFFCURVE",
"111 142 OFFCURVE",
"111 353 CURVE SMOOTH",
"111 555 OFFCURVE",
"210 672 OFFCURVE",
"383 672 CURVE SMOOTH",
"473 672 OFFCURVE",
"541 644 OFFCURVE",
"602 582 CURVE",
"623 618 LINE",
"566 680 OFFCURVE",
"483 713 OFFCURVE",
"386 713 CURVE SMOOTH",
"184 713 OFFCURVE",
"67 579 OFFCURVE",
"67 353 CURVE SMOOTH",
"67 121 OFFCURVE",
"187 -8 OFFCURVE",
"402 -8 CURVE SMOOTH"
);
}
);
width = 715.52941;
},
{
anchors = (
{
name = bottom;
position = "{426, 0}";
},
{
name = top;
position = "{419, 705}";
}
);
background = {
anchors = (
{
name = bottom;
position = "{426, 0}";
},
{
name = top;
position = "{419, 705}";
}
);
paths = (
{
closed = 1;
nodes = (
"525 -10 OFFCURVE",
"621 9 OFFCURVE",
"701 46 CURVE",
"701 407 LINE",
"400 407 LINE",
"400 263 LINE",
"509 263 LINE",
"509 112 LINE",
"555 169 LINE",
"509 157 OFFCURVE",
"465 153 OFFCURVE",
"432 153 CURVE SMOOTH",
"315 153 OFFCURVE",
"258 214 OFFCURVE",
"258 353 CURVE SMOOTH",
"258 488 OFFCURVE",
"310 547 OFFCURVE",
"427 547 CURVE SMOOTH",
"491 547 OFFCURVE",
"544 530 OFFCURVE",
"611 493 CURVE",
"675 644 LINE",
"619 687 OFFCURVE",
"522 715 OFFCURVE",
"418 715 CURVE SMOOTH",
"190 715 OFFCURVE",
"41 572 OFFCURVE",
"41 353 CURVE SMOOTH",
"41 128 OFFCURVE",
"191 -10 OFFCURVE",
"421 -10 CURVE SMOOTH"
);
}
);
};
layerId = "4121B50C-FD42-45C5-8FBE-41E76D98F91E";
paths = (
{
closed = 1;
nodes = (
"525 -10 OFFCURVE",
"621 9 OFFCURVE",
"701 46 CURVE",
"701 407 LINE",
"400 407 LINE",
"400 263 LINE",
"509 263 LINE",
"509 112 LINE",
"555 169 LINE",
"509 157 OFFCURVE",
"465 153 OFFCURVE",
"432 153 CURVE SMOOTH",
"315 153 OFFCURVE",
"258 214 OFFCURVE",
"258 353 CURVE SMOOTH",
"258 488 OFFCURVE",
"310 547 OFFCURVE",
"427 547 CURVE SMOOTH",
"491 547 OFFCURVE",
"544 530 OFFCURVE",
"611 493 CURVE",
"675 644 LINE",
"619 687 OFFCURVE",
"522 715 OFFCURVE",
"418 715 CURVE SMOOTH",
"190 715 OFFCURVE",
"41 572 OFFCURVE",
"41 353 CURVE SMOOTH",
"41 128 OFFCURVE",
"191 -10 OFFCURVE",
"421 -10 CURVE SMOOTH"
);
}
);
width = 749.70588;
}
);
leftKerningGroup = O;
leftMetricsKey = O;
rightKerningGroup = G;
unicode = 0047;
userData = {
anchors = (
);
b = {
};
com.typemytype.robofont.layerData = {
b = {
anchors = (
);
components = (
);
contours = (
{
points = (
{
segmentType = curve;
smooth = 1;
x = 783;
y = "-22";
},
{
smooth = 0;
x = 965;
y = "-22";
},
{
smooth = 0;
x = 1086;
y = 34;
},
{
segmentType = curve;
smooth = 1;
x = 1166;
y = 86;
},
{
smooth = 0;
x = 1270;
y = 154;
},
{
smooth = 0;
x = 1186;
y = 258;
},
{
segmentType = curve;
smooth = 1;
x = 1112;
y = 214;
},
{
smooth = 0;
x = 1024;
y = 162;
},
{
smooth = 0;
x = 939;
y = 120;
},
{
segmentType = curve;
smooth = 1;
x = 806;
y = 120;
},
{
smooth = 0;
x = 446;
y = 120;
},
{
smooth = 0;
x = 316;
y = 406;
},
{
segmentType = curve;
smooth = 1;
x = 316;
y = 706;
},
{
smooth = 0;
x = 316;
y = 1005;
},
{
smooth = 0;
x = 450;
y = 1296;
},
{
segmentType = curve;
smooth = 1;
x = 801;
y = 1296;
},
{
smooth = 0;
x = 980;
y = 1296;
},
{
smooth = 0;
x = 1053;
y = 1246;
},
{
segmentType = curve;
smooth = 1;
x = 1094;
y = 1225;
},
{
smooth = 0;
x = 1174;
y = 1184;
},
{
smooth = 0;
x = 1231;
y = 1300;
},
{
segmentType = curve;
smooth = 1;
x = 1156;
y = 1343;
},
{
smooth = 0;
x = 1106;
y = 1372;
},
{
smooth = 0;
x = 995;
y = 1438;
},
{
segmentType = curve;
smooth = 1;
x = 797;
y = 1438;
},
{
smooth = 0;
x = 359;
y = 1438;
},
{
smooth = 0;
x = 128;
y = 1093;
},
{
segmentType = curve;
smooth = 1;
x = 128;
y = 704;
},
{
smooth = 0;
x = 128;
y = 307;
},
{
smooth = 0;
x = 350;
y = "-22";
}
);
}
);
lib = {
};
name = G;
unicodes = (
);
width = 1448;
};
};
components = (
);
contours = (
);
lib = {
};
name = G;
unicodes = (
);
width = 1538;
};
},
{
color = 3;
glyphname = H;
lastChange = "2019-07-01 22:04:42 +0000";
layers = (
{
anchors = (
{
name = bottom;
position = "{376, 0}";
},
{
name = center;
position = "{376, 546}";
},
{
name = top;
position = "{375, 705}";
},
{
name = topleft;
position = "{27, 705}";
}
);
background = {
anchors = (
{
name = bottom;
position = "{376, 0}";
},
{
name = center;
position = "{376, 546}";
},
{
name = top;
position = "{375, 705}";
},
{
name = topleft;
position = "{27, 705}";
}
);
paths = (
{
closed = 1;
nodes = (
"613 377 LINE",
"138 377 LINE",
"138 705 LINE",
"96 705 LINE",
"96 0 LINE",
"138 0 LINE",
"138 339 LINE",
"613 339 LINE",
"613 0 LINE",
"655 0 LINE",
"655 705 LINE",
"613 705 LINE"
);
}
);
};
layerId = "F1F93986-3ED8-4AAE-84C4-CA3EEECDDFA0";
paths = (
{
closed = 1;
nodes = (
"613 377 LINE",
"138 377 LINE",
"138 705 LINE",
"96 705 LINE",
"96 0 LINE",
"138 0 LINE",
"138 339 LINE",
"613 339 LINE",
"613 0 LINE",
"655 0 LINE",
"655 705 LINE",
"613 705 LINE"
);
}
);
width = 750.76471;
},
{
anchors = (
{
name = bottom;
position = "{391, 0}";
},
{
name = center;
position = "{391, 575}";
},
{
name = top;
position = "{391, 705}";
},
{
name = topleft;
position = "{18, 705}";
}
);
background = {
anchors = (
{
name = bottom;
position = "{391, 0}";
},
{
name = center;
position = "{391, 575}";
},
{
name = top;
position = "{391, 705}";
},
{
name = topleft;
position = "{18, 705}";
}
);
paths = (
{
closed = 1;
nodes = (
"514 442 LINE",
"268 442 LINE",
"268 705 LINE",
"57 705 LINE",
"57 0 LINE",
"268 0 LINE",
"268 274 LINE",
"514 274 LINE",
"514 0 LINE",
"725 0 LINE",
"725 705 LINE",
"514 705 LINE"
);
}
);
};
layerId = "4121B50C-FD42-45C5-8FBE-41E76D98F91E";
paths = (
{
closed = 1;
nodes = (
"514 442 LINE",
"268 442 LINE",
"268 705 LINE",
"57 705 LINE",
"57 0 LINE",
"268 0 LINE",
"268 274 LINE",
"514 274 LINE",
"514 0 LINE",
"725 0 LINE",
"725 705 LINE",
"514 705 LINE"
);
}
);
width = 781.68627;
}
);
leftKerningGroup = H;
rightKerningGroup = H;
rightMetricsKey = "=|";
unicode = 0048;
userData = {
anchors = (
);
b = {
};
com.typemytype.robofont.layerData = {
b = {
anchors = (
);
components = (
);
contours = (
);
lib = {
};
name = H;
unicodes = (
);
width = 1464;
};
};
components = (
);
contours = (
);
lib = {
};
name = H;
unicodes = (
);
width = 1524;
};
},
{
color = 3;
glyphname = I;
lastChange = "2019-07-01 22:04:42 +0000";
layers = (
{
anchors = (
{
name = bottom;
position = "{116, 0}";
},
{
name = ogonek;
position = "{135, 0}";
},
{
name = top;
position = "{116, 705}";
},
{
name = topleft;
position = "{26, 705}";
}
);
background = {
anchors = (
{
name = bottom;
position = "{116, 0}";
},
{
name = ogonek;
position = "{135, 0}";
},
{
name = top;
position = "{116, 705}";
},
{
name = topleft;
position = "{26, 705}";
}
);
paths = (
{
closed = 1;
nodes = (
"136 0 LINE",
"136 705 LINE",
"95 705 LINE",
"95 0 LINE"
);
}
);
};
layerId = "F1F93986-3ED8-4AAE-84C4-CA3EEECDDFA0";
paths = (
{
closed = 1;
nodes = (
"135 0 LINE",
"135 705 LINE",
"96 705 LINE",
"96 0 LINE"
);
}
);
width = 231;
},
{
anchors = (
{
name = bottom;
position = "{164, 0}";
},
{
name = ogonek;
position = "{231, 0}";
},
{
name = top;
position = "{164, 705}";
},
{
name = topleft;
position = "{18, 705}";
}
);
background = {
anchors = (
{
name = bottom;
position = "{164, 0}";
},
{
name = ogonek;
position = "{231, 0}";
},
{
name = top;
position = "{164, 705}";
},
{
name = topleft;
position = "{18, 705}";
}
);
paths = (
{
closed = 1;
nodes = (
"272 0 LINE",
"272 705 LINE",
"57 705 LINE",
"57 0 LINE"
);
}
);
};
layerId = "4121B50C-FD42-45C5-8FBE-41E76D98F91E";
paths = (
{
closed = 1;
nodes = (
"272 0 LINE",
"272 705 LINE",
"57 705 LINE",
"57 0 LINE"
);
}
);
width = 329.07843;
}
);
leftKerningGroup = H;
leftMetricsKey = H;
rightKerningGroup = H;
rightMetricsKey = H;
unicode = 0049;
userData = {
anchors = (
);
b = {
};
com.typemytype.robofont.layerData = {
b = {
anchors = (
);
components = (
);
contours = (
);
lib = {
};
name = I;
unicodes = (
);
width = 592;
};
};
components = (
);
contours = (
);
lib = {
};
name = I;
unicodes = (
);
width = 637;
};
},
{
color = 3;
glyphname = J;
lastChange = "2019-07-02 08:08:55 +0000";
layers = (
{
anchors = (
{
name = bottom;
position = "{181, 0}";
},
{
name = top;
position = "{181, 705}";
}
);
background = {
anchors = (
{
name = bottom;
position = "{181, 0}";
},
{
name = top;
position = "{181, 705}";
}
);
paths = (
{
closed = 1;
nodes = (
"44 -2 LINE SMOOTH",
"145 5 OFFCURVE",
"201 70 OFFCURVE",
"201 177 CURVE SMOOTH",
"201 705 LINE",
"160 705 LINE",
"160 179 LINE SMOOTH",
"160 96 OFFCURVE",
"116 42 OFFCURVE",
"41 36 CURVE SMOOTH",
"-10 32 LINE",
"-6 -6 LINE"
);
}
);
};
layerId = "F1F93986-3ED8-4AAE-84C4-CA3EEECDDFA0";
paths = (
{
closed = 1;
nodes = (
"44 -2 LINE SMOOTH",
"145 5 OFFCURVE",
"201 70 OFFCURVE",
"201 177 CURVE SMOOTH",
"201 705 LINE",
"160 705 LINE",
"160 179 LINE SMOOTH",
"160 96 OFFCURVE",
"116 42 OFFCURVE",
"41 36 CURVE SMOOTH",
"-10 32 LINE",
"-6 -6 LINE"
);
}
);
width = 297.17647;
},
{
anchors = (
{
name = bottom;
position = "{254, 0}";
},
{
name = top;
position = "{254, 705}";
}
);
background = {
anchors = (
{
name = bottom;
position = "{254, 0}";
},
{
name = top;
position = "{254, 705}";
}
);
paths = (
{
closed = 1;
nodes = (
"125 -7 LINE SMOOTH",
"285 2 OFFCURVE",
"362 76 OFFCURVE",
"362 221 CURVE SMOOTH",
"362 705 LINE",
"145 705 LINE",
"145 217 LINE SMOOTH",
"145 177 OFFCURVE",
"131 166 OFFCURVE",
"88 164 CURVE SMOOTH",
"-1 159 LINE",
"12 -12 LINE"
);
}
);
};
layerId = "4121B50C-FD42-45C5-8FBE-41E76D98F91E";
paths = (
{
closed = 1;
nodes = (
"125 -7 LINE SMOOTH",
"285 2 OFFCURVE",
"362 76 OFFCURVE",
"362 221 CURVE SMOOTH",
"362 705 LINE",
"145 705 LINE",
"145 217 LINE SMOOTH",
"145 177 OFFCURVE",
"131 166 OFFCURVE",
"88 164 CURVE SMOOTH",
"-1 159 LINE",
"12 -12 LINE"
);
}
);
width = 419.23529;
}
);
leftKerningGroup = J;
rightKerningGroup = J;
unicode = 004A;
userData = {
anchors = (
);
b = {
};
com.typemytype.robofont.layerData = {
b = {
anchors = (
);
components = (
);
contours = (
);
lib = {
};
name = J;
unicodes = (
);
width = 1003;
};
};
components = (
);
contours = (
);
lib = {
};
name = J;
unicodes = (
);
width = 1126;
};
},
{
color = 3;
glyphname = K;
lastChange = "2019-07-02 08:09:20 +0000";
layers = (
{
anchors = (
{
name = bottom;
position = "{302, 0}";
},
{
name = ogonek;
position = "{136, 0}";
},
{
name = top;
position = "{301, 705}";
},
{
name = topleft;
position = "{27, 705}";
}
);
background = {
anchors = (
{
name = bottom;
position = "{302, 0}";
},
{
name = ogonek;
position = "{136, 0}";
},
{
name = top;
position = "{301, 705}";
},
{
name = topleft;
position = "{27, 705}";
}
);
paths = (
{
closed = 1;
nodes = (
"158 376 LINE",
"158 341 LINE",
"570 705 LINE",
"511 705 LINE",
"137 375 LINE",
"137 705 LINE",
"96 705 LINE",
"96 0 LINE",
"137 0 LINE",
"137 340 LINE",
"532 0 LINE",
"593 0 LINE"
);
}
);
};
layerId = "F1F93986-3ED8-4AAE-84C4-CA3EEECDDFA0";
paths = (
{
closed = 1;
nodes = (
"158 376 LINE",
"158 341 LINE",
"570 705 LINE",
"511 705 LINE",
"137 375 LINE",
"137 705 LINE",
"96 705 LINE",
"96 0 LINE",
"137 0 LINE",
"137 340 LINE",
"532 0 LINE",
"593 0 LINE"
);
}
);
width = 599.29412;
},
{
anchors = (
{
name = bottom;
position = "{362, 0}";
},
{
name = ogonek;
position = "{231, 0}";
},
{
name = top;
position = "{362, 705}";
},
{
name = topleft;
position = "{18, 705}";
}
);
background = {
anchors = (
{
name = bottom;
position = "{362, 0}";
},
{
name = ogonek;
position = "{231, 0}";
},
{
name = top;
position = "{362, 705}";
},
{
name = topleft;
position = "{18, 705}";
}
);
paths = (
{
closed = 1;
nodes = (
"443 418 LINE",
"426 312 LINE",
"777 705 LINE",
"527 705 LINE",
"272 406 LINE",
"272 705 LINE",
"57 705 LINE",
"57 0 LINE",
"272 0 LINE",
"272 317 LINE",
"532 0 LINE",
"785 0 LINE"
);
}
);
};
layerId = "4121B50C-FD42-45C5-8FBE-41E76D98F91E";
paths = (
{
closed = 1;
nodes = (
"443 418 LINE",
"426 312 LINE",
"777 705 LINE",
"527 705 LINE",
"272 406 LINE",
"272 705 LINE",
"57 705 LINE",
"57 0 LINE",
"272 0 LINE",
"272 317 LINE",
"532 0 LINE",
"785 0 LINE"
);
}
);
width = 719.72549;
}
);
leftKerningGroup = H;
leftMetricsKey = H;
rightKerningGroup = K;
unicode = 004B;
userData = {
anchors = (
);
b = {
};
com.typemytype.robofont.layerData = {
b = {
anchors = (
);
components = (
);
contours = (
);
lib = {
};
name = K;
unicodes = (
);
width = 1210;
};
};
components = (
);
contours = (
);
lib = {
};
name = K;
unicodes = (
);
width = 1329;
};
},
{
color = 3;
glyphname = L;
lastChange = "2019-07-02 08:09:36 +0000";
layers = (
{
anchors = (
{
name = bottom;
position = "{306, 0}";
},
{
name = center;
position = "{161, 387}";
},
{
name = dot;
position = "{379, 386}";
},
{
name = top;
position = "{117, 705}";
},
{
name = topright;
position = "{260, 705}";
}
);
background = {
anchors = (
{
name = bottom;
position = "{306, 0}";
},
{
name = center;
position = "{161, 387}";
},
{
name = dot;
position = "{379, 386}";
},
{
name = top;
position = "{117, 705}";
},
{
name = topright;
position = "{260, 705}";
}
);
paths = (
{
closed = 1;
nodes = (
"512 0 LINE",
"512 38 LINE",
"137 38 LINE",
"137 705 LINE",
"96 705 LINE",
"96 0 LINE"
);
}
);
};
layerId = "F1F93986-3ED8-4AAE-84C4-CA3EEECDDFA0";
paths = (
{
closed = 1;
nodes = (
"512 0 LINE",
"512 39 LINE",
"137 39 LINE",
"137 705 LINE",
"96 705 LINE",
"96 0 LINE"
);
}
);
width = 527;
},
{
anchors = (
{
name = bottom;
position = "{316, 0}";
},
{
name = center;
position = "{212, 387}";
},
{
name = dot;
position = "{456, 402}";
},
{
name = top;
position = "{164, 705}";
},
{
name = topright;
position = "{362, 705}";
}
);
background = {
anchors = (
{
name = bottom;
position = "{316, 0}";
},
{
name = center;
position = "{212, 387}";
},
{
name = dot;
position = "{456, 402}";
},
{
name = top;
position = "{164, 705}";
},
{
name = topright;
position = "{362, 705}";
}
);
paths = (
{
closed = 1;
nodes = (
"556 0 LINE",
"556 173 LINE",
"272 173 LINE",
"272 705 LINE",
"57 705 LINE",
"57 0 LINE"
);
}
);
};
layerId = "4121B50C-FD42-45C5-8FBE-41E76D98F91E";
paths = (
{
closed = 1;
nodes = (
"556 0 LINE",
"556 173 LINE",
"272 173 LINE",
"272 705 LINE",
"57 705 LINE",
"57 0 LINE"
);
}
);
width = 582.33333;
}
);
leftKerningGroup = H;
leftMetricsKey = H;
rightKerningGroup = L;
unicode = 004C;
userData = {
anchors = (
);
b = {
};
com.typemytype.robofont.layerData = {
b = {
anchors = (
);
components = (
);
contours = (
{
points = (
{
segmentType = curve;
smooth = 1;
x = 266;
y = 0;
},
{
segmentType = line;
smooth = 1;
x = 1035;
y = 0;
},
{
smooth = 0;
x = 1084;
y = 0;
},
{
smooth = 0;
x = 1108;
y = 34;
},
{
segmentType = curve;
smooth = 1;
x = 1108;
y = 71;
},
{
smooth = 0;
x = 1108;
y = 107;
},
{
smooth = 0;
x = 1084;
y = 141;
},
{
segmentType = curve;
smooth = 1;
x = 1035;
y = 141;
},
{
segmentType = line;
smooth = 0;
x = 356;
y = 141;
},
{
segmentType = line;
smooth = 0;
x = 356;
y = 665;
},
{
segmentType = line;
smooth = 1;
x = 975;
y = 665;
},
{
smooth = 0;
x = 1024;
y = 665;
},
{
smooth = 0;
x = 1049;
y = 698;
},
{
segmentType = curve;
smooth = 1;
x = 1049;
y = 734;
},
{
smooth = 0;
x = 1049;
y = 770;
},
{
smooth = 0;
x = 1026;
y = 803;
},
{
segmentType = curve;
smooth = 1;
x = 975;
y = 803;
},
{
segmentType = line;
smooth = 0;
x = 356;
y = 803;
},
{
segmentType = line;
smooth = 0;
x = 356;
y = 1285;
},
{
segmentType = line;
smooth = 1;
x = 1007;
y = 1285;
},
{
smooth = 0;
x = 1056;
y = 1285;
},
{
smooth = 0;
x = 1080;
y = 1319;
},
{
segmentType = curve;
smooth = 1;
x = 1080;
y = 1356;
},
{
smooth = 0;
x = 1080;
y = 1392;
},
{
smooth = 0;
x = 1056;
y = 1426;
},
{
segmentType = curve;
smooth = 1;
x = 1007;
y = 1426;
},
{
segmentType = line;
smooth = 1;
x = 261;
y = 1426;
},
{
smooth = 0;
x = 213;
y = 1426;
},
{
smooth = 0;
x = 178;
y = 1383;
},
{
segmentType = curve;
smooth = 1;
x = 178;
y = 1340;
},
{
segmentType = line;
smooth = 1;
x = 178;
y = 86;
},
{
smooth = 0;
x = 178;
y = 41;
},
{
smooth = 0;
x = 222;
y = 0;
}
);
}
);
lib = {
};
name = L;
unicodes = (
);
width = 1095;
};
};
components = (
);
contours = (
);
lib = {
};
name = L;
unicodes = (
);
width = 1169;
};
},
{
color = 3;
glyphname = M;
lastChange = "2019-07-02 08:28:09 +0000";
layers = (
{
anchors = (
{
name = bottom;
position = "{422, 0}";
},
{
name = top;
position = "{422, 705}";
}
);
background = {
anchors = (
{
name = bottom;
position = "{422, 0}";
},
{
name = top;
position = "{422, 705}";
}
);
paths = (
{
closed = 1;
nodes = (
"139 0 LINE",
"139 667 LINE",
"110 666 LINE",
"406 110 LINE",
"441 110 LINE",
"731 665 LINE",
"705 667 LINE",
"705 0 LINE",
"746 0 LINE",
"746 705 LINE",
"710 705 LINE",
"412 126 LINE",
"437 126 LINE",
"134 705 LINE",
"98 705 LINE",
"98 0 LINE"
);
}
);
};
layerId = "F1F93986-3ED8-4AAE-84C4-CA3EEECDDFA0";
paths = (
{
closed = 1;
nodes = (
"139 0 LINE",
"139 667 LINE",
"112 666 LINE",
"406 110 LINE",
"441 110 LINE",
"731 665 LINE",
"705 667 LINE",
"705 0 LINE",
"746 0 LINE",
"746 705 LINE",
"710 705 LINE",
"409 127 LINE",
"437 127 LINE",
"134 705 LINE",
"98 705 LINE",
"98 0 LINE"
);
}
);
width = 844.23529;
},
{
anchors = (
{
name = bottom;
position = "{420, 0}";
},
{
name = top;
position = "{420, 705}";
}
);
background = {
anchors = (
{
name = bottom;
position = "{420, 0}";
},
{
name = top;
position = "{420, 705}";
}
);
paths = (
{
closed = 1;
nodes = (
"245 0 LINE",
"245 373 LINE",
"218 360 LINE",
"352 119 LINE",
"488 119 LINE",
"620 361 LINE",
"596 373 LINE",
"596 0 LINE",
"782 0 LINE",
"782 705 LINE",
"617 705 LINE",
"402 301 LINE",
"442 301 LINE",
"227 705 LINE",
"59 705 LINE",
"59 0 LINE"
);
}
);
};
layerId = "4121B50C-FD42-45C5-8FBE-41E76D98F91E";
paths = (
{
closed = 1;
nodes = (
"245 0 LINE",
"245 373 LINE",
"218 360 LINE",
"352 119 LINE",
"488 119 LINE",
"620 361 LINE",
"596 373 LINE",
"596 0 LINE",
"782 0 LINE",
"782 705 LINE",
"617 705 LINE",
"402 301 LINE",
"442 301 LINE",
"227 705 LINE",
"59 705 LINE",
"59 0 LINE"
);
}
);
width = 840.98039;
}
);
leftKerningGroup = H;
leftMetricsKey = "=H+2";
rightKerningGroup = H;
rightMetricsKey = "=H+2";
unicode = 004D;
userData = {
anchors = (
);
b = {
};
com.typemytype.robofont.layerData = {
b = {
anchors = (
);
components = (
);
contours = (
);
lib = {
};
name = M;
unicodes = (
);
width = 1899;
};
};
components = (
);
contours = (
);
lib = {
};
name = M;
unicodes = (
);
width = 1984;
};
},
{
color = 3;
glyphname = N;
lastChange = "2019-07-02 08:52:53 +0000";
layers = (
{
anchors = (
{
name = bottom;
position = "{366, 0}";
},
{
name = top;
position = "{366, 705}";
}
);
background = {
anchors = (
{
name = bottom;
position = "{366, 0}";
},
{
name = top;
position = "{366, 705}";
}
);
paths = (
{
closed = 1;
nodes = (
"135 0 LINE",
"135 662 LINE",
"114 663 LINE",
"602 0 LINE",
"636 0 LINE",
"636 705 LINE",
"597 705 LINE",
"597 43 LINE",
"619 42 LINE",
"131 705 LINE",
"96 705 LINE",
"96 0 LINE"
);
}
);
};
layerId = "F1F93986-3ED8-4AAE-84C4-CA3EEECDDFA0";
paths = (
{
closed = 1;
nodes = (
"135 0 LINE",
"135 662 LINE",
"114 663 LINE",
"602 0 LINE",
"636 0 LINE",
"636 705 LINE",
"597 705 LINE",
"597 43 LINE",
"619 42 LINE",
"131 705 LINE",
"96 705 LINE",
"96 0 LINE"
);
}
);
width = 731.76471;
},
{
anchors = (
{
name = bottom;
position = "{382, 0}";
},
{
name = top;
position = "{381, 705}";
}
);
background = {
anchors = (
{
name = bottom;
position = "{382, 0}";
},
{
name = top;
position = "{381, 705}";
}
);
paths = (
{
closed = 1;
nodes = (
"257 0 LINE",
"257 419 LINE",
"228 388 LINE",
"547 0 LINE",
"706 0 LINE",
"706 705 LINE",
"504 705 LINE",
"504 286 LINE",
"534 316 LINE",
"212 705 LINE",
"57 705 LINE",
"57 0 LINE"
);
}
);
};
layerId = "4121B50C-FD42-45C5-8FBE-41E76D98F91E";
paths = (
{
closed = 1;
nodes = (
"259 0 LINE",
"259 419 LINE",
"228 388 LINE",
"547 0 LINE",
"706 0 LINE",
"706 705 LINE",
"504 705 LINE",
"504 286 LINE",
"534 316 LINE",
"212 705 LINE",
"57 705 LINE",
"57 0 LINE"
);
}
);
width = 762.68627;
}
);
leftKerningGroup = H;
leftMetricsKey = H;
rightKerningGroup = H;
rightMetricsKey = H;
unicode = 004E;
userData = {
anchors = (
);
b = {
};
com.typemytype.robofont.layerData = {
b = {
anchors = (
);
components = (
);
contours = (
);
lib = {
};
name = N;
unicodes = (
);
width = 1499;
};
};
components = (
);
contours = (
);
lib = {
};
name = N;
unicodes = (
);
width = 1557;
};
},
{
color = 3;
glyphname = Eng;
lastChange = "2019-07-02 08:52:53 +0000";
layers = (
{
anchors = (
{
name = bottom;
position = "{366, 0}";
},
{
name = top;
position = "{366, 705}";
}
);
background = {
anchors = (
{
name = bottom;
position = "{366, 0}";
},
{
name = top;
position = "{366, 705}";
}
);
paths = (
{
closed = 1;
nodes = (
"636 705 LINE",
"597 705 LINE",
"597 43 LINE",
"619 42 LINE",
"131 705 LINE",
"96 705 LINE",
"96 0 LINE",
"135 0 LINE",
"135 662 LINE",
"114 663 LINE",
"602 0 LINE",
"597 33 LINE",
"597 -22 LINE SMOOTH",
"597 -101 OFFCURVE",
"554 -152 OFFCURVE",
"479 -152 CURVE SMOOTH",
"465 -152 OFFCURVE",
"451 -151 OFFCURVE",
"439 -148 CURVE",
"439 -185 LINE",
"454 -188 OFFCURVE",
"467 -189 OFFCURVE",
"482 -189 CURVE SMOOTH",
"580 -189 OFFCURVE",
"636 -127 OFFCURVE",
"636 14 CURVE SMOOTH"
);
}
);
};
layerId = "F1F93986-3ED8-4AAE-84C4-CA3EEECDDFA0";
paths = (
{
closed = 1;
nodes = (
"636 705 LINE",
"597 705 LINE",
"597 43 LINE",
"619 42 LINE",
"131 705 LINE",
"96 705 LINE",
"96 0 LINE",
"135 0 LINE",
"135 662 LINE",
"114 663 LINE",
"602 0 LINE",
"597 33 LINE",
"597 -22 LINE SMOOTH",
"597 -101 OFFCURVE",
"554 -152 OFFCURVE",
"479 -152 CURVE SMOOTH",
"465 -152 OFFCURVE",
"451 -151 OFFCURVE",
"439 -148 CURVE",
"439 -185 LINE",
"454 -188 OFFCURVE",
"467 -189 OFFCURVE",
"482 -189 CURVE SMOOTH",
"580 -189 OFFCURVE",
"636 -127 OFFCURVE",
"636 14 CURVE SMOOTH"
);
}
);
width = 731.76471;
},
{
anchors = (
{
name = bottom;
position = "{382, 0}";
},
{
name = top;
position = "{381, 705}";
}
);
background = {
anchors = (
{
name = bottom;
position = "{382, 0}";
},
{
name = top;
position = "{381, 705}";
}
);
paths = (
{
closed = 1;
nodes = (
"706 705 LINE",
"504 705 LINE",
"504 286 LINE",
"534 316 LINE",
"212 705 LINE",
"57 705 LINE",
"57 0 LINE",
"257 0 LINE",
"257 419 LINE",
"228 388 LINE",
"547 0 LINE",
"505 106 LINE",
"505 9 LINE SMOOTH",
"505 -30 OFFCURVE",
"474 -43 OFFCURVE",
"428 -43 CURVE SMOOTH",
"405 -43 OFFCURVE",
"384 -43 OFFCURVE",
"368 -40 CURVE",
"368 -185 LINE",
"389 -188 OFFCURVE",
"412 -189 OFFCURVE",
"431 -189 CURVE SMOOTH",
"644 -189 OFFCURVE",
"706 -76 OFFCURVE",
"706 8 CURVE SMOOTH"
);
}
);
};
layerId = "4121B50C-FD42-45C5-8FBE-41E76D98F91E";
paths = (
{
closed = 1;
nodes = (
"706 705 LINE",
"504 705 LINE",
"504 286 LINE",
"534 316 LINE",
"212 705 LINE",
"57 705 LINE",
"57 0 LINE",
"259 0 LINE",
"259 419 LINE",
"228 388 LINE",
"547 0 LINE",
"505 106 LINE",
"505 19 LINE SMOOTH",
"505 -30 OFFCURVE",
"474 -43 OFFCURVE",
"428 -43 CURVE SMOOTH",
"405 -43 OFFCURVE",
"384 -43 OFFCURVE",
"368 -40 CURVE",
"368 -185 LINE",
"389 -188 OFFCURVE",
"412 -189 OFFCURVE",
"431 -189 CURVE SMOOTH",
"644 -189 OFFCURVE",
"706 -76 OFFCURVE",
"706 18 CURVE SMOOTH"
);
}
);
width = 762.68627;
}
);
leftKerningGroup = H;
leftMetricsKey = N;
widthMetricsKey = N;
rightKerningGroup = H;
unicode = 014A;
userData = {
com.typemytype.robofont.layerData = {
b = {
anchors = (
);
components = (
);
contours = (
);
lib = {
};
name = Eng;
unicodes = (
);
width = 1495;
};
};
};
},
{
color = 3;
glyphname = O;
lastChange = "2019-07-05 12:23:23 +0000";
layers = (
{
anchors = (
{
name = Qtail;
position = "{375, -8}";
},
{
name = bottom;
position = "{375, 0}";
},
{
name = center;
position = "{376, 353}";
},
{
name = ogonek;
position = "{416, 21}";
},
{
name = top;
position = "{375, 705}";
},
{
name = topleft;
position = "{26, 705}";
},
{
name = topright;
position = "{449, 705}";
}
);
background = {
anchors = (
{
name = Qtail;
position = "{375, -8}";
},
{
name = bottom;
position = "{375, 0}";
},
{
name = center;
position = "{376, 353}";
},
{
name = ogonek;
position = "{416, 21}";
},
{
name = top;
position = "{375, 705}";
},
{
name = topleft;
position = "{26, 705}";
},
{
name = topright;
position = "{449, 705}";
}
);
paths = (
{
closed = 1;
nodes = (
"566 -8 OFFCURVE",
"684 130 OFFCURVE",
"684 353 CURVE SMOOTH",
"684 576 OFFCURVE",
"567 713 OFFCURVE",
"375 713 CURVE SMOOTH",
"183 713 OFFCURVE",
"67 576 OFFCURVE",
"67 352 CURVE SMOOTH",
"67 130 OFFCURVE",
"185 -8 OFFCURVE",
"375 -8 CURVE SMOOTH"
);
},
{
closed = 1;
nodes = (
"208 33 OFFCURVE",
"112 151 OFFCURVE",
"112 353 CURVE SMOOTH",
"112 555 OFFCURVE",
"208 672 OFFCURVE",
"375 672 CURVE SMOOTH",
"544 672 OFFCURVE",
"639 556 OFFCURVE",
"639 353 CURVE SMOOTH",
"639 150 OFFCURVE",
"543 33 OFFCURVE",
"375 33 CURVE SMOOTH"
);
}
);
};
layerId = "F1F93986-3ED8-4AAE-84C4-CA3EEECDDFA0";
paths = (
{
closed = 1;
nodes = (
"566 -8 OFFCURVE",
"684 130 OFFCURVE",
"684 353 CURVE SMOOTH",
"684 576 OFFCURVE",
"567 713 OFFCURVE",
"375 713 CURVE SMOOTH",
"183 713 OFFCURVE",
"67 576 OFFCURVE",
"67 352 CURVE SMOOTH",
"67 130 OFFCURVE",
"185 -8 OFFCURVE",
"375 -8 CURVE SMOOTH"
);
},
{
closed = 1;
nodes = (
"208 33 OFFCURVE",
"112 151 OFFCURVE",
"112 353 CURVE SMOOTH",
"112 555 OFFCURVE",
"208 672 OFFCURVE",
"375 672 CURVE SMOOTH",
"544 672 OFFCURVE",
"639 556 OFFCURVE",
"639 353 CURVE SMOOTH",
"639 150 OFFCURVE",
"543 33 OFFCURVE",
"375 33 CURVE SMOOTH"
);
}
);
width = 751;
},
{
anchors = (
{
name = Qtail;
position = "{404, -10}";
},
{
name = bottom;
position = "{404, 0}";
},
{
name = center;
position = "{404, 353}";
},
{
name = ogonek;
position = "{474, 37}";
},
{
name = top;
position = "{403, 705}";
},
{
name = topleft;
position = "{20, 705}";
},
{
name = topright;
position = "{467, 705}";
}
);
background = {
anchors = (
{
name = Qtail;
position = "{404, -10}";
},
{
name = bottom;
position = "{404, 0}";
},
{
name = center;
position = "{404, 353}";
},
{
name = ogonek;
position = "{474, 37}";
},
{
name = top;
position = "{403, 705}";
},
{
name = topleft;
position = "{20, 705}";
},
{
name = topright;
position = "{467, 705}";
}
);
paths = (
{
closed = 1;
nodes = (
"627 -10 OFFCURVE",
"765 133 OFFCURVE",
"765 353 CURVE SMOOTH",
"765 573 OFFCURVE",
"627 715 OFFCURVE",
"404 715 CURVE SMOOTH",
"181 715 OFFCURVE",
"41 573 OFFCURVE",
"41 354 CURVE SMOOTH",
"41 133 OFFCURVE",
"180 -10 OFFCURVE",
"404 -10 CURVE SMOOTH"
);
},
{
closed = 1;
nodes = (
"314 154 OFFCURVE",
"255 216 OFFCURVE",
"255 353 CURVE SMOOTH",
"255 490 OFFCURVE",
"314 551 OFFCURVE",
"404 551 CURVE SMOOTH",
"493 551 OFFCURVE",
"553 488 OFFCURVE",
"553 353 CURVE SMOOTH",
"553 218 OFFCURVE",
"494 154 OFFCURVE",
"404 154 CURVE SMOOTH"
);
}
);
};
layerId = "4121B50C-FD42-45C5-8FBE-41E76D98F91E";
paths = (
{
closed = 1;
nodes = (
"627 -10 OFFCURVE",
"765 133 OFFCURVE",
"765 353 CURVE SMOOTH",
"765 573 OFFCURVE",
"627 715 OFFCURVE",
"404 715 CURVE SMOOTH",
"181 715 OFFCURVE",
"41 573 OFFCURVE",
"41 354 CURVE SMOOTH",
"41 133 OFFCURVE",
"180 -10 OFFCURVE",
"404 -10 CURVE SMOOTH"
);
},
{
closed = 1;
nodes = (
"314 154 OFFCURVE",
"255 216 OFFCURVE",
"255 353 CURVE SMOOTH",
"255 490 OFFCURVE",
"314 551 OFFCURVE",
"404 551 CURVE SMOOTH",
"493 551 OFFCURVE",
"553 488 OFFCURVE",
"553 353 CURVE SMOOTH",
"553 218 OFFCURVE",
"494 154 OFFCURVE",
"404 154 CURVE SMOOTH"
);
}
);
width = 806;
}
);
leftKerningGroup = O;
rightKerningGroup = O;
unicode = 004F;
userData = {
anchors = (
);
b = {
};
com.typemytype.robofont.guides = (
);
com.typemytype.robofont.layerData = {
b = {
anchors = (
);
components = (
);
contours = (
);
lib = {
};
name = O;
unicodes = (
);
width = 1597;
};
};
components = (
);
contours = (
);
lib = {
};
name = O;
unicodes = (
);
width = 1604;
};
},
{
color = 3;
glyphname = OE;
lastChange = "2019-07-02 08:52:53 +0000";
layers = (
{
anchors = (
{
name = bottom;
position = "{587, 0}";
},
{
name = top;
position = "{587, 705}";
}
);
background = {
anchors = (
{
name = bottom;
position = "{532, 0}";
},
{
name = top;
position = "{531, 705}";
}
);
paths = (
{
closed = 1;
nodes = (
"990 705 LINE",
"411 705 LINE SMOOTH",
"189 705 OFFCURVE",
"67 580 OFFCURVE",
"67 353 CURVE SMOOTH",
"67 127 OFFCURVE",
"190 0 OFFCURVE",
"411 0 CURVE SMOOTH",
"990 0 LINE",
"990 39 LINE",
"607 39 LINE",
"607 338 LINE",
"970 338 LINE",
"970 377 LINE",
"607 377 LINE",
"607 666 LINE",
"990 666 LINE"
);
},
{
closed = 1;
nodes = (
"413 39 LINE SMOOTH",
"213 39 OFFCURVE",
"112 145 OFFCURVE",
"112 353 CURVE SMOOTH",
"112 561 OFFCURVE",
"212 666 OFFCURVE",
"413 666 CURVE SMOOTH",
"566 666 LINE",
"566 39 LINE"
);
}
);
};
layerId = "F1F93986-3ED8-4AAE-84C4-CA3EEECDDFA0";
paths = (
{
closed = 1;
nodes = (
"990 705 LINE",
"425 705 LINE SMOOTH",
"189 705 OFFCURVE",
"67 580 OFFCURVE",
"67 353 CURVE SMOOTH",
"67 127 OFFCURVE",
"190 0 OFFCURVE",
"425 0 CURVE SMOOTH",
"990 0 LINE",
"990 39 LINE",
"607 39 LINE",
"607 338 LINE",
"970 338 LINE",
"970 377 LINE",
"607 377 LINE",
"607 666 LINE",
"990 666 LINE"
);
},
{
closed = 1;
nodes = (
"423 39 LINE SMOOTH",
"213 39 OFFCURVE",
"112 145 OFFCURVE",
"112 353 CURVE SMOOTH",
"112 562 OFFCURVE",
"212 666 OFFCURVE",
"423 666 CURVE SMOOTH",
"566 666 LINE",
"566 39 LINE"
);
}
);
width = 1046.23529;
},
{
anchors = (
{
name = bottom;
position = "{601, 0}";
},
{
name = top;
position = "{601, 705}";
}
);
background = {
anchors = (
{
name = bottom;
position = "{527, 0}";
},
{
name = top;
position = "{528, 705}";
}
);
paths = (
{
closed = 1;
nodes = (
"1016 705 LINE",
"424 705 LINE SMOOTH",
"186 705 OFFCURVE",
"41 571 OFFCURVE",
"41 353 CURVE SMOOTH",
"41 133 OFFCURVE",
"184 0 OFFCURVE",
"424 0 CURVE SMOOTH",
"1015 0 LINE",
"1015 164 LINE",
"706 164 LINE",
"706 277 LINE",
"995 277 LINE",
"995 441 LINE",
"706 441 LINE",
"706 541 LINE",
"1016 541 LINE"
);
},
{
closed = 1;
nodes = (
"439 164 LINE SMOOTH",
"319 164 OFFCURVE",
"255 225 OFFCURVE",
"255 353 CURVE SMOOTH",
"255 480 OFFCURVE",
"320 541 OFFCURVE",
"439 541 CURVE SMOOTH",
"496 541 LINE",
"496 164 LINE"
);
}
);
};
layerId = "4121B50C-FD42-45C5-8FBE-41E76D98F91E";
paths = (
{
closed = 1;
nodes = (
"1016 705 LINE",
"424 705 LINE SMOOTH",
"186 705 OFFCURVE",
"41 571 OFFCURVE",
"41 353 CURVE SMOOTH",
"41 133 OFFCURVE",
"184 0 OFFCURVE",
"424 0 CURVE SMOOTH",
"1015 0 LINE",
"1015 164 LINE",
"706 164 LINE",
"706 277 LINE",
"995 277 LINE",
"995 441 LINE",
"706 441 LINE",
"706 541 LINE",
"1016 541 LINE"
);
},
{
closed = 1;
nodes = (
"439 164 LINE SMOOTH",
"319 164 OFFCURVE",
"255 225 OFFCURVE",
"255 353 CURVE SMOOTH",
"255 480 OFFCURVE",
"320 541 OFFCURVE",
"439 541 CURVE SMOOTH",
"496 541 LINE",
"496 164 LINE"
);
}
);
width = 1042.98039;
}
);
leftKerningGroup = O;
leftMetricsKey = O;
rightKerningGroup = E;
rightMetricsKey = E;
unicode = 0152;
},
{
color = 3;
glyphname = P;
lastChange = "2019-07-02 08:52:53 +0000";
layers = (
{
anchors = (
{
name = bottom;
position = "{316, 0}";
},
{
name = top;
position = "{316, 705}";
}
);
background = {
anchors = (
{
name = bottom;
position = "{316, 0}";
},
{
name = top;
position = "{316, 705}";
}
);
paths = (
{
closed = 1;
nodes = (
"96 705 LINE",
"96 0 LINE",
"137 0 LINE",
"137 303 LINE",
"350 303 LINE SMOOTH",
"494 303 OFFCURVE",
"579 376 OFFCURVE",
"579 505 CURVE SMOOTH",
"579 634 OFFCURVE",
"495 705 OFFCURVE",
"350 705 CURVE SMOOTH"
);
},
{
closed = 1;
nodes = (
"137 343 LINE",
"137 666 LINE",
"349 666 LINE SMOOTH",
"473 666 OFFCURVE",
"535 611 OFFCURVE",
"535 505 CURVE SMOOTH",
"535 399 OFFCURVE",
"473 343 OFFCURVE",
"349 343 CURVE SMOOTH"
);
}
);
};
layerId = "F1F93986-3ED8-4AAE-84C4-CA3EEECDDFA0";
paths = (
{
closed = 1;
nodes = (
"96 705 LINE",
"96 0 LINE",
"137 0 LINE",
"137 303 LINE",
"350 303 LINE SMOOTH",
"497 303 OFFCURVE",
"579 376 OFFCURVE",
"579 505 CURVE SMOOTH",
"579 634 OFFCURVE",
"498 705 OFFCURVE",
"350 705 CURVE SMOOTH"
);
},
{
closed = 1;
nodes = (
"137 343 LINE",
"137 666 LINE",
"349 666 LINE SMOOTH",
"473 666 OFFCURVE",
"535 611 OFFCURVE",
"535 505 CURVE SMOOTH",
"535 399 OFFCURVE",
"473 343 OFFCURVE",
"349 343 CURVE SMOOTH"
);
}
);
width = 632;
},
{
anchors = (
{
name = bottom;
position = "{348, 0}";
},
{
name = top;
position = "{347, 705}";
}
);
background = {
anchors = (
{
name = bottom;
position = "{348, 0}";
},
{
name = top;
position = "{347, 705}";
}
);
paths = (
{
closed = 1;
nodes = (
"57 705 LINE",
"57 0 LINE",
"272 0 LINE",
"272 245 LINE",
"417 245 LINE SMOOTH",
"574 245 OFFCURVE",
"668 332 OFFCURVE",
"668 474 CURVE SMOOTH",
"668 618 OFFCURVE",
"575 705 OFFCURVE",
"417 705 CURVE SMOOTH"
);
},
{
closed = 1;
nodes = (
"272 404 LINE",
"272 544 LINE",
"387 544 LINE SMOOTH",
"442 544 OFFCURVE",
"468 522 OFFCURVE",
"468 473 CURVE SMOOTH",
"468 425 OFFCURVE",
"441 404 OFFCURVE",
"387 404 CURVE SMOOTH"
);
}
);
};
layerId = "4121B50C-FD42-45C5-8FBE-41E76D98F91E";
paths = (
{
closed = 1;
nodes = (
"57 705 LINE",
"57 0 LINE",
"272 0 LINE",
"272 245 LINE",
"417 245 LINE SMOOTH",
"574 245 OFFCURVE",
"668 332 OFFCURVE",
"668 474 CURVE SMOOTH",
"668 618 OFFCURVE",
"575 705 OFFCURVE",
"417 705 CURVE SMOOTH"
);
},
{
closed = 1;
nodes = (
"272 404 LINE",
"272 544 LINE",
"387 544 LINE SMOOTH",
"442 544 OFFCURVE",
"468 522 OFFCURVE",
"468 473 CURVE SMOOTH",
"468 425 OFFCURVE",
"441 404 OFFCURVE",
"387 404 CURVE SMOOTH"
);
}
);
width = 687.33333;
}
);
leftKerningGroup = H;
leftMetricsKey = H;
rightKerningGroup = P;
unicode = 0050;
userData = {
anchors = (
);
b = {
};
com.typemytype.robofont.layerData = {
b = {
anchors = (
);
components = (
);
contours = (
{
points = (
{
segmentType = curve;
smooth = 1;
x = 266;
y = 0;
},
{
segmentType = line;
smooth = 1;
x = 1035;
y = 0;
},
{
smooth = 0;
x = 1084;
y = 0;
},
{
smooth = 0;
x = 1108;
y = 34;
},
{
segmentType = curve;
smooth = 1;
x = 1108;
y = 71;
},
{
smooth = 0;
x = 1108;
y = 107;
},
{
smooth = 0;
x = 1084;
y = 141;
},
{
segmentType = curve;
smooth = 1;
x = 1035;
y = 141;
},
{
segmentType = line;
smooth = 0;
x = 356;
y = 141;
},
{
segmentType = line;
smooth = 0;
x = 356;
y = 665;
},
{
segmentType = line;
smooth = 1;
x = 975;
y = 665;
},
{
smooth = 0;
x = 1024;
y = 665;
},
{
smooth = 0;
x = 1049;
y = 698;
},
{
segmentType = curve;
smooth = 1;
x = 1049;
y = 734;
},
{
smooth = 0;
x = 1049;
y = 770;
},
{
smooth = 0;
x = 1026;
y = 803;
},
{
segmentType = curve;
smooth = 1;
x = 975;
y = 803;
},
{
segmentType = line;
smooth = 0;
x = 356;
y = 803;
},
{
segmentType = line;
smooth = 0;
x = 356;
y = 1285;
},
{
segmentType = line;
smooth = 1;
x = 1007;
y = 1285;
},
{
smooth = 0;
x = 1056;
y = 1285;
},
{
smooth = 0;
x = 1080;
y = 1319;
},
{
segmentType = curve;
smooth = 1;
x = 1080;
y = 1356;
},
{
smooth = 0;
x = 1080;
y = 1392;
},
{
smooth = 0;
x = 1056;
y = 1426;
},
{
segmentType = curve;
smooth = 1;
x = 1007;
y = 1426;
},
{
segmentType = line;
smooth = 1;
x = 261;
y = 1426;
},
{
smooth = 0;
x = 213;
y = 1426;
},
{
smooth = 0;
x = 178;
y = 1383;
},
{
segmentType = curve;
smooth = 1;
x = 178;
y = 1340;
},
{
segmentType = line;
smooth = 1;
x = 178;
y = 86;
},
{
smooth = 0;
x = 178;
y = 41;
},
{
smooth = 0;
x = 222;
y = 0;
}
);
}
);
lib = {
};
name = P;
unicodes = (
);
width = 1201;
};
};
components = (
);
contours = (
);
lib = {
};
name = P;
unicodes = (
);
width = 1319;
};
},
{
color = 3;
glyphname = Thorn;
lastChange = "2019-07-02 08:52:53 +0000";
layers = (
{
anchors = (
{
name = bottom;
position = "{316, 0}";
},
{
name = top;
position = "{316, 705}";
}
);
background = {
anchors = (
{
name = bottom;
position = "{316, 0}";
},
{
name = top;
position = "{316, 705}";
}
);
paths = (
{
closed = 1;
nodes = (
"138 543 LINE",
"138 705 LINE",
"96 705 LINE",
"96 0 LINE",
"138 0 LINE",
"138 174 LINE",
"361 174 LINE SMOOTH",
"499 174 OFFCURVE",
"579 242 OFFCURVE",
"579 360 CURVE SMOOTH",
"579 477 OFFCURVE",
"501 543 OFFCURVE",
"361 543 CURVE SMOOTH"
);
},
{
closed = 1;
nodes = (
"138 214 LINE",
"138 504 LINE",
"361 504 LINE SMOOTH",
"479 504 OFFCURVE",
"535 457 OFFCURVE",
"535 360 CURVE SMOOTH",
"535 262 OFFCURVE",
"478 214 OFFCURVE",
"361 214 CURVE SMOOTH"
);
}
);
};
layerId = "F1F93986-3ED8-4AAE-84C4-CA3EEECDDFA0";
paths = (
{
closed = 1;
nodes = (
"138 543 LINE",
"138 705 LINE",
"96 705 LINE",
"96 0 LINE",
"138 0 LINE",
"138 174 LINE",
"361 174 LINE SMOOTH",
"499 174 OFFCURVE",
"579 242 OFFCURVE",
"579 360 CURVE SMOOTH",
"579 477 OFFCURVE",
"501 543 OFFCURVE",
"361 543 CURVE SMOOTH"
);
},
{
closed = 1;
nodes = (
"138 214 LINE",
"138 504 LINE",
"361 504 LINE SMOOTH",
"479 504 OFFCURVE",
"535 457 OFFCURVE",
"535 360 CURVE SMOOTH",
"535 262 OFFCURVE",
"478 214 OFFCURVE",
"361 214 CURVE SMOOTH"
);
}
);
width = 631.88235;
},
{
anchors = (
{
name = bottom;
position = "{348, 0}";
},
{
name = top;
position = "{347, 705}";
}
);
background = {
anchors = (
{
name = bottom;
position = "{348, 0}";
},
{
name = top;
position = "{347, 705}";
}
);
paths = (
{
closed = 1;
nodes = (
"268 574 LINE",
"268 705 LINE",
"57 705 LINE",
"57 0 LINE",
"268 0 LINE",
"268 142 LINE",
"413 142 LINE SMOOTH",
"570 142 OFFCURVE",
"668 224 OFFCURVE",
"668 357 CURVE SMOOTH",
"668 492 OFFCURVE",
"572 574 OFFCURVE",
"413 574 CURVE SMOOTH"
);
},
{
closed = 1;
nodes = (
"268 303 LINE",
"268 412 LINE",
"374 412 LINE SMOOTH",
"440 412 OFFCURVE",
"468 397 OFFCURVE",
"468 357 CURVE SMOOTH",
"468 317 OFFCURVE",
"440 303 OFFCURVE",
"374 303 CURVE SMOOTH"
);
}
);
};
layerId = "4121B50C-FD42-45C5-8FBE-41E76D98F91E";
paths = (
{
closed = 1;
nodes = (
"268 574 LINE",
"268 705 LINE",
"57 705 LINE",
"57 0 LINE",
"268 0 LINE",
"268 142 LINE",
"413 142 LINE SMOOTH",
"570 142 OFFCURVE",
"668 224 OFFCURVE",
"668 357 CURVE SMOOTH",
"668 492 OFFCURVE",
"572 574 OFFCURVE",
"413 574 CURVE SMOOTH"
);
},
{
closed = 1;
nodes = (
"268 303 LINE",
"268 412 LINE",
"374 412 LINE SMOOTH",
"440 412 OFFCURVE",
"468 397 OFFCURVE",
"468 357 CURVE SMOOTH",
"468 317 OFFCURVE",
"440 303 OFFCURVE",
"374 303 CURVE SMOOTH"
);
}
);
width = 688.84314;
}
);
leftKerningGroup = H;
leftMetricsKey = H;
rightKerningGroup = THORN;
unicode = 00DE;
},
{
color = 3;
glyphname = R;
lastChange = "2019-07-02 08:52:53 +0000";
layers = (
{
anchors = (
{
name = bottom;
position = "{334, 0}";
},
{
name = top;
position = "{334, 705}";
}
);
background = {
anchors = (
{
name = bottom;
position = "{334, 0}";
},
{
name = top;
position = "{334, 705}";
}
);
paths = (
{
closed = 1;
nodes = (
"138 666 LINE",
"369 666 LINE SMOOTH",
"493 666 OFFCURVE",
"552 615 OFFCURVE",
"552 511 CURVE SMOOTH",
"552 405 OFFCURVE",
"490 352 OFFCURVE",
"369 352 CURVE SMOOTH",
"138 352 LINE"
);
},
{
closed = 1;
nodes = (
"300 312 LINE SMOOTH",
"378 312 OFFCURVE",
"419 295 OFFCURVE",
"455 226 CURVE SMOOTH",
"574 0 LINE",
"620 0 LINE",
"492 242 LINE SMOOTH",
"460 302 OFFCURVE",
"423 327 OFFCURVE",
"361 327 CURVE",
"367 318 LINE",
"511 318 OFFCURVE",
"596 387 OFFCURVE",
"596 510 CURVE SMOOTH",
"596 639 OFFCURVE",
"512 705 OFFCURVE",
"368 705 CURVE SMOOTH",
"96 705 LINE",
"96 0 LINE",
"138 0 LINE",
"138 312 LINE"
);
}
);
};
layerId = "F1F93986-3ED8-4AAE-84C4-CA3EEECDDFA0";
paths = (
{
closed = 1;
nodes = (
"138 666 LINE",
"369 666 LINE SMOOTH",
"493 666 OFFCURVE",
"552 615 OFFCURVE",
"552 511 CURVE SMOOTH",
"552 405 OFFCURVE",
"490 351 OFFCURVE",
"369 351 CURVE SMOOTH",
"138 351 LINE"
);
},
{
closed = 1;
nodes = (
"300 312 LINE SMOOTH",
"378 312 OFFCURVE",
"419 295 OFFCURVE",
"455 226 CURVE SMOOTH",
"574 0 LINE",
"620 0 LINE",
"492 242 LINE SMOOTH",
"460 302 OFFCURVE",
"423 327 OFFCURVE",
"361 327 CURVE",
"367 318 LINE",
"511 318 OFFCURVE",
"596 387 OFFCURVE",
"596 510 CURVE SMOOTH",
"596 639 OFFCURVE",
"512 705 OFFCURVE",
"368 705 CURVE SMOOTH",
"96 705 LINE",
"96 0 LINE",
"138 0 LINE",
"138 312 LINE"
);
}
);
width = 677.41176;
},
{
anchors = (
{
name = bottom;
position = "{363, 0}";
},
{
name = top;
position = "{362, 705}";
}
);
background = {
anchors = (
{
name = bottom;
position = "{363, 0}";
},
{
name = top;
position = "{362, 705}";
}
);
paths = (
{
closed = 1;
nodes = (
"266 544 LINE",
"372 544 LINE SMOOTH",
"444 544 OFFCURVE",
"471 526 OFFCURVE",
"471 477 CURVE SMOOTH",
"471 431 OFFCURVE",
"445 413 OFFCURVE",
"372 413 CURVE SMOOTH",
"266 413 LINE"
);
},
{
closed = 1;
nodes = (
"302 254 LINE SMOOTH",
"323 254 OFFCURVE",
"345 243 OFFCURVE",
"356 224 CURVE SMOOTH",
"479 0 LINE",
"715 0 LINE",
"607 191 LINE SMOOTH",
"577 245 OFFCURVE",
"534 273 OFFCURVE",
"476 273 CURVE",
"412 260 LINE",
"575 260 OFFCURVE",
"670 349 OFFCURVE",
"670 484 CURVE SMOOTH",
"670 626 OFFCURVE",
"585 705 OFFCURVE",
"407 705 CURVE SMOOTH",
"57 705 LINE",
"57 0 LINE",
"266 0 LINE",
"266 254 LINE"
);
}
);
};
layerId = "4121B50C-FD42-45C5-8FBE-41E76D98F91E";
paths = (
{
closed = 1;
nodes = (
"266 544 LINE",
"372 544 LINE SMOOTH",
"444 544 OFFCURVE",
"471 526 OFFCURVE",
"471 477 CURVE SMOOTH",
"471 431 OFFCURVE",
"445 413 OFFCURVE",
"372 413 CURVE SMOOTH",
"266 413 LINE"
);
},
{
closed = 1;
nodes = (
"302 254 LINE SMOOTH",
"323 254 OFFCURVE",
"345 243 OFFCURVE",
"356 224 CURVE SMOOTH",
"479 0 LINE",
"715 0 LINE",
"607 191 LINE SMOOTH",
"577 245 OFFCURVE",
"534 273 OFFCURVE",
"476 273 CURVE",
"412 260 LINE",
"575 260 OFFCURVE",
"670 349 OFFCURVE",
"670 484 CURVE SMOOTH",
"670 626 OFFCURVE",
"585 705 OFFCURVE",
"407 705 CURVE SMOOTH",
"57 705 LINE",
"57 0 LINE",
"266 0 LINE",
"266 254 LINE"
);
}
);
width = 713.21569;
}
);
leftKerningGroup = H;
leftMetricsKey = H;
rightKerningGroup = R;
unicode = 0052;
userData = {
anchors = (
);
b = {
};
com.typemytype.robofont.guides = (
);
com.typemytype.robofont.layerData = {
b = {
anchors = (
);
components = (
);
contours = (
{
points = (
{
segmentType = curve;
smooth = 1;
x = 267;
y = 0;
},
{
smooth = 0;
x = 311;
y = 0;
},
{
smooth = 0;
x = 356;
y = 27;
},
{
segmentType = curve;
smooth = 1;
x = 356;
y = 84;
},
{
segmentType = line;
smooth = 0;
x = 356;
y = 628;
},
{
segmentType = line;
smooth = 1;
x = 669;
y = 628;
},
{
smooth = 0;
x = 962;
y = 628;
},
{
smooth = 0;
x = 1182;
y = 722;
},
{
segmentType = curve;
smooth = 1;
x = 1182;
y = 1026;
},
{
smooth = 0;
x = 1182;
y = 1324;
},
{
smooth = 0;
x = 993;
y = 1426;
},
{
segmentType = curve;
smooth = 1;
x = 684;
y = 1426;
},
{
segmentType = line;
smooth = 1;
x = 268;
y = 1426;
},
{
smooth = 0;
x = 217;
y = 1426;
},
{
smooth = 0;
x = 178;
y = 1387;
},
{
segmentType = curve;
smooth = 1;
x = 178;
y = 1339;
},
{
segmentType = line;
smooth = 1;
x = 178;
y = 84;
},
{
smooth = 0;
x = 178;
y = 28;
},
{
smooth = 0;
x = 222;
y = 0;
}
);
},
{
points = (
{
segmentType = line;
smooth = 0;
x = 356;
y = 764;
},
{
segmentType = line;
smooth = 0;
x = 356;
y = 1285;
},
{
segmentType = line;
smooth = 1;
x = 684;
y = 1285;
},
{
smooth = 0;
x = 914;
y = 1285;
},
{
smooth = 0;
x = 1008;
y = 1210;
},
{
segmentType = curve;
smooth = 1;
x = 1008;
y = 1026;
},
{
smooth = 0;
x = 1008;
y = 838;
},
{
smooth = 0;
x = 901;
y = 764;
},
{
segmentType = curve;
smooth = 1;
x = 670;
y = 764;
}
);
}
);
lib = {
};
name = R;
unicodes = (
);
width = 1363;
};
};
components = (
);
contours = (
);
lib = {
};
name = R;
unicodes = (
);
width = 1408;
};
},
{
color = 3;
glyphname = S;
lastChange = "2019-07-02 08:52:53 +0000";
layers = (
{
anchors = (
{
name = bottom;
position = "{305, 0}";
},
{
name = top;
position = "{299, 705}";
}
);
background = {
anchors = (
{
name = bottom;
position = "{305, 0}";
},
{
name = top;
position = "{299, 705}";
}
);
paths = (
{
closed = 1;
nodes = (
"453 -8 OFFCURVE",
"549 68 OFFCURVE",
"549 182 CURVE SMOOTH",
"549 271 OFFCURVE",
"501 323 OFFCURVE",
"342 357 CURVE SMOOTH",
"270 373 LINE SMOOTH",
"153 399 OFFCURVE",
"106 442 OFFCURVE",
"106 516 CURVE SMOOTH",
"106 614 OFFCURVE",
"180 672 OFFCURVE",
"307 672 CURVE SMOOTH",
"391 672 OFFCURVE",
"462 645 OFFCURVE",
"522 583 CURVE",
"546 619 LINE",
"488 682 OFFCURVE",
"402 713 OFFCURVE",
"307 713 CURVE SMOOTH",
"158 713 OFFCURVE",
"63 637 OFFCURVE",
"63 518 CURVE SMOOTH",
"63 427 OFFCURVE",
"112 366 OFFCURVE",
"258 333 CURVE SMOOTH",
"330 317 LINE SMOOTH",
"462 288 OFFCURVE",
"507 253 OFFCURVE",
"507 185 CURVE SMOOTH",
"507 88 OFFCURVE",
"434 33 OFFCURVE",
"308 33 CURVE SMOOTH",
"205 33 OFFCURVE",
"142 57 OFFCURVE",
"72 122 CURVE",
"49 87 LINE",
"116 21 OFFCURVE",
"196 -8 OFFCURVE",
"308 -8 CURVE SMOOTH"
);
}
);
};
layerId = "F1F93986-3ED8-4AAE-84C4-CA3EEECDDFA0";
paths = (
{
closed = 1;
nodes = (
"453 -8 OFFCURVE",
"549 68 OFFCURVE",
"549 182 CURVE SMOOTH",
"549 271 OFFCURVE",
"499 322 OFFCURVE",
"360 353 CURVE SMOOTH",
"251 377 LINE SMOOTH",
"149 399 OFFCURVE",
"106 442 OFFCURVE",
"106 516 CURVE SMOOTH",
"106 614 OFFCURVE",
"180 672 OFFCURVE",
"307 672 CURVE SMOOTH",
"391 672 OFFCURVE",
"464 646 OFFCURVE",
"522 583 CURVE",
"546 619 LINE",
"488 682 OFFCURVE",
"402 713 OFFCURVE",
"307 713 CURVE SMOOTH",
"158 713 OFFCURVE",
"63 637 OFFCURVE",
"63 518 CURVE SMOOTH",
"63 427 OFFCURVE",
"112 365 OFFCURVE",
"238 337 CURVE SMOOTH",
"348 313 LINE SMOOTH",
"460 289 OFFCURVE",
"507 253 OFFCURVE",
"507 181 CURVE SMOOTH",
"507 88 OFFCURVE",
"434 33 OFFCURVE",
"308 33 CURVE SMOOTH",
"205 33 OFFCURVE",
"143 57 OFFCURVE",
"72 122 CURVE",
"49 87 LINE",
"111 26 OFFCURVE",
"196 -8 OFFCURVE",
"308 -8 CURVE SMOOTH"
);
}
);
width = 598.23529;
},
{
anchors = (
{
name = bottom;
position = "{334, 0}";
},
{
name = top;
position = "{344, 705}";
}
);
background = {
anchors = (
{
name = bottom;
position = "{334, 0}";
},
{
name = top;
position = "{344, 705}";
}
);
paths = (
{
closed = 1;
nodes = (
"527 -10 OFFCURVE",
"641 77 OFFCURVE",
"641 218 CURVE SMOOTH",
"641 325 OFFCURVE",
"574 384 OFFCURVE",
"435 422 CURVE SMOOTH",
"382 437 LINE SMOOTH",
"281 464 OFFCURVE",
"259 468 OFFCURVE",
"259 498 CURVE SMOOTH",
"259 529 OFFCURVE",
"297 551 OFFCURVE",
"352 551 CURVE SMOOTH",
"417 551 OFFCURVE",
"485 530 OFFCURVE",
"551 490 CURVE",
"614 641 LINE",
"561 684 OFFCURVE",
"453 715 OFFCURVE",
"351 715 CURVE SMOOTH",
"170 715 OFFCURVE",
"48 612 OFFCURVE",
"48 480 CURVE SMOOTH",
"48 369 OFFCURVE",
"109 315 OFFCURVE",
"263 275 CURVE SMOOTH",
"315 260 LINE SMOOTH",
"413 234 OFFCURVE",
"430 230 OFFCURVE",
"430 197 CURVE SMOOTH",
"430 171 OFFCURVE",
"395 154 OFFCURVE",
"324 154 CURVE SMOOTH",
"252 154 OFFCURVE",
"168 176 OFFCURVE",
"100 215 CURVE",
"36 64 LINE",
"100 21 OFFCURVE",
"219 -10 OFFCURVE",
"321 -10 CURVE SMOOTH"
);
}
);
};
layerId = "4121B50C-FD42-45C5-8FBE-41E76D98F91E";
paths = (
{
closed = 1;
nodes = (
"523 -10 OFFCURVE",
"641 74 OFFCURVE",
"641 218 CURVE SMOOTH",
"641 321 OFFCURVE",
"579 383 OFFCURVE",
"435 422 CURVE SMOOTH",
"346 446 LINE SMOOTH",
"270 467 OFFCURVE",
"259 475 OFFCURVE",
"259 498 CURVE SMOOTH",
"259 525 OFFCURVE",
"289 551 OFFCURVE",
"352 551 CURVE SMOOTH",
"417 551 OFFCURVE",
"485 530 OFFCURVE",
"551 490 CURVE",
"614 641 LINE",
"559 684 OFFCURVE",
"451 715 OFFCURVE",
"351 715 CURVE SMOOTH",
"175 715 OFFCURVE",
"48 616 OFFCURVE",
"48 480 CURVE SMOOTH",
"48 371 OFFCURVE",
"106 316 OFFCURVE",
"263 275 CURVE SMOOTH",
"352 251 LINE SMOOTH",
"421 232 OFFCURVE",
"430 220 OFFCURVE",
"430 201 CURVE SMOOTH",
"430 170 OFFCURVE",
"401 154 OFFCURVE",
"324 154 CURVE SMOOTH",
"251 154 OFFCURVE",
"168 177 OFFCURVE",
"100 215 CURVE",
"36 64 LINE",
"100 21 OFFCURVE",
"219 -10 OFFCURVE",
"321 -10 CURVE SMOOTH"
);
}
);
width = 677.98039;
}
);
leftKerningGroup = S;
rightKerningGroup = S;
unicode = 0053;
userData = {
anchors = (
);
b = {
};
com.typemytype.robofont.layerData = {
b = {
anchors = (
);
components = (
);
contours = (
);
lib = {
};
name = S;
unicodes = (
);
width = 1274;
};
};
components = (
);
contours = (
);
lib = {
};
name = S;
unicodes = (
);
width = 1317;
};
},
{
color = 3;
glyphname = Germandbls;
lastChange = "2019-07-02 08:52:53 +0000";
layers = (
{
background = {
paths = (
{
closed = 1;
nodes = (
"138 0 LINE",
"138 456 LINE SMOOTH",
"138 604 OFFCURVE",
"202 671 OFFCURVE",
"344 671 CURVE SMOOTH",
"452 671 OFFCURVE",
"517 618 OFFCURVE",
"517 529 CURVE SMOOTH",
"517 432 OFFCURVE",
"451 378 OFFCURVE",
"339 378 CURVE SMOOTH",
"235 378 LINE",
"235 339 LINE",
"376 339 LINE SMOOTH",
"496 339 OFFCURVE",
"562 288 OFFCURVE",
"562 192 CURVE SMOOTH",
"562 96 OFFCURVE",
"497 37 OFFCURVE",
"389 35 CURVE SMOOTH",
"335 34 OFFCURVE",
"288 52 OFFCURVE",
"232 98 CURVE",
"211 60 LINE",
"259 17 OFFCURVE",
"326 -7 OFFCURVE",
"392 -7 CURVE SMOOTH",
"521 -7 OFFCURVE",
"606 72 OFFCURVE",
"606 191 CURVE SMOOTH",
"606 290 OFFCURVE",
"547 353 OFFCURVE",
"440 370 CURVE",
"430 359 LINE",
"513 378 OFFCURVE",
"560 440 OFFCURVE",
"560 529 CURVE SMOOTH",
"560 642 OFFCURVE",
"477 712 OFFCURVE",
"343 712 CURVE SMOOTH",
"182 712 OFFCURVE",
"96 631 OFFCURVE",
"96 464 CURVE SMOOTH",
"96 0 LINE"
);
}
);
};
layerId = "F1F93986-3ED8-4AAE-84C4-CA3EEECDDFA0";
paths = (
{
closed = 1;
nodes = (
"138 0 LINE",
"138 459 LINE SMOOTH",
"138 604 OFFCURVE",
"202 671 OFFCURVE",
"344 671 CURVE SMOOTH",
"452 671 OFFCURVE",
"517 618 OFFCURVE",
"517 529 CURVE SMOOTH",
"517 432 OFFCURVE",
"451 378 OFFCURVE",
"349 378 CURVE SMOOTH",
"239 378 LINE",
"239 339 LINE",
"376 339 LINE SMOOTH",
"496 339 OFFCURVE",
"562 288 OFFCURVE",
"562 192 CURVE SMOOTH",
"562 96 OFFCURVE",
"497 35 OFFCURVE",
"397 33 CURVE SMOOTH",
"337 32 OFFCURVE",
"284 50 OFFCURVE",
"232 98 CURVE",
"210 62 LINE",
"256 16 OFFCURVE",
"326 -7 OFFCURVE",
"392 -7 CURVE SMOOTH",
"521 -7 OFFCURVE",
"606 72 OFFCURVE",
"606 191 CURVE SMOOTH",
"606 290 OFFCURVE",
"547 353 OFFCURVE",
"438 371 CURVE",
"428 360 LINE",
"506 377 OFFCURVE",
"560 440 OFFCURVE",
"560 529 CURVE SMOOTH",
"560 642 OFFCURVE",
"477 712 OFFCURVE",
"344 712 CURVE SMOOTH",
"182 712 OFFCURVE",
"96 627 OFFCURVE",
"96 464 CURVE SMOOTH",
"96 0 LINE"
);
}
);
width = 676.23529;
},
{
background = {
paths = (
{
closed = 1;
nodes = (
"268 0 LINE",
"268 438 LINE SMOOTH",
"268 506 OFFCURVE",
"310 549 OFFCURVE",
"375 549 CURVE SMOOTH",
"421 549 OFFCURVE",
"453 525 OFFCURVE",
"453 487 CURVE SMOOTH",
"453 455 OFFCURVE",
"435 438 OFFCURVE",
"391 438 CURVE SMOOTH",
"323 438 LINE",
"323 274 LINE",
"401 274 LINE SMOOTH",
"484 274 OFFCURVE",
"507 257 OFFCURVE",
"507 208 CURVE SMOOTH",
"507 170 OFFCURVE",
"491 148 OFFCURVE",
"467 149 CURVE SMOOTH",
"434 149 OFFCURVE",
"386 164 OFFCURVE",
"340 193 CURVE",
"288 45 LINE",
"344 8 OFFCURVE",
"397 -5 OFFCURVE",
"480 -5 CURVE SMOOTH",
"609 -5 OFFCURVE",
"708 84 OFFCURVE",
"708 200 CURVE SMOOTH",
"708 296 OFFCURVE",
"640 363 OFFCURVE",
"533 373 CURVE",
"538 357 LINE",
"606 381 OFFCURVE",
"652 438 OFFCURVE",
"652 507 CURVE SMOOTH",
"652 632 OFFCURVE",
"545 712 OFFCURVE",
"381 712 CURVE SMOOTH",
"177 712 OFFCURVE",
"57 605 OFFCURVE",
"57 430 CURVE SMOOTH",
"57 0 LINE"
);
}
);
};
layerId = "4121B50C-FD42-45C5-8FBE-41E76D98F91E";
paths = (
{
closed = 1;
nodes = (
"268 0 LINE",
"268 438 LINE SMOOTH",
"268 513 OFFCURVE",
"310 549 OFFCURVE",
"375 549 CURVE SMOOTH",
"421 549 OFFCURVE",
"453 530 OFFCURVE",
"453 493 CURVE SMOOTH",
"453 458 OFFCURVE",
"435 438 OFFCURVE",
"390 438 CURVE SMOOTH",
"328 438 LINE",
"328 274 LINE",
"411 274 LINE SMOOTH",
"480 274 OFFCURVE",
"507 257 OFFCURVE",
"507 208 CURVE SMOOTH",
"507 170 OFFCURVE",
"488 149 OFFCURVE",
"449 149 CURVE SMOOTH",
"414 149 OFFCURVE",
"382 164 OFFCURVE",
"343 187 CURVE",
"288 45 LINE",
"348 8 OFFCURVE",
"401 -5 OFFCURVE",
"480 -5 CURVE SMOOTH",
"609 -5 OFFCURVE",
"708 84 OFFCURVE",
"708 200 CURVE SMOOTH",
"708 296 OFFCURVE",
"640 363 OFFCURVE",
"533 373 CURVE",
"538 357 LINE",
"606 381 OFFCURVE",
"652 438 OFFCURVE",
"652 507 CURVE SMOOTH",
"652 632 OFFCURVE",
"545 712 OFFCURVE",
"381 712 CURVE SMOOTH",
"177 712 OFFCURVE",
"57 605 OFFCURVE",
"57 430 CURVE SMOOTH",
"57 0 LINE"
);
}
);
width = 728.31373;
}
);
leftKerningGroup = H;
leftMetricsKey = H;
rightKerningGroup = Germandbls;
rightMetricsKey = B;
unicode = 1E9E;
},
{
color = 3;
glyphname = Schwa;
lastChange = "2019-07-02 08:52:53 +0000";
layers = (
{
anchors = (
{
name = bottom;
position = "{364, 0}";
},
{
name = top;
position = "{364, 705}";
}
);
background = {
anchors = (
{
name = bottom;
position = "{364, 0}";
},
{
name = top;
position = "{364, 705}";
}
);
paths = (
{
closed = 1;
nodes = (
"547 -8 OFFCURVE",
"661 129 OFFCURVE",
"661 353 CURVE SMOOTH",
"661 577 OFFCURVE",
"540 713 OFFCURVE",
"342 713 CURVE SMOOTH",
"245 713 OFFCURVE",
"152 679 OFFCURVE",
"93 618 CURVE",
"114 583 LINE",
"180 644 OFFCURVE",
"254 673 OFFCURVE",
"344 673 CURVE SMOOTH",
"517 673 OFFCURVE",
"617 556 OFFCURVE",
"617 353 CURVE SMOOTH",
"617 151 OFFCURVE",
"523 33 OFFCURVE",
"363 33 CURVE SMOOTH",
"205 33 OFFCURVE",
"111 146 OFFCURVE",
"111 353 CURVE",
"99 337 LINE",
"644 337 LINE",
"644 379 LINE",
"67 379 LINE",
"67 348 LINE SMOOTH",
"67 128 OFFCURVE",
"181 -8 OFFCURVE",
"363 -8 CURVE SMOOTH"
);
}
);
};
layerId = "F1F93986-3ED8-4AAE-84C4-CA3EEECDDFA0";
paths = (
{
closed = 1;
nodes = (
"547 -8 OFFCURVE",
"661 129 OFFCURVE",
"661 353 CURVE SMOOTH",
"661 577 OFFCURVE",
"540 713 OFFCURVE",
"342 713 CURVE SMOOTH",
"245 713 OFFCURVE",
"152 678 OFFCURVE",
"93 618 CURVE",
"114 583 LINE",
"180 644 OFFCURVE",
"254 673 OFFCURVE",
"344 673 CURVE SMOOTH",
"517 673 OFFCURVE",
"617 556 OFFCURVE",
"617 353 CURVE SMOOTH",
"617 151 OFFCURVE",
"523 33 OFFCURVE",
"363 33 CURVE SMOOTH",
"205 33 OFFCURVE",
"111 146 OFFCURVE",
"111 353 CURVE",
"99 337 LINE",
"644 337 LINE",
"644 379 LINE",
"67 379 LINE",
"67 348 LINE SMOOTH",
"67 128 OFFCURVE",
"181 -8 OFFCURVE",
"363 -8 CURVE SMOOTH"
);
}
);
width = 727.64706;
},
{
anchors = (
{
name = bottom;
position = "{395, 0}";
},
{
name = top;
position = "{393, 705}";
}
);
background = {
anchors = (
{
name = bottom;
position = "{395, 0}";
},
{
name = top;
position = "{393, 705}";
}
);
paths = (
{
closed = 1;
nodes = (
"607 -10 OFFCURVE",
"747 147 OFFCURVE",
"747 353 CURVE SMOOTH",
"747 572 OFFCURVE",
"598 715 OFFCURVE",
"370 715 CURVE SMOOTH",
"260 715 OFFCURVE",
"165 685 OFFCURVE",
"102 641 CURVE",
"166 490 LINE",
"225 527 OFFCURVE",
"293 546 OFFCURVE",
"360 546 CURVE SMOOTH",
"475 546 OFFCURVE",
"534 485 OFFCURVE",
"534 353 CURVE SMOOTH",
"534 216 OFFCURVE",
"492 154 OFFCURVE",
"402 154 CURVE SMOOTH",
"303 154 OFFCURVE",
"248 219 OFFCURVE",
"255 353 CURVE",
"201 276 LINE",
"610 276 LINE",
"610 436 LINE",
"41 436 LINE",
"41 360 LINE SMOOTH",
"41 119 OFFCURVE",
"178 -10 OFFCURVE",
"407 -10 CURVE SMOOTH"
);
}
);
};
layerId = "4121B50C-FD42-45C5-8FBE-41E76D98F91E";
paths = (
{
closed = 1;
nodes = (
"607 -10 OFFCURVE",
"747 147 OFFCURVE",
"747 353 CURVE SMOOTH",
"747 572 OFFCURVE",
"598 715 OFFCURVE",
"370 715 CURVE SMOOTH",
"260 715 OFFCURVE",
"165 685 OFFCURVE",
"102 641 CURVE",
"166 490 LINE",
"225 527 OFFCURVE",
"293 546 OFFCURVE",
"360 546 CURVE SMOOTH",
"475 546 OFFCURVE",
"534 485 OFFCURVE",
"534 353 CURVE SMOOTH",
"534 216 OFFCURVE",
"492 154 OFFCURVE",
"402 154 CURVE SMOOTH",
"303 154 OFFCURVE",
"248 219 OFFCURVE",
"255 353 CURVE",
"201 276 LINE",
"610 276 LINE",
"610 436 LINE",
"41 436 LINE",
"41 360 LINE SMOOTH",
"41 119 OFFCURVE",
"178 -10 OFFCURVE",
"407 -10 CURVE SMOOTH"
);
}
);
width = 787.86275;
}
);
leftKerningGroup = O;
leftMetricsKey = O;
rightKerningGroup = O;
rightMetricsKey = O;
unicode = 018F;
},
{
color = 3;
glyphname = T;
lastChange = "2019-07-02 08:52:53 +0000";
layers = (
{
anchors = (
{
name = bottom;
position = "{292, 0}";
},
{
name = center;
position = "{292, 358}";
},
{
name = top;
position = "{292, 705}";
}
);
background = {
anchors = (
{
name = bottom;
position = "{292, 0}";
},
{
name = center;
position = "{292, 358}";
},
{
name = top;
position = "{292, 705}";
}
);
paths = (
{
closed = 1;
nodes = (
"313 0 LINE",
"313 667 LINE",
"572 667 LINE",
"572 705 LINE",
"12 705 LINE",
"12 667 LINE",
"271 667 LINE",
"271 0 LINE"
);
}
);
};
layerId = "F1F93986-3ED8-4AAE-84C4-CA3EEECDDFA0";
paths = (
{
closed = 1;
nodes = (
"312 0 LINE",
"312 667 LINE",
"572 667 LINE",
"572 705 LINE",
"12 705 LINE",
"12 667 LINE",
"272 667 LINE",
"272 0 LINE"
);
}
);
width = 583.76471;
},
{
anchors = (
{
name = bottom;
position = "{322, 0}";
},
{
name = center;
position = "{321, 358}";
},
{
name = top;
position = "{321, 705}";
}
);
background = {
anchors = (
{
name = bottom;
position = "{321, 0}";
},
{
name = center;
position = "{321, 358}";
},
{
name = top;
position = "{321, 705}";
}
);
paths = (
{
closed = 1;
nodes = (
"430 0 LINE",
"430 532 LINE",
"630 532 LINE",
"630 705 LINE",
"12 705 LINE",
"12 532 LINE",
"213 532 LINE",
"213 0 LINE"
);
}
);
};
layerId = "4121B50C-FD42-45C5-8FBE-41E76D98F91E";
paths = (
{
closed = 1;
nodes = (
"430 0 LINE",
"430 532 LINE",
"630 532 LINE",
"630 705 LINE",
"13 705 LINE",
"13 532 LINE",
"213 532 LINE",
"213 0 LINE"
);
}
);
width = 643;
}
);
leftKerningGroup = T;
rightKerningGroup = T;
unicode = 0054;
userData = {
anchors = (
);
b = {
};
com.typemytype.robofont.layerData = {
b = {
anchors = (
);
components = (
);
contours = (
{
points = (
{
segmentType = curve;
smooth = 1;
x = 581;
y = 0;
},
{
segmentType = line;
smooth = 1;
x = 1350;
y = 0;
},
{
smooth = 0;
x = 1399;
y = 0;
},
{
smooth = 0;
x = 1423;
y = 34;
},
{
segmentType = curve;
smooth = 1;
x = 1423;
y = 71;
},
{
smooth = 0;
x = 1423;
y = 107;
},
{
smooth = 0;
x = 1399;
y = 141;
},
{
segmentType = curve;
smooth = 1;
x = 1350;
y = 141;
},
{
segmentType = line;
smooth = 0;
x = 671;
y = 141;
},
{
segmentType = line;
smooth = 0;
x = 671;
y = 665;
},
{
segmentType = line;
smooth = 1;
x = 1290;
y = 665;
},
{
smooth = 0;
x = 1339;
y = 665;
},
{
smooth = 0;
x = 1364;
y = 698;
},
{
segmentType = curve;
smooth = 1;
x = 1364;
y = 734;
},
{
smooth = 0;
x = 1364;
y = 770;
},
{
smooth = 0;
x = 1341;
y = 803;
},
{
segmentType = curve;
smooth = 1;
x = 1290;
y = 803;
},
{
segmentType = line;
smooth = 0;
x = 671;
y = 803;
},
{
segmentType = line;
smooth = 0;
x = 671;
y = 1285;
},
{
segmentType = line;
smooth = 1;
x = 1322;
y = 1285;
},
{
smooth = 0;
x = 1371;
y = 1285;
},
{
smooth = 0;
x = 1395;
y = 1319;
},
{
segmentType = curve;
smooth = 1;
x = 1395;
y = 1356;
},
{
smooth = 0;
x = 1395;
y = 1392;
},
{
smooth = 0;
x = 1371;
y = 1426;
},
{
segmentType = curve;
smooth = 1;
x = 1322;
y = 1426;
},
{
segmentType = line;
smooth = 1;
x = 576;
y = 1426;
},
{
smooth = 0;
x = 528;
y = 1426;
},
{
smooth = 0;
x = 493;
y = 1383;
},
{
segmentType = curve;
smooth = 1;
x = 493;
y = 1340;
},
{
segmentType = line;
smooth = 1;
x = 493;
y = 86;
},
{
smooth = 0;
x = 493;
y = 41;
},
{
smooth = 0;
x = 537;
y = 0;
}
);
}
);
lib = {
};
name = T;
unicodes = (
);
width = 1158;
};
};
components = (
);
contours = (
);
lib = {
};
name = T;
unicodes = (
);
width = 1199;
};
},
{
color = 3;
glyphname = U;
lastChange = "2019-07-02 08:52:53 +0000";
layers = (
{
anchors = (
{
name = bottom;
position = "{358, 0}";
},
{
name = ogonek;
position = "{437, 21}";
},
{
name = top;
position = "{358, 705}";
},
{
name = topright;
position = "{584, 705}";
}
);
background = {
anchors = (
{
name = bottom;
position = "{358, 0}";
},
{
name = ogonek;
position = "{437, 21}";
},
{
name = top;
position = "{358, 705}";
},
{
name = topright;
position = "{584, 705}";
}
);
paths = (
{
closed = 1;
nodes = (
"533 -8 OFFCURVE",
"625 86 OFFCURVE",
"625 267 CURVE SMOOTH",
"625 705 LINE",
"583 705 LINE",
"583 260 LINE SMOOTH",
"583 109 OFFCURVE",
"506 33 OFFCURVE",
"358 33 CURVE SMOOTH",
"208 33 OFFCURVE",
"132 109 OFFCURVE",
"132 260 CURVE SMOOTH",
"132 705 LINE",
"91 705 LINE",
"91 267 LINE SMOOTH",
"91 86 OFFCURVE",
"182 -8 OFFCURVE",
"358 -8 CURVE SMOOTH"
);
}
);
};
layerId = "F1F93986-3ED8-4AAE-84C4-CA3EEECDDFA0";
paths = (
{
closed = 1;
nodes = (
"533 -8 OFFCURVE",
"625 86 OFFCURVE",
"625 267 CURVE SMOOTH",
"625 705 LINE",
"583 705 LINE",
"583 260 LINE SMOOTH",
"583 109 OFFCURVE",
"506 33 OFFCURVE",
"358 33 CURVE SMOOTH",
"208 33 OFFCURVE",
"132 109 OFFCURVE",
"132 260 CURVE SMOOTH",
"132 705 LINE",
"91 705 LINE",
"91 267 LINE SMOOTH",
"91 86 OFFCURVE",
"182 -8 OFFCURVE",
"358 -8 CURVE SMOOTH"
);
}
);
width = 715.41176;
},
{
anchors = (
{
name = bottom;
position = "{376, 0}";
},
{
name = ogonek;
position = "{514, 37}";
},
{
name = top;
position = "{376, 705}";
},
{
name = topright;
position = "{553, 705}";
}
);
background = {
anchors = (
{
name = bottom;
position = "{376, 0}";
},
{
name = ogonek;
position = "{514, 37}";
},
{
name = top;
position = "{376, 705}";
},
{
name = topright;
position = "{553, 705}";
}
);
paths = (
{
closed = 1;
nodes = (
"584 -10 OFFCURVE",
"698 102 OFFCURVE",
"698 303 CURVE SMOOTH",
"698 705 LINE",
"487 705 LINE",
"487 296 LINE SMOOTH",
"487 207 OFFCURVE",
"446 154 OFFCURVE",
"376 154 CURVE SMOOTH",
"304 154 OFFCURVE",
"264 205 OFFCURVE",
"264 296 CURVE SMOOTH",
"264 705 LINE",
"53 705 LINE",
"53 303 LINE SMOOTH",
"53 99 OFFCURVE",
"164 -10 OFFCURVE",
"376 -10 CURVE SMOOTH"
);
}
);
};
layerId = "4121B50C-FD42-45C5-8FBE-41E76D98F91E";
paths = (
{
closed = 1;
nodes = (
"584 -10 OFFCURVE",
"698 94 OFFCURVE",
"698 289 CURVE SMOOTH",
"698 705 LINE",
"487 705 LINE",
"487 281 LINE SMOOTH",
"487 202 OFFCURVE",
"446 156 OFFCURVE",
"376 156 CURVE SMOOTH",
"304 156 OFFCURVE",
"264 200 OFFCURVE",
"264 281 CURVE SMOOTH",
"264 705 LINE",
"53 705 LINE",
"53 289 LINE SMOOTH",
"53 91 OFFCURVE",
"164 -10 OFFCURVE",
"376 -10 CURVE SMOOTH"
);
}
);
width = 751.21569;
}
);
leftKerningGroup = U;
rightKerningGroup = U;
unicode = 0055;
userData = {
anchors = (
);
b = {
};
com.typemytype.robofont.layerData = {
b = {
anchors = (
);
components = (
);
contours = (
);
lib = {
};
name = U;
unicodes = (
);
width = 1490;
};
};
components = (
);
contours = (
);
lib = {
};
name = U;
unicodes = (
);
width = 1513;
};
},
{
color = 3;
glyphname = V;
lastChange = "2019-07-02 08:52:53 +0000";
layers = (
{
anchors = (
{
name = bottom;
position = "{336, 0}";
},
{
name = top;
position = "{335, 705}";
}
);
background = {
anchors = (
{
name = bottom;
position = "{336, 0}";
},
{
name = top;
position = "{335, 705}";
}
);
paths = (
{
closed = 1;
nodes = (
"355 0 LINE",
"659 705 LINE",
"615 705 LINE",
"323 24 LINE",
"348 24 LINE",
"55 705 LINE",
"12 705 LINE",
"314 0 LINE"
);
}
);
};
layerId = "F1F93986-3ED8-4AAE-84C4-CA3EEECDDFA0";
paths = (
{
closed = 1;
nodes = (
"355 0 LINE",
"659 705 LINE",
"615 705 LINE",
"323 24 LINE",
"348 24 LINE",
"55 705 LINE",
"12 705 LINE",
"314 0 LINE"
);
}
);
width = 669.52941;
},
{
anchors = (
{
name = bottom;
position = "{380, 0}";
},
{
name = top;
position = "{379, 705}";
}
);
background = {
anchors = (
{
name = bottom;
position = "{380, 0}";
},
{
name = top;
position = "{379, 705}";
}
);
paths = (
{
closed = 1;
nodes = (
"464 0 LINE",
"789 705 LINE",
"571 705 LINE",
"354 203 LINE",
"409 203 LINE",
"193 705 LINE",
"-30 705 LINE",
"295 0 LINE"
);
}
);
};
layerId = "4121B50C-FD42-45C5-8FBE-41E76D98F91E";
paths = (
{
closed = 1;
nodes = (
"464 0 LINE",
"789 705 LINE",
"571 705 LINE",
"354 203 LINE",
"409 203 LINE",
"193 705 LINE",
"-30 705 LINE",
"295 0 LINE"
);
}
);
width = 759.03922;
}
);
leftKerningGroup = V;
rightKerningGroup = V;
unicode = 0056;
userData = {
anchors = (
);
b = {
};
com.typemytype.robofont.guides = (
);
com.typemytype.robofont.layerData = {
b = {
anchors = (
);
components = (
);
contours = (
{
points = (
{
segmentType = curve;
smooth = 1;
x = 644;
y = "-5";
},
{
smooth = 0;
x = 712;
y = "-5";
},
{
smooth = 0;
x = 764;
y = 38;
},
{
segmentType = curve;
smooth = 1;
x = 793;
y = 117;
},
{
segmentType = line;
smooth = 1;
x = 1243;
y = 1324;
},
{
smooth = 0;
x = 1247;
y = 1335;
},
{
smooth = 0;
x = 1248;
y = 1342;
},
{
segmentType = curve;
smooth = 1;
x = 1248;
y = 1351;
},
{
smooth = 0;
x = 1248;
y = 1395;
},
{
smooth = 0;
x = 1203;
y = 1427;
},
{
segmentType = curve;
smooth = 1;
x = 1160;
y = 1427;
},
{
smooth = 0;
x = 1125;
y = 1427;
},
{
smooth = 0;
x = 1090;
y = 1408;
},
{
segmentType = curve;
smooth = 1;
x = 1076;
y = 1369;
},
{
segmentType = line;
smooth = 0;
x = 651;
y = 192;
},
{
segmentType = line;
smooth = 0;
x = 650;
y = 190;
},
{
segmentType = line;
smooth = 1;
x = 214;
y = 1370;
},
{
smooth = 0;
x = 200;
y = 1407;
},
{
smooth = 0;
x = 170;
y = 1427;
},
{
segmentType = curve;
smooth = 1;
x = 135;
y = 1427;
},
{
smooth = 0;
x = 90;
y = 1427;
},
{
smooth = 0;
x = 43;
y = 1392;
},
{
segmentType = curve;
smooth = 1;
x = 43;
y = 1344;
},
{
smooth = 0;
x = 43;
y = 1336;
},
{
smooth = 0;
x = 44;
y = 1326;
},
{
segmentType = curve;
smooth = 0;
x = 48;
y = 1318;
},
{
segmentType = line;
smooth = 1;
x = 501;
y = 117;
},
{
smooth = 0;
x = 532;
y = 35;
},
{
smooth = 0;
x = 581;
y = "-5";
}
);
}
);
lib = {
};
name = V;
unicodes = (
);
width = 1289;
};
};
components = (
);
contours = (
);
lib = {
};
name = V;
unicodes = (
);
width = 1365;
};
},
{
color = 3;
glyphname = W;
lastChange = "2019-07-02 08:52:53 +0000";
layers = (
{
anchors = (
{
name = bottom;
position = "{547, 0}";
},
{
name = top;
position = "{546, 705}";
}
);
background = {
anchors = (
{
name = bottom;
position = "{547, 0}";
},
{
name = top;
position = "{546, 705}";
}
);
paths = (
{
closed = 1;
nodes = (
"324 0 LINE",
"556 667 LINE",
"536 667 LINE",
"768 0 LINE",
"807 0 LINE",
"1051 705 LINE",
"1009 705 LINE",
"772 19 LINE",
"801 19 LINE",
"564 705 LINE",
"528 705 LINE",
"291 19 LINE",
"319 19 LINE",
"83 705 LINE",
"42 705 LINE",
"286 0 LINE"
);
}
);
};
layerId = "F1F93986-3ED8-4AAE-84C4-CA3EEECDDFA0";
paths = (
{
closed = 1;
nodes = (
"324 0 LINE",
"556 667 LINE",
"536 667 LINE",
"768 0 LINE",
"807 0 LINE",
"1051 705 LINE",
"1009 705 LINE",
"772 19 LINE",
"801 19 LINE",
"564 705 LINE",
"528 705 LINE",
"291 19 LINE",
"319 19 LINE",
"83 705 LINE",
"42 705 LINE",
"286 0 LINE"
);
}
);
width = 1092.52941;
},
{
anchors = (
{
name = bottom;
position = "{563, 0}";
},
{
name = top;
position = "{564, 705}";
}
);
background = {
anchors = (
{
name = bottom;
position = "{563, 0}";
},
{
name = top;
position = "{564, 705}";
}
);
paths = (
{
closed = 1;
nodes = (
"429 0 LINE",
"578 412 LINE",
"552 412 LINE",
"697 0 LINE",
"867 0 LINE",
"1121 705 LINE",
"917 705 LINE",
"760 234 LINE",
"798 234 LINE",
"644 705 LINE",
"497 705 LINE",
"330 234 LINE",
"376 234 LINE",
"224 705 LINE",
"6 705 LINE",
"258 0 LINE"
);
}
);
};
layerId = "4121B50C-FD42-45C5-8FBE-41E76D98F91E";
paths = (
{
closed = 1;
nodes = (
"429 0 LINE",
"578 412 LINE",
"552 412 LINE",
"697 0 LINE",
"867 0 LINE",
"1121 705 LINE",
"917 705 LINE",
"760 234 LINE",
"798 234 LINE",
"644 705 LINE",
"497 705 LINE",
"330 234 LINE",
"376 234 LINE",
"224 705 LINE",
"6 705 LINE",
"258 0 LINE"
);
}
);
width = 1126.70588;
}
);
leftKerningGroup = V;
rightKerningGroup = V;
unicode = 0057;
userData = {
anchors = (
);
b = {
};
com.typemytype.robofont.layerData = {
b = {
anchors = (
);
components = (
);
contours = (
);
lib = {
};
name = W;
unicodes = (
);
width = 2126;
};
};
components = (
);
contours = (
);
lib = {
};
name = W;
unicodes = (
);
width = 2070;
};
},
{
color = 3;
glyphname = X;
lastChange = "2019-07-02 08:52:53 +0000";
layers = (
{
anchors = (
{
name = bottom;
position = "{316, 0}";
},
{
name = top;
position = "{316, 705}";
}
);
background = {
anchors = (
{
name = bottom;
position = "{316, 0}";
},
{
name = top;
position = "{316, 705}";
}
);
paths = (
{
closed = 1;
nodes = (
"591 705 LINE",
"543 705 LINE",
"24 0 LINE",
"74 0 LINE"
);
},
{
closed = 1;
nodes = (
"557 0 LINE",
"606 0 LINE",
"89 705 LINE",
"40 705 LINE"
);
}
);
};
layerId = "F1F93986-3ED8-4AAE-84C4-CA3EEECDDFA0";
paths = (
{
closed = 1;
nodes = (
"591 705 LINE",
"543 705 LINE",
"311 387 LINE",
"323 387 LINE",
"89 705 LINE",
"40 705 LINE",
"296 357 LINE",
"296 368 LINE",
"24 0 LINE",
"74 0 LINE",
"325 342 LINE",
"306 342 LINE",
"557 0 LINE",
"606 0 LINE",
"333 371 LINE",
"333 352 LINE"
);
}
);
width = 630.05882;
},
{
anchors = (
{
name = bottom;
position = "{350, 0}";
},
{
name = top;
position = "{348, 705}";
}
);
background = {
anchors = (
{
name = bottom;
position = "{350, 0}";
},
{
name = top;
position = "{348, 705}";
}
);
paths = (
{
closed = 1;
nodes = (
"738 705 LINE",
"488 705 LINE",
"313 461 LINE",
"383 460 LINE",
"210 705 LINE",
"-40 705 LINE",
"264 305 LINE",
"264 404 LINE",
"-43 0 LINE",
"206 0 LINE",
"382 244 LINE",
"315 246 LINE",
"489 0 LINE",
"740 0 LINE",
"434 403 LINE",
"434 307 LINE"
);
}
);
};
layerId = "4121B50C-FD42-45C5-8FBE-41E76D98F91E";
paths = (
{
closed = 1;
nodes = (
"738 705 LINE",
"488 705 LINE",
"313 461 LINE",
"383 460 LINE",
"210 705 LINE",
"-40 705 LINE",
"264 305 LINE",
"264 404 LINE",
"-43 0 LINE",
"206 0 LINE",
"382 244 LINE",
"315 246 LINE",
"489 0 LINE",
"740 0 LINE",
"434 403 LINE",
"434 307 LINE"
);
}
);
width = 698.41176;
}
);
leftKerningGroup = X;
rightKerningGroup = X;
unicode = 0058;
userData = {
anchors = (
);
b = {
};
com.typemytype.robofont.layerData = {
b = {
anchors = (
);
components = (
);
contours = (
{
points = (
{
segmentType = curve;
smooth = 1;
x = 151;
y = 0;
},
{
smooth = 0;
x = 176;
y = 0;
},
{
smooth = 0;
x = 201;
y = 12;
},
{
segmentType = curve;
smooth = 1;
x = 222;
y = 41;
},
{
segmentType = line;
smooth = 0;
x = 641;
y = 616;
},
{
segmentType = line;
smooth = 0;
x = 746;
y = 734;
},
{
segmentType = line;
smooth = 1;
x = 1175;
y = 1310;
},
{
smooth = 0;
x = 1186;
y = 1325;
},
{
smooth = 0;
x = 1190;
y = 1338;
},
{
segmentType = curve;
smooth = 1;
x = 1190;
y = 1353;
},
{
smooth = 0;
x = 1190;
y = 1393;
},
{
smooth = 0;
x = 1153;
y = 1426;
},
{
segmentType = curve;
smooth = 1;
x = 1110;
y = 1426;
},
{
smooth = 0;
x = 1083;
y = 1426;
},
{
smooth = 0;
x = 1058;
y = 1414;
},
{
segmentType = curve;
smooth = 1;
x = 1037;
y = 1385;
},
{
segmentType = line;
smooth = 0;
x = 648;
y = 844;
},
{
segmentType = line;
smooth = 0;
x = 542;
y = 732;
},
{
segmentType = line;
smooth = 1;
x = 84;
y = 121;
},
{
smooth = 0;
x = 73;
y = 106;
},
{
smooth = 0;
x = 68;
y = 91;
},
{
segmentType = curve;
smooth = 1;
x = 68;
y = 76;
},
{
smooth = 0;
x = 68;
y = 35;
},
{
smooth = 0;
x = 108;
y = 0;
}
);
},
{
points = (
{
segmentType = curve;
smooth = 1;
x = 1104;
y = 0;
},
{
smooth = 0;
x = 1151;
y = 0;
},
{
smooth = 0;
x = 1200;
y = 40;
},
{
segmentType = curve;
smooth = 1;
x = 1200;
y = 85;
},
{
smooth = 0;
x = 1200;
y = 98;
},
{
smooth = 0;
x = 1195;
y = 113;
},
{
segmentType = curve;
smooth = 0;
x = 1186;
y = 126;
},
{
segmentType = line;
smooth = 0;
x = 272;
y = 1385;
},
{
smooth = 0;
x = 252;
y = 1414;
},
{
smooth = 0;
x = 225;
y = 1426;
},
{
segmentType = curve;
smooth = 1;
x = 197;
y = 1426;
},
{
smooth = 0;
x = 149;
y = 1426;
},
{
smooth = 0;
x = 100;
y = 1388;
},
{
segmentType = curve;
smooth = 1;
x = 100;
y = 1343;
},
{
smooth = 0;
x = 100;
y = 1328;
},
{
smooth = 0;
x = 105;
y = 1315;
},
{
segmentType = curve;
smooth = 0;
x = 114;
y = 1303;
},
{
segmentType = line;
smooth = 0;
x = 1033;
y = 40;
},
{
smooth = 0;
x = 1052;
y = 13;
},
{
smooth = 0;
x = 1076;
y = 0;
}
);
}
);
lib = {
};
name = X;
unicodes = (
);
width = 1274;
};
};
components = (
);
contours = (
);
lib = {
};
name = X;
unicodes = (
);
width = 1322;
};
},
{
color = 3;
glyphname = Y;
lastChange = "2019-07-02 08:52:53 +0000";
layers = (
{
anchors = (
{
name = bottom;
position = "{290, 0}";
},
{
name = top;
position = "{290, 705}";
},
{
name = topleft;
position = "{19, 705}";
}
);
background = {
anchors = (
{
name = bottom;
position = "{290, 0}";
},
{
name = top;
position = "{290, 705}";
},
{
name = topleft;
position = "{19, 705}";
}
);
paths = (
{
closed = 1;
nodes = (
"311 0 LINE",
"311 367 LINE",
"301 328 LINE",
"579 705 LINE",
"532 705 LINE",
"284 368 LINE",
"299 368 LINE",
"50 705 LINE",
"1 705 LINE",
"280 328 LINE",
"269 367 LINE",
"269 0 LINE"
);
}
);
};
layerId = "F1F93986-3ED8-4AAE-84C4-CA3EEECDDFA0";
paths = (
{
closed = 1;
nodes = (
"311 0 LINE",
"311 367 LINE",
"301 328 LINE",
"579 705 LINE",
"532 705 LINE",
"284 368 LINE",
"299 368 LINE",
"50 705 LINE",
"1 705 LINE",
"280 328 LINE",
"269 367 LINE",
"269 0 LINE"
);
}
);
width = 580.88235;
},
{
anchors = (
{
name = bottom;
position = "{334, 0}";
},
{
name = top;
position = "{332, 705}";
},
{
name = topleft;
position = "{19, 705}";
}
);
background = {
anchors = (
{
name = bottom;
position = "{334, 0}";
},
{
name = top;
position = "{332, 705}";
},
{
name = topleft;
position = "{19, 705}";
}
);
paths = (
{
closed = 1;
nodes = (
"441 0 LINE",
"441 367 LINE",
"397 251 LINE",
"745 705 LINE",
"500 705 LINE",
"310 449 LINE",
"351 449 LINE",
"165 705 LINE",
"-77 705 LINE",
"268 251 LINE",
"225 367 LINE",
"225 0 LINE"
);
}
);
};
layerId = "4121B50C-FD42-45C5-8FBE-41E76D98F91E";
paths = (
{
closed = 1;
nodes = (
"441 0 LINE",
"441 367 LINE",
"397 251 LINE",
"745 705 LINE",
"500 705 LINE",
"310 449 LINE",
"351 449 LINE",
"165 705 LINE",
"-77 705 LINE",
"268 251 LINE",
"225 367 LINE",
"225 0 LINE"
);
}
);
width = 665.5098;
}
);
leftKerningGroup = Y;
rightKerningGroup = Y;
unicode = 0059;
userData = {
anchors = (
);
b = {
};
com.typemytype.robofont.guides = (
);
com.typemytype.robofont.layerData = {
b = {
anchors = (
);
components = (
);
contours = (
{
points = (
{
segmentType = curve;
smooth = 1;
x = 641;
y = 0;
},
{
smooth = 0;
x = 685;
y = 0;
},
{
smooth = 0;
x = 730;
y = 29;
},
{
segmentType = curve;
smooth = 1;
x = 730;
y = 85;
},
{
segmentType = line;
smooth = 0;
x = 730;
y = 1285;
},
{
segmentType = line;
smooth = 1;
x = 1115;
y = 1285;
},
{
smooth = 0;
x = 1164;
y = 1285;
},
{
smooth = 0;
x = 1190;
y = 1319;
},
{
segmentType = curve;
smooth = 1;
x = 1190;
y = 1355;
},
{
smooth = 0;
x = 1190;
y = 1392;
},
{
smooth = 0;
x = 1166;
y = 1426;
},
{
segmentType = curve;
smooth = 1;
x = 1115;
y = 1426;
},
{
segmentType = line;
smooth = 1;
x = 160;
y = 1426;
},
{
smooth = 0;
x = 111;
y = 1426;
},
{
smooth = 0;
x = 86;
y = 1392;
},
{
segmentType = curve;
smooth = 1;
x = 86;
y = 1355;
},
{
smooth = 0;
x = 86;
y = 1319;
},
{
smooth = 0;
x = 111;
y = 1285;
},
{
segmentType = curve;
smooth = 1;
x = 160;
y = 1285;
},
{
segmentType = line;
smooth = 0;
x = 552;
y = 1285;
},
{
segmentType = line;
smooth = 1;
x = 552;
y = 85;
},
{
smooth = 0;
x = 552;
y = 29;
},
{
smooth = 0;
x = 596;
y = 0;
}
);
}
);
lib = {
};
name = Y;
unicodes = (
);
width = 1278;
};
};
components = (
);
contours = (
);
lib = {
};
name = Y;
unicodes = (
);
width = 1321;
};
},
{
color = 3;
glyphname = Z;
lastChange = "2019-07-02 08:52:53 +0000";
layers = (
{
anchors = (
{
name = bottom;
position = "{297, 0}";
},
{
name = top;
position = "{288, 705}";
}
);
background = {
anchors = (
{
name = bottom;
position = "{297, 0}";
},
{
name = top;
position = "{288, 705}";
}
);
paths = (
{
closed = 1;
nodes = (
"541 0 LINE",
"541 39 LINE",
"77 39 LINE",
"77 16 LINE",
"531 674 LINE",
"531 705 LINE",
"42 705 LINE",
"42 666 LINE",
"496 666 LINE",
"496 689 LINE",
"42 31 LINE",
"42 0 LINE"
);
}
);
};
layerId = "F1F93986-3ED8-4AAE-84C4-CA3EEECDDFA0";
paths = (
{
closed = 1;
nodes = (
"541 0 LINE",
"541 39 LINE",
"78 39 LINE",
"78 16 LINE",
"531 674 LINE",
"531 705 LINE",
"42 705 LINE",
"42 666 LINE",
"495 666 LINE",
"495 689 LINE",
"42 31 LINE",
"42 0 LINE"
);
}
);
width = 578.58824;
},
{
anchors = (
{
name = bottom;
position = "{306, 0}";
},
{
name = top;
position = "{316, 705}";
}
);
background = {
anchors = (
{
name = bottom;
position = "{306, 0}";
},
{
name = top;
position = "{316, 705}";
}
);
paths = (
{
closed = 1;
nodes = (
"592 0 LINE",
"592 167 LINE",
"252 167 LINE",
"252 114 LINE",
"580 550 LINE",
"580 705 LINE",
"54 705 LINE",
"54 538 LINE",
"379 538 LINE",
"379 591 LINE",
"54 158 LINE",
"54 0 LINE"
);
}
);
};
layerId = "4121B50C-FD42-45C5-8FBE-41E76D98F91E";
paths = (
{
closed = 1;
nodes = (
"592 0 LINE",
"592 167 LINE",
"252 167 LINE",
"252 114 LINE",
"580 550 LINE",
"580 705 LINE",
"54 705 LINE",
"54 538 LINE",
"379 538 LINE",
"379 591 LINE",
"54 158 LINE",
"54 0 LINE"
);
}
);
width = 625.78431;
}
);
leftKerningGroup = Z;
rightKerningGroup = Z;
unicode = 005A;
userData = {
anchors = (
);
b = {
};
com.typemytype.robofont.layerData = {
b = {
anchors = (
);
components = (
);
contours = (
{
points = (
{
segmentType = curve;
smooth = 1;
x = 266;
y = 0;
},
{
segmentType = line;
smooth = 1;
x = 1035;
y = 0;
},
{
smooth = 0;
x = 1084;
y = 0;
},
{
smooth = 0;
x = 1108;
y = 34;
},
{
segmentType = curve;
smooth = 1;
x = 1108;
y = 71;
},
{
smooth = 0;
x = 1108;
y = 107;
},
{
smooth = 0;
x = 1084;
y = 141;
},
{
segmentType = curve;
smooth = 1;
x = 1035;
y = 141;
},
{
segmentType = line;
smooth = 0;
x = 356;
y = 141;
},
{
segmentType = line;
smooth = 0;
x = 356;
y = 665;
},
{
segmentType = line;
smooth = 1;
x = 975;
y = 665;
},
{
smooth = 0;
x = 1024;
y = 665;
},
{
smooth = 0;
x = 1049;
y = 698;
},
{
segmentType = curve;
smooth = 1;
x = 1049;
y = 734;
},
{
smooth = 0;
x = 1049;
y = 770;
},
{
smooth = 0;
x = 1026;
y = 803;
},
{
segmentType = curve;
smooth = 1;
x = 975;
y = 803;
},
{
segmentType = line;
smooth = 0;
x = 356;
y = 803;
},
{
segmentType = line;
smooth = 0;
x = 356;
y = 1285;
},
{
segmentType = line;
smooth = 1;
x = 1007;
y = 1285;
},
{
smooth = 0;
x = 1056;
y = 1285;
},
{
smooth = 0;
x = 1080;
y = 1319;
},
{
segmentType = curve;
smooth = 1;
x = 1080;
y = 1356;
},
{
smooth = 0;
x = 1080;
y = 1392;
},
{
smooth = 0;
x = 1056;
y = 1426;
},
{
segmentType = curve;
smooth = 1;
x = 1007;
y = 1426;
},
{
segmentType = line;
smooth = 1;
x = 261;
y = 1426;
},
{
smooth = 0;
x = 213;
y = 1426;
},
{
smooth = 0;
x = 178;
y = 1383;
},
{
segmentType = curve;
smooth = 1;
x = 178;
y = 1340;
},
{
segmentType = line;
smooth = 1;
x = 178;
y = 86;
},
{
smooth = 0;
x = 178;
y = 41;
},
{
smooth = 0;
x = 222;
y = 0;
}
);
}
);
lib = {
};
name = Z;
unicodes = (
);
width = 1165;
};
};
components = (
);
contours = (
);
lib = {
};
name = Z;
unicodes = (
);
width = 1222;
};
},
{
color = 3;
glyphname = a;
lastChange = "2019-07-02 09:25:12 +0000";
layers = (
{
anchors = (
{
name = bottom;
position = "{268, 0}";
},
{
name = ogonek;
position = "{438, 0}";
},
{
name = top;
position = "{271, 484}";
}
);
background = {
anchors = (
{
name = bottom;
position = "{268, 0}";
},
{
name = ogonek;
position = "{441, 0}";
},
{
name = top;
position = "{271, 484}";
}
);
paths = (
{
closed = 1;
nodes = (
"320 -7 OFFCURVE",
"386 40 OFFCURVE",
"407 122 CURVE",
"396 122 LINE",
"396 0 LINE",
"438 0 LINE",
"438 317 LINE SMOOTH",
"438 436 OFFCURVE",
"387 496 OFFCURVE",
"275 496 CURVE SMOOTH",
"210 496 OFFCURVE",
"140 474 OFFCURVE",
"89 438 CURVE",
"109 402 LINE",
"167 439 OFFCURVE",
"216 455 OFFCURVE",
"277 455 CURVE SMOOTH",
"359 455 OFFCURVE",
"395 413 OFFCURVE",
"395 319 CURVE SMOOTH",
"395 202 LINE SMOOTH",
"395 105 OFFCURVE",
"332 35 OFFCURVE",
"239 35 CURVE SMOOTH",
"166 35 OFFCURVE",
"117 78 OFFCURVE",
"117 140 CURVE SMOOTH",
"117 218 OFFCURVE",
"171 238 OFFCURVE",
"377 238 CURVE SMOOTH",
"406 238 LINE",
"406 277 LINE",
"375 277 LINE SMOOTH",
"141 277 OFFCURVE",
"69 244 OFFCURVE",
"69 136 CURVE SMOOTH",
"69 55 OFFCURVE",
"144 -7 OFFCURVE",
"237 -7 CURVE SMOOTH"
);
}
);
};
layerId = "F1F93986-3ED8-4AAE-84C4-CA3EEECDDFA0";
paths = (
{
closed = 1;
nodes = (
"322 -7 OFFCURVE",
"386 42 OFFCURVE",
"407 122 CURVE",
"396 122 LINE",
"396 0 LINE",
"438 0 LINE",
"438 319 LINE SMOOTH",
"438 440 OFFCURVE",
"385 496 OFFCURVE",
"275 496 CURVE SMOOTH",
"210 496 OFFCURVE",
"140 474 OFFCURVE",
"89 438 CURVE",
"109 401 LINE",
"166 440 OFFCURVE",
"216 455 OFFCURVE",
"277 455 CURVE SMOOTH",
"359 455 OFFCURVE",
"395 413 OFFCURVE",
"395 319 CURVE SMOOTH",
"395 202 LINE SMOOTH",
"395 104 OFFCURVE",
"331 34 OFFCURVE",
"239 34 CURVE SMOOTH",
"166 34 OFFCURVE",
"117 78 OFFCURVE",
"117 140 CURVE SMOOTH",
"117 217 OFFCURVE",
"170 238 OFFCURVE",
"367 238 CURVE SMOOTH",
"406 238 LINE",
"406 277 LINE",
"365 277 LINE SMOOTH",
"139 277 OFFCURVE",
"69 243 OFFCURVE",
"69 136 CURVE SMOOTH",
"69 56 OFFCURVE",
"143 -7 OFFCURVE",
"237 -7 CURVE SMOOTH"
);
}
);
width = 554.82353;
},
{
anchors = (
{
name = bottom;
position = "{278, 0}";
},
{
name = ogonek;
position = "{486, 0}";
},
{
name = top;
position = "{283, 494}";
}
);
background = {
anchors = (
{
name = bottom;
position = "{278, 0}";
},
{
name = ogonek;
position = "{486, 0}";
},
{
name = top;
position = "{283, 494}";
}
);
paths = (
{
closed = 1;
nodes = (
"275 -9 OFFCURVE",
"322 30 OFFCURVE",
"330 90 CURVE",
"325 90 LINE",
"325 0 LINE",
"518 0 LINE",
"518 276 LINE SMOOTH",
"518 434 OFFCURVE",
"441 506 OFFCURVE",
"281 506 CURVE SMOOTH",
"200 506 OFFCURVE",
"101 479 OFFCURVE",
"42 444 CURVE",
"93 309 LINE",
"142 337 OFFCURVE",
"211 356 OFFCURVE",
"255 356 CURVE SMOOTH",
"305 356 OFFCURVE",
"322 346 OFFCURVE",
"322 306 CURVE SMOOTH",
"322 202 LINE SMOOTH",
"322 157 OFFCURVE",
"294 128 OFFCURVE",
"258 128 CURVE SMOOTH",
"234 128 OFFCURVE",
"219 146 OFFCURVE",
"219 169 CURVE SMOOTH",
"219 196 OFFCURVE",
"248 209 OFFCURVE",
"300 209 CURVE SMOOTH",
"341 209 LINE",
"341 300 LINE",
"294 300 LINE SMOOTH",
"99 300 OFFCURVE",
"22 260 OFFCURVE",
"22 155 CURVE SMOOTH",
"22 60 OFFCURVE",
"100 -9 OFFCURVE",
"205 -9 CURVE SMOOTH"
);
}
);
};
color = 11;
layerId = "4121B50C-FD42-45C5-8FBE-41E76D98F91E";
paths = (
{
closed = 1;
nodes = (
"275 -9 OFFCURVE",
"322 30 OFFCURVE",
"330 90 CURVE",
"325 90 LINE",
"325 0 LINE",
"518 0 LINE",
"518 276 LINE SMOOTH",
"518 434 OFFCURVE",
"441 506 OFFCURVE",
"281 506 CURVE SMOOTH",
"200 506 OFFCURVE",
"101 479 OFFCURVE",
"42 444 CURVE",
"93 305 LINE",
"142 333 OFFCURVE",
"211 352 OFFCURVE",
"255 352 CURVE SMOOTH",
"305 352 OFFCURVE",
"322 340 OFFCURVE",
"322 302 CURVE SMOOTH",
"322 197 LINE SMOOTH",
"322 155 OFFCURVE",
"294 128 OFFCURVE",
"258 128 CURVE SMOOTH",
"234 128 OFFCURVE",
"219 145 OFFCURVE",
"219 166 CURVE SMOOTH",
"219 192 OFFCURVE",
"248 204 OFFCURVE",
"300 204 CURVE SMOOTH",
"341 204 LINE",
"341 304 LINE",
"294 304 LINE SMOOTH",
"99 304 OFFCURVE",
"22 264 OFFCURVE",
"22 157 CURVE SMOOTH",
"22 61 OFFCURVE",
"100 -9 OFFCURVE",
"205 -9 CURVE SMOOTH"
);
}
);
width = 543.43137;
},
{
anchors = (
{
name = bottom;
position = "{278, 0}";
},
{
name = ogonek;
position = "{486, 0}";
},
{
name = top;
position = "{283, 494}";
}
);
associatedMasterId = "4121B50C-FD42-45C5-8FBE-41E76D98F91E";
background = {
anchors = (
{
name = bottom;
position = "{278, 0}";
},
{
name = ogonek;
position = "{486, 0}";
},
{
name = top;
position = "{283, 494}";
}
);
paths = (
{
closed = 1;
nodes = (
"275 -9 OFFCURVE",
"322 30 OFFCURVE",
"330 90 CURVE",
"325 90 LINE",
"325 0 LINE",
"518 0 LINE",
"518 276 LINE SMOOTH",
"518 434 OFFCURVE",
"441 506 OFFCURVE",
"281 506 CURVE SMOOTH",
"200 506 OFFCURVE",
"101 479 OFFCURVE",
"42 444 CURVE",
"93 309 LINE",
"142 337 OFFCURVE",
"211 356 OFFCURVE",
"255 356 CURVE SMOOTH",
"305 356 OFFCURVE",
"322 346 OFFCURVE",
"322 306 CURVE SMOOTH",
"322 202 LINE SMOOTH",
"322 157 OFFCURVE",
"294 128 OFFCURVE",
"258 128 CURVE SMOOTH",
"234 128 OFFCURVE",
"219 146 OFFCURVE",
"219 169 CURVE SMOOTH",
"219 196 OFFCURVE",
"248 209 OFFCURVE",
"300 209 CURVE SMOOTH",
"341 209 LINE",
"341 300 LINE",
"294 300 LINE SMOOTH",
"99 300 OFFCURVE",
"22 260 OFFCURVE",
"22 155 CURVE SMOOTH",
"22 60 OFFCURVE",
"100 -9 OFFCURVE",
"205 -9 CURVE SMOOTH"
);
}
);
};
color = 11;
layerId = "D200CD17-29E7-4DDF-9668-3D8B72725EE2";
name = "Bold [177]";
paths = (
{
closed = 1;
nodes = (
"275 -9 OFFCURVE",
"322 30 OFFCURVE",
"330 90 CURVE",
"325 90 LINE",
"325 0 LINE",
"518 0 LINE",
"518 276 LINE SMOOTH",
"518 434 OFFCURVE",
"441 506 OFFCURVE",
"281 506 CURVE SMOOTH",
"200 506 OFFCURVE",
"101 479 OFFCURVE",
"42 444 CURVE",
"93 309 LINE",
"142 338 OFFCURVE",
"211 356 OFFCURVE",
"255 356 CURVE SMOOTH",
"305 356 OFFCURVE",
"322 343 OFFCURVE",
"322 306 CURVE SMOOTH",
"322 202 LINE SMOOTH",
"322 157 OFFCURVE",
"294 128 OFFCURVE",
"258 128 CURVE SMOOTH",
"234 128 OFFCURVE",
"219 146 OFFCURVE",
"219 169 CURVE SMOOTH",
"219 196 OFFCURVE",
"248 209 OFFCURVE",
"300 209 CURVE SMOOTH",
"341 209 LINE",
"341 300 LINE",
"294 300 LINE SMOOTH",
"99 300 OFFCURVE",
"22 260 OFFCURVE",
"22 155 CURVE SMOOTH",
"22 60 OFFCURVE",
"100 -9 OFFCURVE",
"205 -9 CURVE SMOOTH"
);
}
);
width = 543.43137;
}
);
leftKerningGroup = a;
rightKerningGroup = n;
unicode = 0061;
userData = {
anchors = (
);
b = {
};
com.typemytype.robofont.layerData = {
b = {
anchors = (
);
components = (
);
contours = (
);
lib = {
};
name = a;
unicodes = (
);
width = 1040;
};
};
components = (
);
contours = (
);
lib = {
};
name = a;
unicodes = (
);
width = 1101;
};
},
{
color = 3;
glyphname = ae;
lastChange = "2019-07-02 09:25:23 +0000";
layers = (
{
anchors = (
{
name = bottom;
position = "{423, 0}";
},
{
name = top;
position = "{423, 484}";
}
);
background = {
anchors = (
{
name = bottom;
position = "{1323, 0}";
},
{
name = top;
position = "{1323, 484}";
}
);
paths = (
{
closed = 1;
nodes = (
"1716 238 LINE",
"1716 264 LINE SMOOTH",
"1716 410 OFFCURVE",
"1644 496 OFFCURVE",
"1523 496 CURVE SMOOTH",
"1427 496 OFFCURVE",
"1356 448 OFFCURVE",
"1323 363 CURVE",
"1343 360 LINE",
"1330 449 OFFCURVE",
"1274 496 OFFCURVE",
"1174 496 CURVE SMOOTH",
"1109 496 OFFCURVE",
"1038 474 OFFCURVE",
"989 438 CURVE",
"1009 402 LINE",
"1068 438 OFFCURVE",
"1120 455 OFFCURVE",
"1180 455 CURVE SMOOTH",
"1264 455 OFFCURVE",
"1300 413 OFFCURVE",
"1300 314 CURVE SMOOTH",
"1300 209 LINE SMOOTH",
"1300 106 OFFCURVE",
"1234 35 OFFCURVE",
"1142 35 CURVE SMOOTH",
"1069 35 OFFCURVE",
"1017 78 OFFCURVE",
"1017 140 CURVE SMOOTH",
"1017 218 OFFCURVE",
"1073 238 OFFCURVE",
"1281 238 CURVE SMOOTH",
"1311 238 LINE",
"1311 277 LINE",
"1280 277 LINE SMOOTH",
"1042 277 OFFCURVE",
"968 244 OFFCURVE",
"969 136 CURVE SMOOTH",
"970 54 OFFCURVE",
"1045 -7 OFFCURVE",
"1141 -7 CURVE SMOOTH",
"1243 -7 OFFCURVE",
"1312 58 OFFCURVE",
"1328 161 CURVE",
"1311 160 LINE",
"1337 51 OFFCURVE",
"1415 -7 OFFCURVE",
"1531 -7 CURVE SMOOTH",
"1599 -7 OFFCURVE",
"1668 19 OFFCURVE",
"1708 61 CURVE",
"1688 97 LINE",
"1636 53 OFFCURVE",
"1586 34 OFFCURVE",
"1527 34 CURVE SMOOTH",
"1409 34 OFFCURVE",
"1344 110 OFFCURVE",
"1344 244 CURVE SMOOTH",
"1344 377 OFFCURVE",
"1410 457 OFFCURVE",
"1519 457 CURVE SMOOTH",
"1624 457 OFFCURVE",
"1680 384 OFFCURVE",
"1676 253 CURVE",
"1693 277 LINE",
"1335 277 LINE",
"1335 238 LINE"
);
},
{
closed = 1;
nodes = (
"327 -7 OFFCURVE",
"391 42 OFFCURVE",
"412 122 CURVE",
"401 122 LINE",
"401 0 LINE",
"443 0 LINE",
"443 319 LINE SMOOTH",
"443 440 OFFCURVE",
"390 496 OFFCURVE",
"280 496 CURVE SMOOTH",
"215 496 OFFCURVE",
"145 474 OFFCURVE",
"94 438 CURVE",
"114 401 LINE",
"171 440 OFFCURVE",
"221 455 OFFCURVE",
"282 455 CURVE SMOOTH",
"364 455 OFFCURVE",
"400 413 OFFCURVE",
"400 319 CURVE SMOOTH",
"400 202 LINE SMOOTH",
"400 104 OFFCURVE",
"336 34 OFFCURVE",
"244 34 CURVE SMOOTH",
"171 34 OFFCURVE",
"122 78 OFFCURVE",
"122 140 CURVE SMOOTH",
"122 217 OFFCURVE",
"175 238 OFFCURVE",
"372 238 CURVE SMOOTH",
"411 238 LINE",
"411 277 LINE",
"370 277 LINE SMOOTH",
"144 277 OFFCURVE",
"74 243 OFFCURVE",
"74 136 CURVE SMOOTH",
"74 56 OFFCURVE",
"148 -7 OFFCURVE",
"242 -7 CURVE SMOOTH"
);
}
);
};
layerId = "F1F93986-3ED8-4AAE-84C4-CA3EEECDDFA0";
paths = (
{
closed = 1;
nodes = (
"816 238 LINE",
"816 264 LINE SMOOTH",
"816 410 OFFCURVE",
"744 496 OFFCURVE",
"623 496 CURVE SMOOTH",
"527 496 OFFCURVE",
"456 448 OFFCURVE",
"423 363 CURVE",
"443 360 LINE",
"430 449 OFFCURVE",
"374 496 OFFCURVE",
"274 496 CURVE SMOOTH",
"209 496 OFFCURVE",
"138 474 OFFCURVE",
"89 438 CURVE",
"109 402 LINE",
"168 438 OFFCURVE",
"220 455 OFFCURVE",
"280 455 CURVE SMOOTH",
"364 455 OFFCURVE",
"400 413 OFFCURVE",
"400 314 CURVE SMOOTH",
"400 209 LINE SMOOTH",
"400 106 OFFCURVE",
"334 35 OFFCURVE",
"242 35 CURVE SMOOTH",
"169 35 OFFCURVE",
"117 78 OFFCURVE",
"117 140 CURVE SMOOTH",
"117 218 OFFCURVE",
"173 238 OFFCURVE",
"381 238 CURVE SMOOTH",
"411 238 LINE",
"411 277 LINE",
"380 277 LINE SMOOTH",
"142 277 OFFCURVE",
"68 244 OFFCURVE",
"69 136 CURVE SMOOTH",
"71 54 OFFCURVE",
"145 -7 OFFCURVE",
"241 -7 CURVE SMOOTH",
"343 -7 OFFCURVE",
"412 58 OFFCURVE",
"428 161 CURVE",
"411 160 LINE",
"437 51 OFFCURVE",
"515 -7 OFFCURVE",
"631 -7 CURVE SMOOTH",
"699 -7 OFFCURVE",
"768 19 OFFCURVE",
"808 61 CURVE",
"788 97 LINE",
"736 53 OFFCURVE",
"686 34 OFFCURVE",
"627 34 CURVE SMOOTH",
"509 34 OFFCURVE",
"444 110 OFFCURVE",
"444 244 CURVE SMOOTH",
"444 377 OFFCURVE",
"510 457 OFFCURVE",
"619 457 CURVE SMOOTH",
"724 457 OFFCURVE",
"780 384 OFFCURVE",
"776 253 CURVE",
"793 277 LINE",
"435 277 LINE",
"435 238 LINE"
);
}
);
width = 865.94118;
},
{
anchors = (
{
name = bottom;
position = "{414, 0}";
},
{
name = top;
position = "{414, 494}";
}
);
background = {
paths = (
{
closed = 1;
nodes = (
"750 183 LINE",
"714 158 OFFCURVE",
"661 143 OFFCURVE",
"616 143 CURVE SMOOTH",
"544 143 OFFCURVE",
"515 171 OFFCURVE",
"515 257 CURVE SMOOTH",
"515 338 OFFCURVE",
"537 370 OFFCURVE",
"578 370 CURVE SMOOTH",
"614 370 OFFCURVE",
"632 345 OFFCURVE",
"634 289 CURVE",
"683 303 LINE",
"495 303 LINE",
"495 202 LINE",
"808 202 LINE",
"808 249 LINE SMOOTH",
"808 407 OFFCURVE",
"715 506 OFFCURVE",
"571 506 CURVE SMOOTH",
"425 506 OFFCURVE",
"319 400 OFFCURVE",
"319 249 CURVE SMOOTH",
"319 92 OFFCURVE",
"427 -9 OFFCURVE",
"605 -9 CURVE SMOOTH",
"674 -9 OFFCURVE",
"749 13 OFFCURVE",
"800 48 CURVE"
);
}
);
};
color = 11;
layerId = "4121B50C-FD42-45C5-8FBE-41E76D98F91E";
paths = (
{
closed = 1;
nodes = (
"801 202 LINE",
"801 249 LINE SMOOTH",
"801 407 OFFCURVE",
"715 506 OFFCURVE",
"581 506 CURVE SMOOTH",
"512 506 OFFCURVE",
"454 486 OFFCURVE",
"411 438 CURVE",
"452 439 LINE",
"414 488 OFFCURVE",
"358 506 OFFCURVE",
"276 506 CURVE SMOOTH",
"200 506 OFFCURVE",
"102 479 OFFCURVE",
"42 444 CURVE",
"93 305 LINE",
"142 333 OFFCURVE",
"198 352 OFFCURVE",
"250 352 CURVE SMOOTH",
"299 352 OFFCURVE",
"317 338 OFFCURVE",
"317 304 CURVE SMOOTH",
"317 195 LINE SMOOTH",
"317 159 OFFCURVE",
"295 128 OFFCURVE",
"262 128 CURVE SMOOTH",
"236 128 OFFCURVE",
"219 142 OFFCURVE",
"219 166 CURVE SMOOTH",
"219 191 OFFCURVE",
"247 204 OFFCURVE",
"301 204 CURVE SMOOTH",
"333 204 LINE",
"333 304 LINE",
"288 304 LINE SMOOTH",
"98 304 OFFCURVE",
"22 263 OFFCURVE",
"22 157 CURVE SMOOTH",
"22 60 OFFCURVE",
"109 -9 OFFCURVE",
"228 -9 CURVE SMOOTH",
"315 -9 OFFCURVE",
"381 29 OFFCURVE",
"410 103 CURVE",
"382 99 LINE",
"425 28 OFFCURVE",
"506 -9 OFFCURVE",
"612 -9 CURVE SMOOTH",
"676 -9 OFFCURVE",
"746 13 OFFCURVE",
"793 48 CURVE",
"743 183 LINE",
"708 158 OFFCURVE",
"659 143 OFFCURVE",
"614 143 CURVE SMOOTH",
"546 143 OFFCURVE",
"515 171 OFFCURVE",
"515 272 CURVE SMOOTH",
"515 338 OFFCURVE",
"533 370 OFFCURVE",
"574 370 CURVE SMOOTH",
"610 370 OFFCURVE",
"627 345 OFFCURVE",
"629 289 CURVE",
"676 303 LINE",
"505 303 LINE",
"505 202 LINE"
);
}
);
width = 825.2549;
},
{
anchors = (
{
name = bottom;
position = "{414, 0}";
},
{
name = top;
position = "{414, 494}";
}
);
associatedMasterId = "4121B50C-FD42-45C5-8FBE-41E76D98F91E";
background = {
anchors = (
{
name = bottom;
position = "{414, 0}";
},
{
name = top;
position = "{414, 494}";
}
);
paths = (
{
closed = 1;
nodes = (
"270 -9 OFFCURVE",
"317 30 OFFCURVE",
"325 90 CURVE",
"320 90 LINE",
"320 0 LINE",
"513 0 LINE",
"513 276 LINE SMOOTH",
"513 434 OFFCURVE",
"436 506 OFFCURVE",
"276 506 CURVE SMOOTH",
"195 506 OFFCURVE",
"96 479 OFFCURVE",
"37 444 CURVE",
"88 309 LINE",
"137 338 OFFCURVE",
"206 356 OFFCURVE",
"250 356 CURVE SMOOTH",
"300 356 OFFCURVE",
"317 343 OFFCURVE",
"317 306 CURVE SMOOTH",
"317 202 LINE SMOOTH",
"317 157 OFFCURVE",
"289 128 OFFCURVE",
"253 128 CURVE SMOOTH",
"229 128 OFFCURVE",
"214 146 OFFCURVE",
"214 169 CURVE SMOOTH",
"214 196 OFFCURVE",
"243 209 OFFCURVE",
"295 209 CURVE SMOOTH",
"336 209 LINE",
"336 300 LINE",
"289 300 LINE SMOOTH",
"94 300 OFFCURVE",
"17 260 OFFCURVE",
"17 155 CURVE SMOOTH",
"17 60 OFFCURVE",
"95 -9 OFFCURVE",
"200 -9 CURVE SMOOTH"
);
}
);
};
color = 11;
layerId = "FEBA298E-5D66-484A-843B-B9E14629DD9D";
name = "Bold [177]";
paths = (
{
closed = 1;
nodes = (
"801 209 LINE",
"801 249 LINE SMOOTH",
"801 407 OFFCURVE",
"715 506 OFFCURVE",
"581 506 CURVE SMOOTH",
"512 506 OFFCURVE",
"454 486 OFFCURVE",
"411 438 CURVE",
"452 439 LINE",
"414 488 OFFCURVE",
"358 506 OFFCURVE",
"276 506 CURVE SMOOTH",
"200 506 OFFCURVE",
"102 479 OFFCURVE",
"42 444 CURVE",
"93 309 LINE",
"142 337 OFFCURVE",
"210 356 OFFCURVE",
"254 356 CURVE SMOOTH",
"303 356 OFFCURVE",
"317 342 OFFCURVE",
"317 308 CURVE SMOOTH",
"317 199 LINE SMOOTH",
"317 161 OFFCURVE",
"295 128 OFFCURVE",
"262 128 CURVE SMOOTH",
"236 128 OFFCURVE",
"219 143 OFFCURVE",
"219 169 CURVE SMOOTH",
"219 195 OFFCURVE",
"247 209 OFFCURVE",
"301 209 CURVE SMOOTH",
"333 209 LINE",
"333 300 LINE",
"288 300 LINE SMOOTH",
"98 300 OFFCURVE",
"23 260 OFFCURVE",
"22 155 CURVE SMOOTH",
"22 59 OFFCURVE",
"109 -9 OFFCURVE",
"228 -9 CURVE SMOOTH",
"315 -9 OFFCURVE",
"381 29 OFFCURVE",
"410 103 CURVE",
"382 99 LINE",
"425 28 OFFCURVE",
"506 -9 OFFCURVE",
"612 -9 CURVE SMOOTH",
"676 -9 OFFCURVE",
"746 13 OFFCURVE",
"793 48 CURVE",
"743 183 LINE",
"708 158 OFFCURVE",
"657 142 OFFCURVE",
"622 142 CURVE SMOOTH",
"543 142 OFFCURVE",
"514 171 OFFCURVE",
"514 257 CURVE SMOOTH",
"514 339 OFFCURVE",
"533 372 OFFCURVE",
"574 372 CURVE SMOOTH",
"610 372 OFFCURVE",
"627 346 OFFCURVE",
"629 290 CURVE",
"676 300 LINE",
"505 300 LINE",
"505 209 LINE"
);
}
);
width = 825.2549;
}
);
leftKerningGroup = a;
leftMetricsKey = a;
rightKerningGroup = e;
rightMetricsKey = e;
unicode = 00E6;
userData = {
com.typemytype.robofont.layerData = {
b = {
anchors = (
);
components = (
);
contours = (
);
lib = {
};
name = ae;
unicodes = (
);
width = 1734;
};
};
};
},
{
color = 3;
glyphname = a.ss01;
lastChange = "2019-07-02 10:54:42 +0000";
layers = (
{
anchors = (
{
name = bottom;
position = "{284, 0}";
},
{
name = ogonek;
position = "{479, 10}";
},
{
name = top;
position = "{284, 484}";
}
);
background = {
anchors = (
{
name = bottom;
position = "{284, 0}";
},
{
name = ogonek;
position = "{479, 10}";
},
{
name = top;
position = "{284, 484}";
}
);
paths = (
{
closed = 1;
nodes = (
"362 -7 OFFCURVE",
"427 42 OFFCURVE",
"449 131 CURVE",
"438 139 LINE",
"438 0 LINE",
"480 0 LINE",
"480 484 LINE",
"438 484 LINE",
"438 351 LINE",
"449 360 LINE",
"427 447 OFFCURVE",
"362 496 OFFCURVE",
"268 496 CURVE SMOOTH",
"139 496 OFFCURVE",
"52 396 OFFCURVE",
"52 243 CURVE SMOOTH",
"52 91 OFFCURVE",
"138 -7 OFFCURVE",
"268 -7 CURVE SMOOTH"
);
},
{
closed = 1;
nodes = (
"161 34 OFFCURVE",
"97 110 OFFCURVE",
"97 243 CURVE SMOOTH",
"97 376 OFFCURVE",
"161 455 OFFCURVE",
"268 455 CURVE SMOOTH",
"377 455 OFFCURVE",
"438 380 OFFCURVE",
"438 245 CURVE SMOOTH",
"438 111 OFFCURVE",
"377 34 OFFCURVE",
"269 34 CURVE SMOOTH"
);
}
);
};
layerId = "F1F93986-3ED8-4AAE-84C4-CA3EEECDDFA0";
paths = (
{
closed = 1;
nodes = (
"362 -7 OFFCURVE",
"427 42 OFFCURVE",
"449 131 CURVE",
"438 139 LINE",
"438 0 LINE",
"480 0 LINE",
"480 484 LINE",
"438 484 LINE",
"438 351 LINE",
"449 360 LINE",
"427 447 OFFCURVE",
"362 496 OFFCURVE",
"268 496 CURVE SMOOTH",
"138 496 OFFCURVE",
"52 395 OFFCURVE",
"52 243 CURVE SMOOTH",
"52 92 OFFCURVE",
"137 -7 OFFCURVE",
"268 -7 CURVE SMOOTH"
);
},
{
closed = 1;
nodes = (
"160 34 OFFCURVE",
"97 111 OFFCURVE",
"97 243 CURVE SMOOTH",
"97 376 OFFCURVE",
"161 455 OFFCURVE",
"268 455 CURVE SMOOTH",
"377 455 OFFCURVE",
"438 380 OFFCURVE",
"438 245 CURVE SMOOTH",
"438 111 OFFCURVE",
"377 34 OFFCURVE",
"269 34 CURVE SMOOTH"
);
}
);
width = 564.70588;
},
{
anchors = (
{
name = bottom;
position = "{318, 0}";
},
{
name = ogonek;
position = "{556, 10}";
},
{
name = top;
position = "{318, 494}";
}
);
background = {
anchors = (
{
name = bottom;
position = "{318, 0}";
},
{
name = ogonek;
position = "{556, 10}";
},
{
name = top;
position = "{318, 494}";
}
);
paths = (
{
closed = 1;
nodes = (
"313 -9 OFFCURVE",
"378 27 OFFCURVE",
"400 80 CURVE",
"389 79 LINE",
"389 0 LINE",
"594 0 LINE",
"594 494 LINE",
"389 494 LINE",
"389 409 LINE",
"400 417 LINE",
"378 470 OFFCURVE",
"313 506 OFFCURVE",
"242 506 CURVE SMOOTH",
"116 506 OFFCURVE",
"24 401 OFFCURVE",
"24 246 CURVE SMOOTH",
"24 91 OFFCURVE",
"115 -9 OFFCURVE",
"242 -9 CURVE SMOOTH"
);
},
{
closed = 1;
nodes = (
"257 145 OFFCURVE",
"229 180 OFFCURVE",
"229 246 CURVE SMOOTH",
"229 315 OFFCURVE",
"259 353 OFFCURVE",
"309 353 CURVE SMOOTH",
"359 353 OFFCURVE",
"389 316 OFFCURVE",
"389 248 CURVE SMOOTH",
"389 181 OFFCURVE",
"359 145 OFFCURVE",
"308 145 CURVE SMOOTH"
);
}
);
};
layerId = "4121B50C-FD42-45C5-8FBE-41E76D98F91E";
paths = (
{
closed = 1;
nodes = (
"314 -9 OFFCURVE",
"378 27 OFFCURVE",
"400 80 CURVE",
"389 79 LINE",
"389 0 LINE",
"594 0 LINE",
"594 494 LINE",
"389 494 LINE",
"389 409 LINE",
"400 417 LINE",
"378 470 OFFCURVE",
"314 506 OFFCURVE",
"242 506 CURVE SMOOTH",
"114 506 OFFCURVE",
"24 399 OFFCURVE",
"24 246 CURVE SMOOTH",
"24 94 OFFCURVE",
"112 -9 OFFCURVE",
"242 -9 CURVE SMOOTH"
);
},
{
closed = 1;
nodes = (
"257 145 OFFCURVE",
"229 180 OFFCURVE",
"229 246 CURVE SMOOTH",
"229 314 OFFCURVE",
"258 353 OFFCURVE",
"309 353 CURVE SMOOTH",
"360 353 OFFCURVE",
"389 315 OFFCURVE",
"389 248 CURVE SMOOTH",
"389 182 OFFCURVE",
"360 145 OFFCURVE",
"308 145 CURVE SMOOTH"
);
}
);
width = 637.94118;
}
);
leftKerningGroup = o;
leftMetricsKey = o;
rightKerningGroup = u;
rightMetricsKey = "=|n";
userData = {
anchors = (
);
b = {
};
com.typemytype.robofont.layerData = {
b = {
anchors = (
);
components = (
);
contours = (
);
lib = {
};
name = p;
unicodes = (
);
width = 1181;
};
};
components = (
);
contours = (
);
lib = {
};
name = p;
unicodes = (
);
width = 1207;
};
},
{
color = 3;
glyphname = b;
lastChange = "2019-07-02 10:54:42 +0000";
layers = (
{
anchors = (
{
name = bottom;
position = "{308, 0}";
},
{
name = top;
position = "{365, 484}";
}
);
background = {
anchors = (
{
name = bottom;
position = "{308, 0}";
},
{
name = top;
position = "{365, 484}";
}
);
paths = (
{
closed = 1;
nodes = (
"204 496 OFFCURVE",
"139 448 OFFCURVE",
"116 361 CURVE",
"127 346 LINE",
"127 705 LINE",
"85 705 LINE",
"85 0 LINE",
"127 0 LINE",
"127 143 LINE",
"116 128 LINE",
"140 41 OFFCURVE",
"204 -7 OFFCURVE",
"297 -7 CURVE SMOOTH",
"426 -7 OFFCURVE",
"513 94 OFFCURVE",
"513 247 CURVE SMOOTH",
"513 398 OFFCURVE",
"427 496 OFFCURVE",
"297 496 CURVE SMOOTH"
);
},
{
closed = 1;
nodes = (
"187 34 OFFCURVE",
"127 111 OFFCURVE",
"127 245 CURVE SMOOTH",
"127 378 OFFCURVE",
"187 455 OFFCURVE",
"296 455 CURVE SMOOTH",
"404 455 OFFCURVE",
"467 379 OFFCURVE",
"467 247 CURVE SMOOTH",
"467 113 OFFCURVE",
"404 34 OFFCURVE",
"297 34 CURVE SMOOTH"
);
}
);
};
layerId = "F1F93986-3ED8-4AAE-84C4-CA3EEECDDFA0";
paths = (
{
closed = 1;
nodes = (
"204 496 OFFCURVE",
"139 448 OFFCURVE",
"116 361 CURVE",
"127 346 LINE",
"127 705 LINE",
"85 705 LINE",
"85 0 LINE",
"127 0 LINE",
"127 143 LINE",
"116 128 LINE",
"140 41 OFFCURVE",
"204 -7 OFFCURVE",
"297 -7 CURVE SMOOTH",
"426 -7 OFFCURVE",
"513 94 OFFCURVE",
"513 247 CURVE SMOOTH",
"513 398 OFFCURVE",
"427 496 OFFCURVE",
"297 496 CURVE SMOOTH"
);
},
{
closed = 1;
nodes = (
"187 34 OFFCURVE",
"127 111 OFFCURVE",
"127 245 CURVE SMOOTH",
"127 378 OFFCURVE",
"187 455 OFFCURVE",
"296 455 CURVE SMOOTH",
"404 455 OFFCURVE",
"467 379 OFFCURVE",
"467 247 CURVE SMOOTH",
"467 113 OFFCURVE",
"404 34 OFFCURVE",
"297 34 CURVE SMOOTH"
);
}
);
width = 564.70588;
},
{
anchors = (
{
name = bottom;
position = "{308, 0}";
},
{
name = top;
position = "{365, 494}";
}
);
background = {
anchors = (
{
name = bottom;
position = "{308, 0}";
},
{
name = top;
position = "{365, 494}";
}
);
paths = (
{
closed = 1;
nodes = (
"326 506 OFFCURVE",
"261 470 OFFCURVE",
"240 421 CURVE",
"252 398 LINE",
"252 705 LINE",
"44 705 LINE",
"44 0 LINE",
"249 0 LINE",
"249 104 LINE",
"238 83 LINE",
"257 29 OFFCURVE",
"323 -9 OFFCURVE",
"396 -9 CURVE SMOOTH",
"522 -9 OFFCURVE",
"614 97 OFFCURVE",
"614 252 CURVE SMOOTH",
"614 407 OFFCURVE",
"523 506 OFFCURVE",
"396 506 CURVE SMOOTH"
);
},
{
closed = 1;
nodes = (
"279 145 OFFCURVE",
"249 181 OFFCURVE",
"249 250 CURVE SMOOTH",
"249 317 OFFCURVE",
"279 353 OFFCURVE",
"330 353 CURVE SMOOTH",
"381 353 OFFCURVE",
"409 318 OFFCURVE",
"409 252 CURVE SMOOTH",
"409 183 OFFCURVE",
"379 145 OFFCURVE",
"329 145 CURVE SMOOTH"
);
}
);
};
layerId = "4121B50C-FD42-45C5-8FBE-41E76D98F91E";
paths = (
{
closed = 1;
nodes = (
"326 506 OFFCURVE",
"261 470 OFFCURVE",
"240 421 CURVE",
"252 398 LINE",
"252 705 LINE",
"44 705 LINE",
"44 0 LINE",
"249 0 LINE",
"249 104 LINE",
"238 83 LINE",
"257 29 OFFCURVE",
"323 -9 OFFCURVE",
"396 -9 CURVE SMOOTH",
"522 -9 OFFCURVE",
"614 97 OFFCURVE",
"614 252 CURVE SMOOTH",
"614 407 OFFCURVE",
"523 506 OFFCURVE",
"396 506 CURVE SMOOTH"
);
},
{
closed = 1;
nodes = (
"279 145 OFFCURVE",
"249 181 OFFCURVE",
"249 250 CURVE SMOOTH",
"249 317 OFFCURVE",
"279 353 OFFCURVE",
"330 353 CURVE SMOOTH",
"381 353 OFFCURVE",
"409 318 OFFCURVE",
"409 252 CURVE SMOOTH",
"409 183 OFFCURVE",
"379 145 OFFCURVE",
"329 145 CURVE SMOOTH"
);
}
);
width = 637.94118;
}
);
leftKerningGroup = h;
leftMetricsKey = n;
rightKerningGroup = o;
rightMetricsKey = o;
unicode = 0062;
userData = {
anchors = (
);
b = {
};
com.typemytype.robofont.layerData = {
b = {
anchors = (
);
components = (
);
contours = (
{
points = (
{
segmentType = curve;
smooth = 1;
x = 238;
y = 1425;
},
{
smooth = 0;
x = 198;
y = 1425;
},
{
smooth = 0;
x = 158;
y = 1400;
},
{
segmentType = curve;
smooth = 1;
x = 158;
y = 1351;
},
{
segmentType = line;
smooth = 1;
x = 158;
y = 76;
},
{
smooth = 0;
x = 158;
y = 27;
},
{
smooth = 0;
x = 197;
y = 3;
},
{
segmentType = curve;
smooth = 1;
x = 237;
y = 3;
},
{
smooth = 0;
x = 297;
y = 3;
},
{
smooth = 0;
x = 318;
y = 38;
},
{
segmentType = curve;
smooth = 1;
x = 318;
y = 76;
},
{
segmentType = line;
smooth = 0;
x = 318;
y = 183;
},
{
smooth = 0;
x = 384;
y = 46;
},
{
smooth = 0;
x = 516;
y = "-20";
},
{
segmentType = curve;
smooth = 1;
x = 666;
y = "-20";
},
{
smooth = 0;
x = 957;
y = "-20";
},
{
smooth = 0;
x = 1095;
y = 225;
},
{
segmentType = curve;
smooth = 1;
x = 1095;
y = 502;
},
{
smooth = 0;
x = 1095;
y = 777;
},
{
smooth = 0;
x = 939;
y = 1013;
},
{
segmentType = curve;
smooth = 1;
x = 650;
y = 1013;
},
{
smooth = 0;
x = 503;
y = 1013;
},
{
smooth = 0;
x = 376;
y = 942;
},
{
segmentType = curve;
smooth = 0;
x = 318;
y = 814;
},
{
segmentType = line;
smooth = 1;
x = 318;
y = 1351;
},
{
smooth = 0;
x = 318;
y = 1400;
},
{
smooth = 0;
x = 278;
y = 1425;
}
);
},
{
points = (
{
segmentType = curve;
smooth = 1;
x = 632;
y = 903;
},
{
smooth = 0;
x = 859;
y = 903;
},
{
smooth = 0;
x = 935;
y = 685;
},
{
segmentType = curve;
smooth = 1;
x = 935;
y = 496;
},
{
smooth = 0;
x = 935;
y = 316;
},
{
smooth = 0;
x = 869;
y = 93;
},
{
segmentType = curve;
smooth = 0;
x = 645;
y = 90;
},
{
smooth = 0;
x = 395;
y = 90;
},
{
smooth = 0;
x = 319;
y = 279;
},
{
segmentType = curve;
smooth = 1;
x = 319;
y = 501;
},
{
smooth = 0;
x = 319;
y = 701;
},
{
smooth = 0;
x = 407;
y = 903;
}
);
}
);
lib = {
};
name = b;
unicodes = (
);
width = 1181;
};
};
components = (
);
contours = (
);
lib = {
};
name = b;
unicodes = (
);
width = 1203;
};
},
{
color = 3;
glyphname = c;
lastChange = "2019-07-02 10:54:42 +0000";
layers = (
{
anchors = (
{
name = bottom;
position = "{271, 0}";
},
{
name = top;
position = "{273, 484}";
}
);
background = {
anchors = (
{
name = bottom;
position = "{271, 0}";
},
{
name = top;
position = "{273, 484}";
}
);
paths = (
{
closed = 1;
nodes = (
"337 -7 OFFCURVE",
"401 18 OFFCURVE",
"440 59 CURVE",
"420 94 LINE",
"371 51 OFFCURVE",
"326 34 OFFCURVE",
"275 34 CURVE SMOOTH",
"164 34 OFFCURVE",
"97 111 OFFCURVE",
"97 242 CURVE SMOOTH",
"97 375 OFFCURVE",
"165 456 OFFCURVE",
"276 456 CURVE SMOOTH",
"326 456 OFFCURVE",
"372 439 OFFCURVE",
"420 395 CURVE",
"440 431 LINE",
"403 471 OFFCURVE",
"340 496 OFFCURVE",
"275 496 CURVE SMOOTH",
"139 496 OFFCURVE",
"52 394 OFFCURVE",
"52 243 CURVE SMOOTH",
"52 93 OFFCURVE",
"139 -7 OFFCURVE",
"274 -7 CURVE SMOOTH"
);
}
);
};
layerId = "F1F93986-3ED8-4AAE-84C4-CA3EEECDDFA0";
paths = (
{
closed = 1;
nodes = (
"337 -7 OFFCURVE",
"401 18 OFFCURVE",
"440 59 CURVE",
"420 94 LINE",
"373 51 OFFCURVE",
"326 34 OFFCURVE",
"275 34 CURVE SMOOTH",
"164 34 OFFCURVE",
"97 111 OFFCURVE",
"97 242 CURVE SMOOTH",
"97 375 OFFCURVE",
"165 455 OFFCURVE",
"276 455 CURVE SMOOTH",
"326 455 OFFCURVE",
"374 439 OFFCURVE",
"420 395 CURVE",
"440 431 LINE",
"403 471 OFFCURVE",
"340 496 OFFCURVE",
"275 496 CURVE SMOOTH",
"139 496 OFFCURVE",
"52 394 OFFCURVE",
"52 243 CURVE SMOOTH",
"52 93 OFFCURVE",
"139 -7 OFFCURVE",
"274 -7 CURVE SMOOTH"
);
}
);
width = 470.41176;
},
{
anchors = (
{
name = bottom;
position = "{293, 0}";
},
{
name = top;
position = "{305, 494}";
}
);
background = {
anchors = (
{
name = bottom;
position = "{293, 0}";
},
{
name = top;
position = "{305, 494}";
}
);
paths = (
{
closed = 1;
nodes = (
"384 -9 OFFCURVE",
"461 13 OFFCURVE",
"507 49 CURVE",
"456 189 LINE",
"425 165 OFFCURVE",
"373 146 OFFCURVE",
"333 146 CURVE SMOOTH",
"272 146 OFFCURVE",
"237 178 OFFCURVE",
"237 251 CURVE SMOOTH",
"237 323 OFFCURVE",
"273 351 OFFCURVE",
"333 351 CURVE SMOOTH",
"373 351 OFFCURVE",
"424 333 OFFCURVE",
"456 309 CURVE",
"507 449 LINE",
"463 484 OFFCURVE",
"385 506 OFFCURVE",
"311 506 CURVE SMOOTH",
"139 506 OFFCURVE",
"24 403 OFFCURVE",
"24 246 CURVE SMOOTH",
"24 88 OFFCURVE",
"127 -9 OFFCURVE",
"302 -9 CURVE SMOOTH"
);
}
);
};
layerId = "4121B50C-FD42-45C5-8FBE-41E76D98F91E";
paths = (
{
closed = 1;
nodes = (
"384 -9 OFFCURVE",
"461 13 OFFCURVE",
"507 49 CURVE",
"456 189 LINE",
"424 164 OFFCURVE",
"372 146 OFFCURVE",
"333 146 CURVE SMOOTH",
"269 146 OFFCURVE",
"237 181 OFFCURVE",
"237 251 CURVE SMOOTH",
"237 318 OFFCURVE",
"268 351 OFFCURVE",
"333 351 CURVE SMOOTH",
"373 351 OFFCURVE",
"423 334 OFFCURVE",
"456 309 CURVE",
"507 449 LINE",
"464 483 OFFCURVE",
"385 506 OFFCURVE",
"311 506 CURVE SMOOTH",
"138 506 OFFCURVE",
"24 402 OFFCURVE",
"24 246 CURVE SMOOTH",
"24 87 OFFCURVE",
"128 -9 OFFCURVE",
"302 -9 CURVE SMOOTH"
);
}
);
width = 506.21569;
}
);
leftKerningGroup = o;
rightKerningGroup = c;
unicode = 0063;
userData = {
anchors = (
);
b = {
};
com.typemytype.robofont.layerData = {
b = {
anchors = (
);
components = (
);
contours = (
);
lib = {
};
name = c;
unicodes = (
);
width = 956.14099;
};
};
components = (
);
contours = (
);
lib = {
};
name = c;
unicodes = (
);
width = 992;
};
},
{
color = 3;
glyphname = d;
lastChange = "2019-07-09 10:59:43 +0000";
layers = (
{
anchors = (
{
name = bottom;
position = "{285, 0}";
},
{
name = center;
position = "{285, 245}";
},
{
name = stroke;
position = "{408, 580}";
},
{
name = top;
position = "{285, 484}";
},
{
name = topright;
position = "{517, 705}";
}
);
background = {
anchors = (
{
name = bottom;
position = "{285, 0}";
},
{
name = center;
position = "{285, 245}";
},
{
name = stroke;
position = "{408, 580}";
},
{
name = top;
position = "{285, 484}";
},
{
name = topright;
position = "{517, 705}";
}
);
paths = (
{
closed = 1;
nodes = (
"438 346 LINE",
"449 361 LINE",
"426 448 OFFCURVE",
"361 496 OFFCURVE",
"268 496 CURVE SMOOTH",
"138 496 OFFCURVE",
"52 398 OFFCURVE",
"52 247 CURVE SMOOTH",
"52 94 OFFCURVE",
"139 -7 OFFCURVE",
"268 -7 CURVE SMOOTH",
"360 -7 OFFCURVE",
"425 41 OFFCURVE",
"449 128 CURVE",
"438 143 LINE",
"438 0 LINE",
"480 0 LINE",
"480 705 LINE",
"438 705 LINE"
);
},
{
closed = 1;
nodes = (
"161 34 OFFCURVE",
"97 113 OFFCURVE",
"97 247 CURVE SMOOTH",
"97 379 OFFCURVE",
"161 455 OFFCURVE",
"269 455 CURVE SMOOTH",
"377 455 OFFCURVE",
"438 378 OFFCURVE",
"438 245 CURVE SMOOTH",
"438 111 OFFCURVE",
"377 34 OFFCURVE",
"268 34 CURVE SMOOTH"
);
}
);
};
layerId = "F1F93986-3ED8-4AAE-84C4-CA3EEECDDFA0";
paths = (
{
closed = 1;
nodes = (
"438 346 LINE",
"449 361 LINE",
"426 448 OFFCURVE",
"361 496 OFFCURVE",
"268 496 CURVE SMOOTH",
"138 496 OFFCURVE",
"52 398 OFFCURVE",
"52 247 CURVE SMOOTH",
"52 94 OFFCURVE",
"139 -7 OFFCURVE",
"268 -7 CURVE SMOOTH",
"360 -7 OFFCURVE",
"425 41 OFFCURVE",
"449 128 CURVE",
"438 143 LINE",
"438 0 LINE",
"480 0 LINE",
"480 705 LINE",
"438 705 LINE"
);
},
{
closed = 1;
nodes = (
"161 34 OFFCURVE",
"97 113 OFFCURVE",
"97 247 CURVE SMOOTH",
"97 379 OFFCURVE",
"161 455 OFFCURVE",
"269 455 CURVE SMOOTH",
"377 455 OFFCURVE",
"438 378 OFFCURVE",
"438 245 CURVE SMOOTH",
"438 111 OFFCURVE",
"377 34 OFFCURVE",
"268 34 CURVE SMOOTH"
);
}
);
width = 564.70588;
},
{
anchors = (
{
name = bottom;
position = "{319, 0}";
},
{
name = center;
position = "{319, 250}";
},
{
name = stroke;
position = "{440, 595}";
},
{
name = top;
position = "{319, 494}";
},
{
name = topright;
position = "{624, 705}";
}
);
background = {
anchors = (
{
name = bottom;
position = "{319, 0}";
},
{
name = center;
position = "{319, 250}";
},
{
name = stroke;
position = "{440, 595}";
},
{
name = top;
position = "{319, 494}";
},
{
name = topright;
position = "{613, 705}";
}
);
paths = (
{
closed = 1;
nodes = (
"386 398 LINE",
"398 421 LINE",
"377 470 OFFCURVE",
"312 506 OFFCURVE",
"242 506 CURVE SMOOTH",
"115 506 OFFCURVE",
"24 407 OFFCURVE",
"24 252 CURVE SMOOTH",
"24 97 OFFCURVE",
"116 -9 OFFCURVE",
"242 -9 CURVE SMOOTH",
"315 -9 OFFCURVE",
"381 29 OFFCURVE",
"400 83 CURVE",
"389 104 LINE",
"389 0 LINE",
"594 0 LINE",
"594 705 LINE",
"386 705 LINE"
);
},
{
closed = 1;
nodes = (
"259 145 OFFCURVE",
"229 183 OFFCURVE",
"229 252 CURVE SMOOTH",
"229 318 OFFCURVE",
"257 353 OFFCURVE",
"308 353 CURVE SMOOTH",
"359 353 OFFCURVE",
"389 317 OFFCURVE",
"389 250 CURVE SMOOTH",
"389 181 OFFCURVE",
"359 145 OFFCURVE",
"309 145 CURVE SMOOTH"
);
}
);
};
layerId = "4121B50C-FD42-45C5-8FBE-41E76D98F91E";
paths = (
{
closed = 1;
nodes = (
"386 398 LINE",
"398 421 LINE",
"377 470 OFFCURVE",
"312 506 OFFCURVE",
"242 506 CURVE SMOOTH",
"115 506 OFFCURVE",
"24 407 OFFCURVE",
"24 252 CURVE SMOOTH",
"24 97 OFFCURVE",
"116 -9 OFFCURVE",
"242 -9 CURVE SMOOTH",
"315 -9 OFFCURVE",
"381 29 OFFCURVE",
"400 83 CURVE",
"389 104 LINE",
"389 0 LINE",
"594 0 LINE",
"594 705 LINE",
"386 705 LINE"
);
},
{
closed = 1;
nodes = (
"259 145 OFFCURVE",
"229 183 OFFCURVE",
"229 252 CURVE SMOOTH",
"229 318 OFFCURVE",
"257 353 OFFCURVE",
"308 353 CURVE SMOOTH",
"359 353 OFFCURVE",
"389 317 OFFCURVE",
"389 250 CURVE SMOOTH",
"389 181 OFFCURVE",
"359 145 OFFCURVE",
"309 145 CURVE SMOOTH"
);
}
);
width = 637.94118;
}
);
leftKerningGroup = o;
leftMetricsKey = o;
rightKerningGroup = l;
rightMetricsKey = "=|n";
unicode = 0064;
userData = {
anchors = (
);
b = {
};
com.typemytype.robofont.layerData = {
b = {
anchors = (
);
components = (
);
contours = (
);
lib = {
};
name = d;
unicodes = (
);
width = 1181;
};
};
components = (
);
contours = (
);
lib = {
};
name = d;
unicodes = (
);
width = 1207;
};
},
{
color = 3;
glyphname = eth;
lastChange = "2019-07-02 10:54:42 +0000";
layers = (
{
background = {
paths = (
{
closed = 1;
nodes = (
"412 -7 OFFCURVE",
"487 91 OFFCURVE",
"487 282 CURVE SMOOTH",
"487 504 OFFCURVE",
"379 644 OFFCURVE",
"174 710 CURVE",
"162 675 LINE",
"351 616 OFFCURVE",
"447 481 OFFCURVE",
"445 287 CURVE",
"469 285 LINE",
"447 395 OFFCURVE",
"379 455 OFFCURVE",
"271 455 CURVE SMOOTH",
"139 455 OFFCURVE",
"52 364 OFFCURVE",
"52 224 CURVE SMOOTH",
"52 84 OFFCURVE",
"137 -7 OFFCURVE",
"268 -7 CURVE SMOOTH"
);
},
{
closed = 1;
nodes = (
"159 34 OFFCURVE",
"97 102 OFFCURVE",
"97 224 CURVE SMOOTH",
"97 343 OFFCURVE",
"161 414 OFFCURVE",
"268 414 CURVE SMOOTH",
"375 414 OFFCURVE",
"439 343 OFFCURVE",
"439 224 CURVE SMOOTH",
"439 105 OFFCURVE",
"374 34 OFFCURVE",
"267 34 CURVE SMOOTH"
);
},
{
closed = 1;
nodes = (
"485 638 LINE",
"471 675 LINE",
"169 548 LINE",
"184 512 LINE"
);
}
);
};
layerId = "F1F93986-3ED8-4AAE-84C4-CA3EEECDDFA0";
paths = (
{
closed = 1;
nodes = (
"412 -7 OFFCURVE",
"487 91 OFFCURVE",
"487 282 CURVE SMOOTH",
"487 504 OFFCURVE",
"379 644 OFFCURVE",
"174 710 CURVE",
"162 675 LINE",
"351 616 OFFCURVE",
"447 481 OFFCURVE",
"445 287 CURVE",
"469 285 LINE",
"447 395 OFFCURVE",
"379 455 OFFCURVE",
"271 455 CURVE SMOOTH",
"139 455 OFFCURVE",
"52 364 OFFCURVE",
"52 224 CURVE SMOOTH",
"52 84 OFFCURVE",
"137 -7 OFFCURVE",
"268 -7 CURVE SMOOTH"
);
},
{
closed = 1;
nodes = (
"159 34 OFFCURVE",
"97 102 OFFCURVE",
"97 224 CURVE SMOOTH",
"97 343 OFFCURVE",
"161 414 OFFCURVE",
"268 414 CURVE SMOOTH",
"375 414 OFFCURVE",
"439 343 OFFCURVE",
"439 224 CURVE SMOOTH",
"439 105 OFFCURVE",
"374 34 OFFCURVE",
"267 34 CURVE SMOOTH"
);
},
{
closed = 1;
nodes = (
"485 638 LINE",
"471 675 LINE",
"169 548 LINE",
"184 512 LINE"
);
}
);
width = 538.88235;
},
{
background = {
paths = (
{
closed = 1;
nodes = (
"489 -9 OFFCURVE",
"599 109 OFFCURVE",
"599 305 CURVE SMOOTH",
"599 473 OFFCURVE",
"456 699 OFFCURVE",
"184 719 CURVE",
"140 580 LINE",
"271 578 OFFCURVE",
"405 483 OFFCURVE",
"406 344 CURVE",
"454 337 LINE",
"428 418 OFFCURVE",
"370 455 OFFCURVE",
"276 455 CURVE SMOOTH",
"130 455 OFFCURVE",
"24 358 OFFCURVE",
"24 226 CURVE SMOOTH",
"24 87 OFFCURVE",
"137 -9 OFFCURVE",
"299 -9 CURVE SMOOTH"
);
},
{
closed = 1;
nodes = (
"255 145 OFFCURVE",
"229 170 OFFCURVE",
"229 226 CURVE SMOOTH",
"229 282 OFFCURVE",
"254 306 OFFCURVE",
"307 306 CURVE SMOOTH",
"360 306 OFFCURVE",
"385 282 OFFCURVE",
"385 226 CURVE SMOOTH",
"385 172 OFFCURVE",
"359 145 OFFCURVE",
"308 145 CURVE SMOOTH"
);
},
{
closed = 1;
nodes = (
"593 540 LINE",
"569 639 LINE",
"135 543 LINE",
"159 445 LINE"
);
}
);
};
color = 11;
layerId = "4121B50C-FD42-45C5-8FBE-41E76D98F91E";
paths = (
{
closed = 1;
nodes = (
"489 -9 OFFCURVE",
"599 109 OFFCURVE",
"599 305 CURVE SMOOTH",
"599 473 OFFCURVE",
"456 699 OFFCURVE",
"184 719 CURVE",
"140 580 LINE",
"271 578 OFFCURVE",
"405 483 OFFCURVE",
"406 344 CURVE",
"454 337 LINE",
"428 418 OFFCURVE",
"370 455 OFFCURVE",
"276 455 CURVE SMOOTH",
"130 455 OFFCURVE",
"24 358 OFFCURVE",
"24 226 CURVE SMOOTH",
"24 87 OFFCURVE",
"137 -9 OFFCURVE",
"299 -9 CURVE SMOOTH"
);
},
{
closed = 1;
nodes = (
"255 145 OFFCURVE",
"229 170 OFFCURVE",
"229 226 CURVE SMOOTH",
"229 282 OFFCURVE",
"254 306 OFFCURVE",
"307 306 CURVE SMOOTH",
"360 306 OFFCURVE",
"385 282 OFFCURVE",
"385 226 CURVE SMOOTH",
"385 172 OFFCURVE",
"359 145 OFFCURVE",
"308 145 CURVE SMOOTH"
);
},
{
closed = 1;
nodes = (
"593 540 LINE",
"569 639 LINE",
"135 543 LINE",
"159 445 LINE"
);
}
);
width = 623.5098;
},
{
associatedMasterId = "4121B50C-FD42-45C5-8FBE-41E76D98F91E";
background = {
paths = (
{
closed = 1;
nodes = (
"489 -9 OFFCURVE",
"599 109 OFFCURVE",
"599 305 CURVE SMOOTH",
"599 473 OFFCURVE",
"456 699 OFFCURVE",
"184 719 CURVE",
"140 580 LINE",
"271 578 OFFCURVE",
"405 483 OFFCURVE",
"406 344 CURVE",
"454 337 LINE",
"428 418 OFFCURVE",
"370 455 OFFCURVE",
"276 455 CURVE SMOOTH",
"130 455 OFFCURVE",
"24 358 OFFCURVE",
"24 226 CURVE SMOOTH",
"24 87 OFFCURVE",
"137 -9 OFFCURVE",
"299 -9 CURVE SMOOTH"
);
},
{
closed = 1;
nodes = (
"255 145 OFFCURVE",
"229 170 OFFCURVE",
"229 226 CURVE SMOOTH",
"229 282 OFFCURVE",
"254 306 OFFCURVE",
"307 306 CURVE SMOOTH",
"360 306 OFFCURVE",
"385 282 OFFCURVE",
"385 226 CURVE SMOOTH",
"385 172 OFFCURVE",
"359 145 OFFCURVE",
"308 145 CURVE SMOOTH"
);
},
{
closed = 1;
nodes = (
"593 540 LINE",
"569 639 LINE",
"135 543 LINE",
"159 445 LINE"
);
}
);
};
color = 11;
layerId = "6EB873AD-B6B3-4D50-A75E-883CF165F576";
name = "Bold [177]";
paths = (
{
closed = 1;
nodes = (
"489 -9 OFFCURVE",
"599 109 OFFCURVE",
"599 305 CURVE SMOOTH",
"599 473 OFFCURVE",
"456 699 OFFCURVE",
"184 719 CURVE",
"140 580 LINE",
"271 578 OFFCURVE",
"405 483 OFFCURVE",
"406 344 CURVE",
"454 337 LINE",
"428 418 OFFCURVE",
"370 455 OFFCURVE",
"276 455 CURVE SMOOTH",
"130 455 OFFCURVE",
"24 358 OFFCURVE",
"24 226 CURVE SMOOTH",
"24 87 OFFCURVE",
"137 -9 OFFCURVE",
"299 -9 CURVE SMOOTH"
);
},
{
closed = 1;
nodes = (
"255 145 OFFCURVE",
"229 170 OFFCURVE",
"229 226 CURVE SMOOTH",
"229 282 OFFCURVE",
"254 306 OFFCURVE",
"307 306 CURVE SMOOTH",
"360 306 OFFCURVE",
"385 282 OFFCURVE",
"385 226 CURVE SMOOTH",
"385 172 OFFCURVE",
"359 145 OFFCURVE",
"308 145 CURVE SMOOTH"
);
},
{
closed = 1;
nodes = (
"591 550 LINE",
"571 629 LINE",
"137 533 LINE",
"157 455 LINE"
);
}
);
width = 623.5098;
}
);
leftKerningGroup = o;
rightKerningGroup = o;
unicode = 00F0;
userData = {
com.typemytype.robofont.layerData = {
b = {
anchors = (
);
components = (
);
contours = (
);
lib = {
};
name = eth;
unicodes = (
);
width = 1230;
};
};
};
},
{
color = 3;
glyphname = e;
lastChange = "2019-07-02 09:25:19 +0000";
layers = (
{
anchors = (
{
name = bottom;
position = "{286, 0}";
},
{
name = ogonek;
position = "{385, 21}";
},
{
name = top;
position = "{276, 484}";
}
);
background = {
anchors = (
{
name = bottom;
position = "{286, 0}";
},
{
name = ogonek;
position = "{385, 21}";
},
{
name = top;
position = "{276, 484}";
}
);
paths = (
{
closed = 1;
nodes = (
"446 97 LINE",
"394 53 OFFCURVE",
"343 34 OFFCURVE",
"283 34 CURVE SMOOTH",
"164 34 OFFCURVE",
"98 110 OFFCURVE",
"98 244 CURVE SMOOTH",
"98 377 OFFCURVE",
"165 457 OFFCURVE",
"275 457 CURVE SMOOTH",
"381 457 OFFCURVE",
"438 384 OFFCURVE",
"434 253 CURVE",
"452 277 LINE",
"79 277 LINE",
"79 238 LINE",
"474 238 LINE",
"474 264 LINE SMOOTH",
"474 410 OFFCURVE",
"401 496 OFFCURVE",
"276 496 CURVE SMOOTH",
"143 496 OFFCURVE",
"52 395 OFFCURVE",
"52 244 CURVE SMOOTH",
"52 87 OFFCURVE",
"141 -7 OFFCURVE",
"285 -7 CURVE SMOOTH",
"354 -7 OFFCURVE",
"425 19 OFFCURVE",
"466 61 CURVE"
);
}
);
};
layerId = "F1F93986-3ED8-4AAE-84C4-CA3EEECDDFA0";
paths = (
{
closed = 1;
nodes = (
"446 97 LINE",
"394 53 OFFCURVE",
"343 34 OFFCURVE",
"283 34 CURVE SMOOTH",
"164 34 OFFCURVE",
"98 110 OFFCURVE",
"98 244 CURVE SMOOTH",
"98 377 OFFCURVE",
"165 457 OFFCURVE",
"275 457 CURVE SMOOTH",
"381 457 OFFCURVE",
"438 384 OFFCURVE",
"434 253 CURVE",
"452 277 LINE",
"79 277 LINE",
"79 238 LINE",
"474 238 LINE",
"474 264 LINE SMOOTH",
"474 410 OFFCURVE",
"401 496 OFFCURVE",
"276 496 CURVE SMOOTH",
"143 496 OFFCURVE",
"52 395 OFFCURVE",
"52 244 CURVE SMOOTH",
"52 87 OFFCURVE",
"141 -7 OFFCURVE",
"285 -7 CURVE SMOOTH",
"354 -7 OFFCURVE",
"425 19 OFFCURVE",
"466 61 CURVE"
);
}
);
width = 524.05882;
},
{
anchors = (
{
name = bottom;
position = "{302, 0}";
},
{
name = ogonek;
position = "{449, 37}";
},
{
name = top;
position = "{276, 494}";
}
);
background = {
anchors = (
{
name = bottom;
position = "{302, 0}";
},
{
name = ogonek;
position = "{449, 37}";
},
{
name = top;
position = "{276, 494}";
}
);
paths = (
{
closed = 1;
nodes = (
"455 183 LINE",
"419 158 OFFCURVE",
"366 142 OFFCURVE",
"321 142 CURVE SMOOTH",
"249 142 OFFCURVE",
"220 171 OFFCURVE",
"220 267 CURVE SMOOTH",
"220 336 OFFCURVE",
"242 368 OFFCURVE",
"285 368 CURVE SMOOTH",
"321 368 OFFCURVE",
"339 343 OFFCURVE",
"341 289 CURVE",
"388 300 LINE",
"200 300 LINE",
"200 206 LINE",
"513 206 LINE",
"513 249 LINE SMOOTH",
"513 407 OFFCURVE",
"420 506 OFFCURVE",
"276 506 CURVE SMOOTH",
"130 506 OFFCURVE",
"24 400 OFFCURVE",
"24 249 CURVE SMOOTH",
"24 92 OFFCURVE",
"132 -9 OFFCURVE",
"310 -9 CURVE SMOOTH",
"379 -9 OFFCURVE",
"454 13 OFFCURVE",
"505 48 CURVE"
);
}
);
};
color = 11;
layerId = "4121B50C-FD42-45C5-8FBE-41E76D98F91E";
paths = (
{
closed = 1;
nodes = (
"455 183 LINE",
"419 158 OFFCURVE",
"366 143 OFFCURVE",
"321 143 CURVE SMOOTH",
"249 143 OFFCURVE",
"220 171 OFFCURVE",
"220 257 CURVE SMOOTH",
"220 338 OFFCURVE",
"242 370 OFFCURVE",
"283 370 CURVE SMOOTH",
"319 370 OFFCURVE",
"337 345 OFFCURVE",
"339 289 CURVE",
"388 303 LINE",
"200 303 LINE",
"200 202 LINE",
"513 202 LINE",
"513 249 LINE SMOOTH",
"513 407 OFFCURVE",
"420 506 OFFCURVE",
"276 506 CURVE SMOOTH",
"130 506 OFFCURVE",
"24 400 OFFCURVE",
"24 249 CURVE SMOOTH",
"24 92 OFFCURVE",
"132 -9 OFFCURVE",
"310 -9 CURVE SMOOTH",
"379 -9 OFFCURVE",
"454 13 OFFCURVE",
"505 48 CURVE"
);
}
);
width = 537.07843;
},
{
anchors = (
{
name = bottom;
position = "{302, 0}";
},
{
name = ogonek;
position = "{449, 37}";
},
{
name = top;
position = "{276, 494}";
}
);
associatedMasterId = "4121B50C-FD42-45C5-8FBE-41E76D98F91E";
background = {
anchors = (
{
name = bottom;
position = "{302, 0}";
},
{
name = ogonek;
position = "{449, 37}";
},
{
name = top;
position = "{276, 494}";
}
);
paths = (
{
closed = 1;
nodes = (
"455 183 LINE",
"419 158 OFFCURVE",
"366 142 OFFCURVE",
"321 142 CURVE SMOOTH",
"249 142 OFFCURVE",
"220 171 OFFCURVE",
"220 267 CURVE SMOOTH",
"220 336 OFFCURVE",
"242 368 OFFCURVE",
"285 368 CURVE SMOOTH",
"321 368 OFFCURVE",
"339 343 OFFCURVE",
"341 289 CURVE",
"388 300 LINE",
"200 300 LINE",
"200 206 LINE",
"513 206 LINE",
"513 249 LINE SMOOTH",
"513 407 OFFCURVE",
"420 506 OFFCURVE",
"276 506 CURVE SMOOTH",
"130 506 OFFCURVE",
"24 400 OFFCURVE",
"24 249 CURVE SMOOTH",
"24 92 OFFCURVE",
"132 -9 OFFCURVE",
"310 -9 CURVE SMOOTH",
"379 -9 OFFCURVE",
"454 13 OFFCURVE",
"505 48 CURVE"
);
}
);
};
color = 11;
layerId = "E49B42F9-A839-49EF-8753-FFCB8F7C37E6";
name = "Bold  [177]";
paths = (
{
closed = 1;
nodes = (
"455 183 LINE",
"419 158 OFFCURVE",
"366 142 OFFCURVE",
"323 142 CURVE SMOOTH",
"249 142 OFFCURVE",
"218 171 OFFCURVE",
"218 257 CURVE SMOOTH",
"218 340 OFFCURVE",
"242 373 OFFCURVE",
"285 373 CURVE SMOOTH",
"321 373 OFFCURVE",
"343 347 OFFCURVE",
"343 289 CURVE",
"388 300 LINE",
"200 300 LINE",
"200 209 LINE",
"513 209 LINE",
"513 249 LINE SMOOTH",
"513 407 OFFCURVE",
"420 506 OFFCURVE",
"276 506 CURVE SMOOTH",
"130 506 OFFCURVE",
"24 400 OFFCURVE",
"24 249 CURVE SMOOTH",
"24 92 OFFCURVE",
"132 -9 OFFCURVE",
"310 -9 CURVE SMOOTH",
"379 -9 OFFCURVE",
"454 13 OFFCURVE",
"505 48 CURVE"
);
}
);
width = 537.07843;
}
);
leftKerningGroup = o;
leftMetricsKey = o;
rightKerningGroup = e;
unicode = 0065;
userData = {
anchors = (
);
b = {
};
com.typemytype.robofont.layerData = {
b = {
anchors = (
);
components = (
);
contours = (
);
lib = {
};
name = e;
unicodes = (
);
width = 1132;
};
};
components = (
);
contours = (
);
lib = {
};
name = e;
unicodes = (
);
width = 1132;
};
},
{
color = 3;
glyphname = f;
lastChange = "2019-07-02 10:54:42 +0000";
layers = (
{
anchors = (
{
name = bottom;
position = "{126, 0}";
},
{
name = top;
position = "{126, 484}";
}
);
background = {
anchors = (
{
name = bottom;
position = "{126, 0}";
},
{
name = top;
position = "{126, 484}";
}
);
paths = (
{
closed = 1;
nodes = (
"147 611 OFFCURVE",
"186 661 OFFCURVE",
"270 667 CURVE SMOOTH",
"316 670 LINE",
"311 707 LINE",
"280 705 LINE SMOOTH",
"162 698 OFFCURVE",
"105 636 OFFCURVE",
"105 515 CURVE SMOOTH",
"105 473 LINE",
"115 484 LINE",
"8 484 LINE",
"8 448 LINE",
"105 448 LINE",
"105 0 LINE",
"147 0 LINE",
"147 448 LINE",
"293 448 LINE",
"293 484 LINE",
"147 484 LINE",
"147 515 LINE SMOOTH"
);
}
);
};
layerId = "F1F93986-3ED8-4AAE-84C4-CA3EEECDDFA0";
paths = (
{
closed = 1;
nodes = (
"147 611 OFFCURVE",
"186 661 OFFCURVE",
"270 667 CURVE SMOOTH",
"316 670 LINE",
"311 707 LINE",
"280 705 LINE SMOOTH",
"162 698 OFFCURVE",
"105 636 OFFCURVE",
"105 515 CURVE SMOOTH",
"105 473 LINE",
"115 484 LINE",
"8 484 LINE",
"8 448 LINE",
"105 448 LINE",
"105 0 LINE",
"147 0 LINE",
"147 448 LINE",
"293 448 LINE",
"293 484 LINE",
"147 484 LINE",
"147 515 LINE SMOOTH"
);
}
);
width = 301.88235;
},
{
anchors = (
{
name = bottom;
position = "{197, 0}";
},
{
name = top;
position = "{197, 494}";
}
);
background = {
anchors = (
{
name = bottom;
position = "{197, 0}";
},
{
name = top;
position = "{197, 494}";
}
);
paths = (
{
closed = 1;
nodes = (
"301 550 OFFCURVE",
"323 559 OFFCURVE",
"397 561 CURVE SMOOTH",
"444 562 LINE",
"433 712 LINE",
"366 708 LINE SMOOTH",
"178 698 OFFCURVE",
"93 621 OFFCURVE",
"93 464 CURVE SMOOTH",
"93 439 LINE",
"154 494 LINE",
"2 494 LINE",
"2 342 LINE",
"93 342 LINE",
"93 0 LINE",
"301 0 LINE",
"301 342 LINE",
"412 342 LINE",
"412 494 LINE",
"301 494 LINE",
"301 509 LINE SMOOTH"
);
}
);
};
layerId = "4121B50C-FD42-45C5-8FBE-41E76D98F91E";
paths = (
{
closed = 1;
nodes = (
"301 542 OFFCURVE",
"320 559 OFFCURVE",
"397 561 CURVE SMOOTH",
"444 562 LINE",
"433 712 LINE",
"366 708 LINE SMOOTH",
"178 698 OFFCURVE",
"93 622 OFFCURVE",
"93 464 CURVE SMOOTH",
"93 439 LINE",
"154 494 LINE",
"2 494 LINE",
"2 342 LINE",
"93 342 LINE",
"93 0 LINE",
"301 0 LINE",
"301 342 LINE",
"412 342 LINE",
"412 494 LINE",
"301 494 LINE",
"301 505 LINE SMOOTH"
);
}
);
width = 414.17647;
}
);
leftKerningGroup = f;
rightKerningGroup = f;
unicode = 0066;
userData = {
anchors = (
);
b = {
};
com.typemytype.robofont.layerData = {
b = {
anchors = (
);
components = (
);
contours = (
);
lib = {
};
name = f;
unicodes = (
);
width = 696;
};
};
components = (
);
contours = (
);
lib = {
};
name = f;
unicodes = (
);
width = 723;
};
},
{
color = 3;
glyphname = g;
lastChange = "2019-07-02 10:54:42 +0000";
layers = (
{
anchors = (
{
name = bottom;
position = "{287, 0}";
},
{
name = top;
position = "{287, 484}";
}
);
background = {
anchors = (
{
name = bottom;
position = "{287, 0}";
},
{
name = top;
position = "{287, 484}";
}
);
paths = (
{
closed = 1;
nodes = (
"418 -187 OFFCURVE",
"484 -116 OFFCURVE",
"484 23 CURVE SMOOTH",
"484 484 LINE",
"442 484 LINE",
"442 379 LINE",
"453 359 LINE",
"431 447 OFFCURVE",
"366 496 OFFCURVE",
"270 496 CURVE SMOOTH",
"140 496 OFFCURVE",
"52 399 OFFCURVE",
"52 256 CURVE SMOOTH",
"52 112 OFFCURVE",
"140 15 OFFCURVE",
"270 15 CURVE SMOOTH",
"366 15 OFFCURVE",
"431 64 OFFCURVE",
"453 153 CURVE",
"443 131 LINE",
"443 17 LINE SMOOTH",
"443 -89 OFFCURVE",
"390 -146 OFFCURVE",
"290 -146 CURVE SMOOTH",
"215 -146 OFFCURVE",
"167 -130 OFFCURVE",
"104 -83 CURVE",
"84 -118 LINE",
"140 -164 OFFCURVE",
"209 -187 OFFCURVE",
"289 -187 CURVE SMOOTH"
);
},
{
closed = 1;
nodes = (
"163 56 OFFCURVE",
"97 131 OFFCURVE",
"97 256 CURVE SMOOTH",
"97 380 OFFCURVE",
"163 455 OFFCURVE",
"270 455 CURVE SMOOTH",
"378 455 OFFCURVE",
"442 379 OFFCURVE",
"442 256 CURVE SMOOTH",
"442 132 OFFCURVE",
"378 56 OFFCURVE",
"270 56 CURVE SMOOTH"
);
}
);
};
layerId = "F1F93986-3ED8-4AAE-84C4-CA3EEECDDFA0";
paths = (
{
closed = 1;
nodes = (
"418 -187 OFFCURVE",
"484 -116 OFFCURVE",
"484 23 CURVE SMOOTH",
"484 484 LINE",
"442 484 LINE",
"442 379 LINE",
"453 359 LINE",
"431 447 OFFCURVE",
"366 496 OFFCURVE",
"270 496 CURVE SMOOTH",
"140 496 OFFCURVE",
"52 399 OFFCURVE",
"52 256 CURVE SMOOTH",
"52 112 OFFCURVE",
"140 15 OFFCURVE",
"270 15 CURVE SMOOTH",
"366 15 OFFCURVE",
"431 64 OFFCURVE",
"453 153 CURVE",
"443 131 LINE",
"443 17 LINE SMOOTH",
"443 -89 OFFCURVE",
"390 -146 OFFCURVE",
"290 -146 CURVE SMOOTH",
"215 -146 OFFCURVE",
"167 -130 OFFCURVE",
"104 -83 CURVE",
"84 -118 LINE",
"140 -164 OFFCURVE",
"209 -187 OFFCURVE",
"289 -187 CURVE SMOOTH"
);
},
{
closed = 1;
nodes = (
"163 56 OFFCURVE",
"97 131 OFFCURVE",
"97 256 CURVE SMOOTH",
"97 380 OFFCURVE",
"163 455 OFFCURVE",
"270 455 CURVE SMOOTH",
"378 455 OFFCURVE",
"442 379 OFFCURVE",
"442 256 CURVE SMOOTH",
"442 132 OFFCURVE",
"378 56 OFFCURVE",
"270 56 CURVE SMOOTH"
);
}
);
width = 568.70588;
},
{
anchors = (
{
name = bottom;
position = "{321, 0}";
},
{
name = top;
position = "{321, 494}";
}
);
background = {
anchors = (
{
name = bottom;
position = "{321, 0}";
},
{
name = top;
position = "{321, 494}";
}
);
paths = (
{
closed = 1;
nodes = (
"492 -189 OFFCURVE",
"598 -100 OFFCURVE",
"598 68 CURVE SMOOTH",
"598 494 LINE",
"393 494 LINE",
"393 391 LINE",
"404 417 LINE",
"382 470 OFFCURVE",
"315 506 OFFCURVE",
"244 506 CURVE SMOOTH",
"117 506 OFFCURVE",
"24 409 OFFCURVE",
"24 259 CURVE SMOOTH",
"24 109 OFFCURVE",
"117 13 OFFCURVE",
"244 13 CURVE SMOOTH",
"315 13 OFFCURVE",
"382 49 OFFCURVE",
"404 99 CURVE",
"392 122 LINE",
"392 55 LINE SMOOTH",
"392 -11 OFFCURVE",
"358 -38 OFFCURVE",
"284 -38 CURVE SMOOTH",
"228 -38 OFFCURVE",
"151 -19 OFFCURVE",
"94 9 CURVE",
"43 -131 LINE",
"106 -167 OFFCURVE",
"199 -189 OFFCURVE",
"291 -189 CURVE SMOOTH"
);
},
{
closed = 1;
nodes = (
"261 167 OFFCURVE",
"229 202 OFFCURVE",
"229 259 CURVE SMOOTH",
"229 319 OFFCURVE",
"259 353 OFFCURVE",
"311 353 CURVE SMOOTH",
"363 353 OFFCURVE",
"393 318 OFFCURVE",
"393 259 CURVE SMOOTH",
"393 200 OFFCURVE",
"362 167 OFFCURVE",
"311 167 CURVE SMOOTH"
);
}
);
};
layerId = "4121B50C-FD42-45C5-8FBE-41E76D98F91E";
paths = (
{
closed = 1;
nodes = (
"492 -189 OFFCURVE",
"598 -100 OFFCURVE",
"598 68 CURVE SMOOTH",
"598 494 LINE",
"393 494 LINE",
"393 391 LINE",
"404 417 LINE",
"382 470 OFFCURVE",
"315 506 OFFCURVE",
"244 506 CURVE SMOOTH",
"117 506 OFFCURVE",
"24 409 OFFCURVE",
"24 259 CURVE SMOOTH",
"24 109 OFFCURVE",
"117 13 OFFCURVE",
"244 13 CURVE SMOOTH",
"315 13 OFFCURVE",
"382 49 OFFCURVE",
"404 99 CURVE",
"392 122 LINE",
"392 55 LINE SMOOTH",
"392 -11 OFFCURVE",
"358 -38 OFFCURVE",
"284 -38 CURVE SMOOTH",
"228 -38 OFFCURVE",
"151 -19 OFFCURVE",
"94 9 CURVE",
"43 -131 LINE",
"106 -167 OFFCURVE",
"199 -189 OFFCURVE",
"291 -189 CURVE SMOOTH"
);
},
{
closed = 1;
nodes = (
"261 167 OFFCURVE",
"229 202 OFFCURVE",
"229 259 CURVE SMOOTH",
"229 319 OFFCURVE",
"259 353 OFFCURVE",
"311 353 CURVE SMOOTH",
"363 353 OFFCURVE",
"393 318 OFFCURVE",
"393 259 CURVE SMOOTH",
"393 200 OFFCURVE",
"362 167 OFFCURVE",
"311 167 CURVE SMOOTH"
);
}
);
width = 641.94118;
}
);
leftKerningGroup = o;
rightKerningGroup = u;
unicode = 0067;
userData = {
anchors = (
);
b = {
};
com.typemytype.robofont.layerData = {
b = {
anchors = (
);
components = (
);
contours = (
);
lib = {
};
name = g;
unicodes = (
);
width = 1167;
};
};
components = (
);
contours = (
);
lib = {
};
name = g;
unicodes = (
);
width = 1207;
};
},
{
color = 3;
glyphname = h;
lastChange = "2019-07-02 10:54:42 +0000";
layers = (
{
anchors = (
{
name = bottom;
position = "{277, 0}";
},
{
name = center;
position = "{277, 245}";
},
{
name = dot;
position = "{204, 353}";
},
{
name = stroke;
position = "{157, 580}";
},
{
name = top;
position = "{106, 705}";
},
{
name = topright;
position = "{169, 705}";
}
);
background = {
anchors = (
{
name = bottom;
position = "{277, 0}";
},
{
name = center;
position = "{277, 245}";
},
{
name = dot;
position = "{204, 353}";
},
{
name = stroke;
position = "{157, 580}";
},
{
name = top;
position = "{106, 705}";
},
{
name = topright;
position = "{169, 705}";
}
);
paths = (
{
closed = 1;
nodes = (
"209 496 OFFCURVE",
"141 454 OFFCURVE",
"115 370 CURVE",
"127 355 LINE",
"127 705 LINE",
"85 705 LINE",
"85 0 LINE",
"127 0 LINE",
"127 282 LINE SMOOTH",
"127 388 OFFCURVE",
"194 456 OFFCURVE",
"297 456 CURVE SMOOTH",
"389 456 OFFCURVE",
"428 410 OFFCURVE",
"428 308 CURVE SMOOTH",
"428 0 LINE",
"470 0 LINE",
"470 312 LINE SMOOTH",
"470 434 OFFCURVE",
"411 496 OFFCURVE",
"294 496 CURVE SMOOTH"
);
}
);
};
layerId = "F1F93986-3ED8-4AAE-84C4-CA3EEECDDFA0";
paths = (
{
closed = 1;
nodes = (
"209 496 OFFCURVE",
"141 454 OFFCURVE",
"115 370 CURVE",
"127 355 LINE",
"127 705 LINE",
"85 705 LINE",
"85 0 LINE",
"127 0 LINE",
"127 282 LINE SMOOTH",
"127 388 OFFCURVE",
"194 456 OFFCURVE",
"297 456 CURVE SMOOTH",
"389 456 OFFCURVE",
"428 410 OFFCURVE",
"428 308 CURVE SMOOTH",
"428 0 LINE",
"470 0 LINE",
"470 312 LINE SMOOTH",
"470 434 OFFCURVE",
"411 496 OFFCURVE",
"294 496 CURVE SMOOTH"
);
}
);
width = 553.41176;
},
{
anchors = (
{
name = bottom;
position = "{311, 0}";
},
{
name = center;
position = "{311, 250}";
},
{
name = dot;
position = "{402, 350}";
},
{
name = stroke;
position = "{198, 595}";
},
{
name = top;
position = "{151, 705}";
},
{
name = topright;
position = "{270, 705}";
}
);
background = {
anchors = (
{
name = bottom;
position = "{311, 0}";
},
{
name = center;
position = "{311, 250}";
},
{
name = dot;
position = "{402, 350}";
},
{
name = stroke;
position = "{198, 595}";
},
{
name = top;
position = "{151, 705}";
},
{
name = topright;
position = "{270, 705}";
}
);
paths = (
{
closed = 1;
nodes = (
"330 506 OFFCURVE",
"271 472 OFFCURVE",
"234 415 CURVE",
"252 394 LINE",
"252 705 LINE",
"44 705 LINE",
"44 0 LINE",
"252 0 LINE",
"252 272 LINE SMOOTH",
"252 318 OFFCURVE",
"280 348 OFFCURVE",
"322 348 CURVE SMOOTH",
"351 348 OFFCURVE",
"368 330 OFFCURVE",
"368 279 CURVE SMOOTH",
"368 0 LINE",
"576 0 LINE",
"576 287 LINE SMOOTH",
"576 436 OFFCURVE",
"520 506 OFFCURVE",
"403 506 CURVE SMOOTH"
);
}
);
};
layerId = "4121B50C-FD42-45C5-8FBE-41E76D98F91E";
paths = (
{
closed = 1;
nodes = (
"330 506 OFFCURVE",
"271 472 OFFCURVE",
"234 415 CURVE",
"252 394 LINE",
"252 705 LINE",
"44 705 LINE",
"44 0 LINE",
"252 0 LINE",
"252 272 LINE SMOOTH",
"252 318 OFFCURVE",
"280 348 OFFCURVE",
"322 348 CURVE SMOOTH",
"351 348 OFFCURVE",
"368 330 OFFCURVE",
"368 279 CURVE SMOOTH",
"368 0 LINE",
"576 0 LINE",
"576 287 LINE SMOOTH",
"576 436 OFFCURVE",
"520 506 OFFCURVE",
"403 506 CURVE SMOOTH"
);
}
);
width = 616.88235;
}
);
leftKerningGroup = h;
leftMetricsKey = n;
rightKerningGroup = n;
rightMetricsKey = n;
unicode = 0068;
userData = {
anchors = (
);
b = {
};
com.typemytype.robofont.layerData = {
b = {
anchors = (
);
components = (
);
contours = (
);
lib = {
};
name = h;
unicodes = (
);
width = 1148;
};
};
components = (
);
contours = {
};
lib = {
};
name = h;
points = {
};
segmentType = curve;
unicodes = (
);
width = 1195;
x = 137;
y = 113;
};
},
{
color = 3;
glyphname = idotless;
lastChange = "2019-07-02 10:54:42 +0000";
layers = (
{
anchors = (
{
name = bottom;
position = "{106, 0}";
},
{
name = ogonek;
position = "{127, 0}";
},
{
name = top;
position = "{106, 484}";
}
);
background = {
anchors = (
{
name = bottom;
position = "{106, 0}";
},
{
name = ogonek;
position = "{130, 0}";
},
{
name = top;
position = "{106, 484}";
}
);
paths = (
{
closed = 1;
nodes = (
"127 0 LINE",
"127 484 LINE",
"85 484 LINE",
"85 0 LINE"
);
}
);
};
layerId = "F1F93986-3ED8-4AAE-84C4-CA3EEECDDFA0";
paths = (
{
closed = 1;
nodes = (
"127 0 LINE",
"127 484 LINE",
"85 484 LINE",
"85 0 LINE"
);
}
);
width = 211.88235;
},
{
anchors = (
{
name = bottom;
position = "{148, 0}";
},
{
name = ogonek;
position = "{215, 0}";
},
{
name = top;
position = "{148, 494}";
}
);
background = {
anchors = (
{
name = bottom;
position = "{148, 0}";
},
{
name = ogonek;
position = "{215, 0}";
},
{
name = top;
position = "{148, 494}";
}
);
paths = (
{
closed = 1;
nodes = (
"252 0 LINE",
"252 494 LINE",
"44 494 LINE",
"44 0 LINE"
);
}
);
};
layerId = "4121B50C-FD42-45C5-8FBE-41E76D98F91E";
paths = (
{
closed = 1;
nodes = (
"252 0 LINE",
"252 494 LINE",
"44 494 LINE",
"44 0 LINE"
);
}
);
width = 296.5098;
}
);
leftKerningGroup = n;
rightKerningGroup = u;
unicode = 0131;
},
{
color = 3;
glyphname = jdotless;
lastChange = "2019-07-02 10:54:42 +0000";
layers = (
{
anchors = (
{
name = bottom;
position = "{106, 0}";
},
{
name = top;
position = "{106, 484}";
}
);
background = {
anchors = (
{
name = bottom;
position = "{106, 0}";
},
{
name = top;
position = "{106, 484}";
}
);
paths = (
{
closed = 1;
nodes = (
"85 484 LINE",
"85 -12 LINE SMOOTH",
"85 -92 OFFCURVE",
"44 -137 OFFCURVE",
"-34 -143 CURVE SMOOTH",
"-76 -145 LINE",
"-72 -183 LINE",
"-29 -180 LINE SMOOTH",
"71 -173 OFFCURVE",
"127 -114 OFFCURVE",
"127 -11 CURVE SMOOTH",
"127 484 LINE"
);
}
);
};
layerId = "F1F93986-3ED8-4AAE-84C4-CA3EEECDDFA0";
paths = (
{
closed = 1;
nodes = (
"85 484 LINE",
"85 -12 LINE SMOOTH",
"85 -92 OFFCURVE",
"44 -137 OFFCURVE",
"-34 -143 CURVE SMOOTH",
"-76 -145 LINE",
"-72 -183 LINE",
"-29 -180 LINE SMOOTH",
"71 -173 OFFCURVE",
"127 -114 OFFCURVE",
"127 -11 CURVE SMOOTH",
"127 484 LINE"
);
}
);
width = 211.88235;
},
{
anchors = (
{
name = bottom;
position = "{147, 0}";
},
{
name = top;
position = "{147, 494}";
}
);
background = {
anchors = (
{
name = bottom;
position = "{147, 0}";
},
{
name = top;
position = "{147, 494}";
}
);
paths = (
{
closed = 1;
nodes = (
"44 494 LINE",
"44 13 LINE SMOOTH",
"44 -25 OFFCURVE",
"31 -35 OFFCURVE",
"-15 -38 CURVE SMOOTH",
"-71 -43 LINE",
"-57 -188 LINE",
"-7 -185 LINE SMOOTH",
"190 -173 OFFCURVE",
"252 -117 OFFCURVE",
"252 54 CURVE SMOOTH",
"252 494 LINE"
);
}
);
};
layerId = "4121B50C-FD42-45C5-8FBE-41E76D98F91E";
paths = (
{
closed = 1;
nodes = (
"44 494 LINE",
"44 13 LINE SMOOTH",
"44 -25 OFFCURVE",
"31 -35 OFFCURVE",
"-15 -38 CURVE SMOOTH",
"-71 -43 LINE",
"-57 -188 LINE",
"-7 -185 LINE SMOOTH",
"190 -173 OFFCURVE",
"252 -117 OFFCURVE",
"252 54 CURVE SMOOTH",
"252 494 LINE"
);
}
);
width = 296.5098;
}
);
leftKerningGroup = n;
rightKerningGroup = l;
unicode = 0237;
},
{
color = 3;
glyphname = k;
lastChange = "2019-07-02 10:54:42 +0000";
layers = (
{
anchors = (
{
name = bottom;
position = "{234, 0}";
},
{
name = center;
position = "{106, 357}";
},
{
name = connect;
position = "{127, 0}";
},
{
name = dot;
position = "{204, 353}";
},
{
name = top;
position = "{234, 484}";
},
{
name = topright;
position = "{169, 705}";
}
);
background = {
anchors = (
{
name = bottom;
position = "{234, 0}";
},
{
name = center;
position = "{106, 357}";
},
{
name = connect;
position = "{127, 0}";
},
{
name = dot;
position = "{204, 353}";
},
{
name = top;
position = "{234, 484}";
},
{
name = topright;
position = "{169, 705}";
}
);
paths = (
{
closed = 1;
nodes = (
"469 0 LINE",
"153 270 LINE",
"152 230 LINE",
"439 484 LINE",
"380 484 LINE",
"116 248 LINE",
"408 0 LINE"
);
},
{
closed = 1;
nodes = (
"127 0 LINE",
"127 705 LINE",
"85 705 LINE",
"85 0 LINE"
);
}
);
};
layerId = "F1F93986-3ED8-4AAE-84C4-CA3EEECDDFA0";
paths = (
{
closed = 1;
nodes = (
"153 270 LINE",
"152 230 LINE",
"439 484 LINE",
"380 484 LINE",
"127 258 LINE",
"127 705 LINE",
"85 705 LINE",
"85 0 LINE",
"127 0 LINE",
"127 239 LINE",
"408 0 LINE",
"469 0 LINE"
);
}
);
width = 468.11765;
},
{
anchors = (
{
name = bottom;
position = "{302, 0}";
},
{
name = center;
position = "{148, 357}";
},
{
name = connect;
position = "{252, 0}";
},
{
name = dot;
position = "{402, 350}";
},
{
name = top;
position = "{302, 494}";
},
{
name = topright;
position = "{270, 705}";
}
);
background = {
anchors = (
{
name = bottom;
position = "{302, 0}";
},
{
name = center;
position = "{148, 357}";
},
{
name = connect;
position = "{252, 0}";
},
{
name = dot;
position = "{402, 350}";
},
{
name = top;
position = "{302, 494}";
},
{
name = topright;
position = "{270, 705}";
}
);
paths = (
{
closed = 1;
nodes = (
"641 0 LINE",
"436 295 LINE",
"424 211 LINE",
"639 493 LINE",
"395 493 LINE",
"217 251 LINE",
"392 0 LINE"
);
},
{
closed = 1;
nodes = (
"252 0 LINE",
"252 705 LINE",
"44 705 LINE",
"44 0 LINE"
);
}
);
};
layerId = "4121B50C-FD42-45C5-8FBE-41E76D98F91E";
paths = (
{
closed = 1;
nodes = (
"436 295 LINE",
"424 211 LINE",
"639 493 LINE",
"395 493 LINE",
"252 299 LINE",
"252 705 LINE",
"44 705 LINE",
"44 0 LINE",
"252 0 LINE",
"252 201 LINE",
"392 0 LINE",
"641 0 LINE"
);
}
);
width = 604.82353;
}
);
leftKerningGroup = h;
rightKerningGroup = k;
unicode = 006B;
userData = {
com.typemytype.robofont.layerData = {
b = {
anchors = (
);
components = (
);
contours = (
{
points = (
{
segmentType = line;
smooth = 0;
x = 318;
y = 536;
},
{
segmentType = line;
smooth = 1;
x = 793;
y = 27;
},
{
smooth = 0;
x = 809;
y = 9;
},
{
smooth = 0;
x = 828;
y = 1;
},
{
segmentType = curve;
smooth = 1;
x = 845;
y = 1;
},
{
smooth = 0;
x = 883;
y = 1;
},
{
smooth = 0;
x = 922;
y = 33;
},
{
segmentType = curve;
smooth = 1;
x = 922;
y = 71;
},
{
smooth = 0;
x = 922;
y = 84;
},
{
smooth = 0;
x = 918;
y = 99;
},
{
segmentType = curve;
smooth = 1;
x = 906;
y = 112;
},
{
segmentType = line;
smooth = 0;
x = 492;
y = 554;
},
{
segmentType = line;
smooth = 1;
x = 873;
y = 889;
},
{
smooth = 0;
x = 888;
y = 902;
},
{
smooth = 0;
x = 894;
y = 918;
},
{
segmentType = curve;
smooth = 1;
x = 894;
y = 933;
},
{
smooth = 0;
x = 894;
y = 968;
},
{
smooth = 0;
x = 858;
y = 1002;
},
{
segmentType = curve;
smooth = 1;
x = 821;
y = 1002;
},
{
smooth = 0;
x = 802;
y = 1002;
},
{
smooth = 0;
x = 785;
y = 994;
},
{
segmentType = curve;
smooth = 0;
x = 770;
y = 979;
},
{
segmentType = line;
smooth = 0;
x = 318;
y = 574;
}
);
}
);
lib = {
};
name = k;
unicodes = (
);
width = 984;
};
};
};
},
{
color = 3;
glyphname = kgreenlandic;
lastChange = "2019-07-02 10:54:42 +0000";
layers = (
{
anchors = (
{
name = bottom;
position = "{235, 0}";
},
{
name = ogonek;
position = "{130, 0}";
},
{
name = top;
position = "{235, 484}";
}
);
background = {
anchors = (
{
name = bottom;
position = "{235, 0}";
},
{
name = ogonek;
position = "{130, 0}";
},
{
name = top;
position = "{235, 484}";
}
);
paths = (
{
closed = 1;
nodes = (
"469 0 LINE",
"153 270 LINE",
"152 230 LINE",
"439 484 LINE",
"380 484 LINE",
"116 248 LINE",
"408 0 LINE"
);
},
{
closed = 1;
nodes = (
"127 0 LINE",
"127 484 LINE",
"85 484 LINE",
"85 0 LINE"
);
}
);
};
layerId = "F1F93986-3ED8-4AAE-84C4-CA3EEECDDFA0";
paths = (
{
closed = 1;
nodes = (
"153 270 LINE",
"152 230 LINE",
"439 484 LINE",
"380 484 LINE",
"127 258 LINE",
"127 484 LINE",
"85 484 LINE",
"85 0 LINE",
"127 0 LINE",
"127 239 LINE",
"408 0 LINE",
"469 0 LINE"
);
}
);
width = 468.11765;
},
{
anchors = (
{
name = bottom;
position = "{284, 0}";
},
{
name = ogonek;
position = "{215, 0}";
},
{
name = top;
position = "{284, 494}";
}
);
background = {
paths = (
{
closed = 1;
nodes = (
"641 0 LINE",
"436 295 LINE",
"424 211 LINE",
"639 493 LINE",
"395 493 LINE",
"217 251 LINE",
"392 0 LINE"
);
},
{
closed = 1;
nodes = (
"252 0 LINE",
"252 494 LINE",
"44 494 LINE",
"44 0 LINE"
);
}
);
};
layerId = "4121B50C-FD42-45C5-8FBE-41E76D98F91E";
paths = (
{
closed = 1;
nodes = (
"436 295 LINE",
"424 211 LINE",
"639 493 LINE",
"395 493 LINE",
"252 299 LINE",
"252 494 LINE",
"44 494 LINE",
"44 0 LINE",
"252 0 LINE",
"252 201 LINE",
"392 0 LINE",
"641 0 LINE"
);
}
);
width = 604.82353;
}
);
leftKerningGroup = n;
leftMetricsKey = n;
rightKerningGroup = k;
rightMetricsKey = k;
unicode = 0138;
userData = {
com.typemytype.robofont.layerData = {
b = {
anchors = (
);
components = (
);
contours = (
);
lib = {
};
name = kgreenlandic;
unicodes = (
);
width = 1047;
};
};
};
},
{
color = 3;
glyphname = l;
lastChange = "2019-07-09 10:59:37 +0000";
layers = (
{
anchors = (
{
name = bottom;
position = "{106, 0}";
},
{
name = center;
position = "{106, 357}";
},
{
name = connect;
position = "{127, 0}";
},
{
name = dot;
position = "{214, 353}";
},
{
name = top;
position = "{106, 705}";
},
{
name = topright;
position = "{179, 705}";
}
);
background = {
anchors = (
{
name = bottom;
position = "{106, 0}";
},
{
name = center;
position = "{106, 357}";
},
{
name = connect;
position = "{127, 0}";
},
{
name = dot;
position = "{204, 353}";
},
{
name = top;
position = "{106, 705}";
},
{
name = topright;
position = "{169, 705}";
}
);
paths = (
{
closed = 1;
nodes = (
"127 0 LINE",
"127 705 LINE",
"85 705 LINE",
"85 0 LINE"
);
}
);
};
layerId = "F1F93986-3ED8-4AAE-84C4-CA3EEECDDFA0";
paths = (
{
closed = 1;
nodes = (
"127 0 LINE",
"127 705 LINE",
"85 705 LINE",
"85 0 LINE"
);
}
);
width = 211.88235;
},
{
anchors = (
{
name = bottom;
position = "{148, 0}";
},
{
name = center;
position = "{148, 357}";
},
{
name = connect;
position = "{252, 0}";
},
{
name = dot;
position = "{402, 350}";
},
{
name = top;
position = "{148, 705}";
},
{
name = topright;
position = "{282, 705}";
}
);
background = {
anchors = (
{
name = bottom;
position = "{148, 0}";
},
{
name = center;
position = "{148, 357}";
},
{
name = connect;
position = "{252, 0}";
},
{
name = dot;
position = "{402, 350}";
},
{
name = top;
position = "{148, 705}";
},
{
name = topright;
position = "{270, 705}";
}
);
paths = (
{
closed = 1;
nodes = (
"252 0 LINE",
"252 705 LINE",
"44 705 LINE",
"44 0 LINE"
);
}
);
};
layerId = "4121B50C-FD42-45C5-8FBE-41E76D98F91E";
paths = (
{
closed = 1;
nodes = (
"252 0 LINE",
"252 705 LINE",
"44 705 LINE",
"44 0 LINE"
);
}
);
width = 296.5098;
}
);
leftKerningGroup = h;
rightKerningGroup = l;
unicode = 006C;
userData = {
com.typemytype.robofont.layerData = {
b = {
anchors = (
);
components = (
);
contours = (
);
lib = {
};
name = l;
unicodes = (
);
width = 511;
};
};
};
},
{
color = 3;
glyphname = m;
lastChange = "2019-07-02 10:54:42 +0000";
layers = (
{
anchors = (
{
name = bottom;
position = "{418, 0}";
},
{
name = top;
position = "{418, 484}";
}
);
background = {
anchors = (
{
name = bottom;
position = "{418, 0}";
},
{
name = top;
position = "{418, 484}";
}
);
paths = (
{
closed = 1;
nodes = (
"505 496 OFFCURVE",
"437 446 OFFCURVE",
"418 369 CURVE",
"439 353 LINE",
"426 449 OFFCURVE",
"375 496 OFFCURVE",
"279 496 CURVE SMOOTH",
"199 496 OFFCURVE",
"138 453 OFFCURVE",
"115 370 CURVE",
"126 356 LINE",
"126 484 LINE",
"85 484 LINE",
"85 0 LINE",
"127 0 LINE",
"127 282 LINE SMOOTH",
"127 388 OFFCURVE",
"186 456 OFFCURVE",
"280 456 CURVE SMOOTH",
"363 456 OFFCURVE",
"397 410 OFFCURVE",
"397 308 CURVE SMOOTH",
"397 0 LINE",
"439 0 LINE",
"439 282 LINE SMOOTH",
"439 388 OFFCURVE",
"498 456 OFFCURVE",
"592 456 CURVE SMOOTH",
"675 456 OFFCURVE",
"709 410 OFFCURVE",
"709 308 CURVE SMOOTH",
"709 0 LINE",
"751 0 LINE",
"751 312 LINE SMOOTH",
"751 435 OFFCURVE",
"697 496 OFFCURVE",
"591 496 CURVE SMOOTH"
);
}
);
};
layerId = "F1F93986-3ED8-4AAE-84C4-CA3EEECDDFA0";
paths = (
{
closed = 1;
nodes = (
"505 496 OFFCURVE",
"437 446 OFFCURVE",
"418 369 CURVE",
"439 353 LINE",
"426 449 OFFCURVE",
"375 496 OFFCURVE",
"279 496 CURVE SMOOTH",
"199 496 OFFCURVE",
"138 453 OFFCURVE",
"115 370 CURVE",
"126 356 LINE",
"126 484 LINE",
"85 484 LINE",
"85 0 LINE",
"127 0 LINE",
"127 282 LINE SMOOTH",
"127 388 OFFCURVE",
"186 456 OFFCURVE",
"280 456 CURVE SMOOTH",
"363 456 OFFCURVE",
"397 410 OFFCURVE",
"397 308 CURVE SMOOTH",
"397 0 LINE",
"439 0 LINE",
"439 282 LINE SMOOTH",
"439 388 OFFCURVE",
"498 456 OFFCURVE",
"592 456 CURVE SMOOTH",
"675 456 OFFCURVE",
"709 410 OFFCURVE",
"709 308 CURVE SMOOTH",
"709 0 LINE",
"751 0 LINE",
"751 312 LINE SMOOTH",
"751 435 OFFCURVE",
"697 496 OFFCURVE",
"591 496 CURVE SMOOTH"
);
}
);
width = 834.47059;
},
{
anchors = (
{
name = bottom;
position = "{457, 0}";
},
{
name = top;
position = "{457, 494}";
}
);
background = {
anchors = (
{
name = bottom;
position = "{457, 0}";
},
{
name = top;
position = "{457, 494}";
}
);
paths = (
{
closed = 1;
nodes = (
"627 506 OFFCURVE",
"562 468 OFFCURVE",
"529 405 CURVE",
"553 372 LINE",
"534 462 OFFCURVE",
"474 506 OFFCURVE",
"396 506 CURVE SMOOTH",
"318 506 OFFCURVE",
"262 472 OFFCURVE",
"232 412 CURVE",
"247 392 LINE",
"247 494 LINE",
"44 494 LINE",
"44 0 LINE",
"252 0 LINE",
"252 264 LINE SMOOTH",
"252 320 OFFCURVE",
"272 348 OFFCURVE",
"311 348 CURVE SMOOTH",
"341 348 OFFCURVE",
"353 330 OFFCURVE",
"353 282 CURVE SMOOTH",
"353 0 LINE",
"561 0 LINE",
"561 264 LINE SMOOTH",
"561 320 OFFCURVE",
"581 348 OFFCURVE",
"620 348 CURVE SMOOTH",
"650 348 OFFCURVE",
"662 330 OFFCURVE",
"662 282 CURVE SMOOTH",
"662 0 LINE",
"870 0 LINE",
"870 287 LINE SMOOTH",
"870 437 OFFCURVE",
"816 506 OFFCURVE",
"700 506 CURVE SMOOTH"
);
}
);
};
layerId = "4121B50C-FD42-45C5-8FBE-41E76D98F91E";
paths = (
{
closed = 1;
nodes = (
"627 506 OFFCURVE",
"562 468 OFFCURVE",
"529 405 CURVE",
"553 372 LINE",
"534 462 OFFCURVE",
"474 506 OFFCURVE",
"396 506 CURVE SMOOTH",
"318 506 OFFCURVE",
"262 472 OFFCURVE",
"232 412 CURVE",
"247 392 LINE",
"247 494 LINE",
"44 494 LINE",
"44 0 LINE",
"252 0 LINE",
"252 264 LINE SMOOTH",
"252 320 OFFCURVE",
"272 348 OFFCURVE",
"311 348 CURVE SMOOTH",
"341 348 OFFCURVE",
"353 330 OFFCURVE",
"353 282 CURVE SMOOTH",
"353 0 LINE",
"561 0 LINE",
"561 264 LINE SMOOTH",
"561 320 OFFCURVE",
"581 348 OFFCURVE",
"620 348 CURVE SMOOTH",
"650 348 OFFCURVE",
"662 330 OFFCURVE",
"662 282 CURVE SMOOTH",
"662 0 LINE",
"870 0 LINE",
"870 287 LINE SMOOTH",
"870 437 OFFCURVE",
"816 506 OFFCURVE",
"700 506 CURVE SMOOTH"
);
}
);
width = 910.96078;
}
);
leftKerningGroup = n;
leftMetricsKey = n;
rightKerningGroup = n;
rightMetricsKey = n;
unicode = 006D;
userData = {
anchors = (
);
b = {
};
com.typemytype.robofont.layerData = {
b = {
anchors = (
);
components = (
);
contours = (
);
lib = {
};
name = m;
unicodes = (
);
width = 1838;
};
};
components = (
);
contours = (
);
lib = {
};
name = m;
unicodes = (
);
width = 1877;
};
},
{
color = 3;
glyphname = n;
lastChange = "2019-07-02 10:54:42 +0000";
layers = (
{
anchors = (
{
name = bottom;
position = "{277, 0}";
},
{
name = top;
position = "{277, 484}";
}
);
background = {
anchors = (
{
name = bottom;
position = "{277, 0}";
},
{
name = top;
position = "{277, 484}";
}
);
paths = (
{
closed = 1;
nodes = (
"209 496 OFFCURVE",
"139 453 OFFCURVE",
"115 368 CURVE",
"126 354 LINE",
"126 484 LINE",
"85 484 LINE",
"85 0 LINE",
"127 0 LINE",
"127 282 LINE SMOOTH",
"127 388 OFFCURVE",
"194 456 OFFCURVE",
"297 456 CURVE SMOOTH",
"389 456 OFFCURVE",
"428 410 OFFCURVE",
"428 308 CURVE SMOOTH",
"428 0 LINE",
"470 0 LINE",
"470 312 LINE SMOOTH",
"470 434 OFFCURVE",
"411 496 OFFCURVE",
"294 496 CURVE SMOOTH"
);
}
);
};
layerId = "F1F93986-3ED8-4AAE-84C4-CA3EEECDDFA0";
paths = (
{
closed = 1;
nodes = (
"209 496 OFFCURVE",
"139 453 OFFCURVE",
"115 368 CURVE",
"126 354 LINE",
"126 484 LINE",
"85 484 LINE",
"85 0 LINE",
"127 0 LINE",
"127 282 LINE SMOOTH",
"127 388 OFFCURVE",
"194 456 OFFCURVE",
"297 456 CURVE SMOOTH",
"389 456 OFFCURVE",
"428 410 OFFCURVE",
"428 308 CURVE SMOOTH",
"428 0 LINE",
"470 0 LINE",
"470 312 LINE SMOOTH",
"470 434 OFFCURVE",
"411 496 OFFCURVE",
"294 496 CURVE SMOOTH"
);
}
);
width = 553.41176;
},
{
anchors = (
{
name = bottom;
position = "{311, 0}";
},
{
name = top;
position = "{311, 494}";
}
);
background = {
anchors = (
{
name = bottom;
position = "{311, 0}";
},
{
name = top;
position = "{311, 494}";
}
);
paths = (
{
closed = 1;
nodes = (
"326 506 OFFCURVE",
"266 469 OFFCURVE",
"230 406 CURVE",
"247 386 LINE",
"247 494 LINE",
"44 494 LINE",
"44 0 LINE",
"252 0 LINE",
"252 272 LINE SMOOTH",
"252 318 OFFCURVE",
"280 348 OFFCURVE",
"322 348 CURVE SMOOTH",
"351 348 OFFCURVE",
"368 330 OFFCURVE",
"368 279 CURVE SMOOTH",
"368 0 LINE",
"576 0 LINE",
"576 287 LINE SMOOTH",
"576 436 OFFCURVE",
"520 506 OFFCURVE",
"403 506 CURVE SMOOTH"
);
}
);
};
layerId = "4121B50C-FD42-45C5-8FBE-41E76D98F91E";
paths = (
{
closed = 1;
nodes = (
"326 506 OFFCURVE",
"266 469 OFFCURVE",
"230 406 CURVE",
"247 386 LINE",
"247 494 LINE",
"44 494 LINE",
"44 0 LINE",
"252 0 LINE",
"252 272 LINE SMOOTH",
"252 318 OFFCURVE",
"280 348 OFFCURVE",
"322 348 CURVE SMOOTH",
"351 348 OFFCURVE",
"368 330 OFFCURVE",
"368 279 CURVE SMOOTH",
"368 0 LINE",
"576 0 LINE",
"576 287 LINE SMOOTH",
"576 436 OFFCURVE",
"520 506 OFFCURVE",
"403 506 CURVE SMOOTH"
);
}
);
width = 616.88235;
}
);
leftKerningGroup = n;
rightKerningGroup = n;
unicode = 006E;
userData = {
anchors = (
);
b = {
};
com.typemytype.robofont.layerData = {
b = {
anchors = (
);
components = (
);
contours = (
);
lib = {
};
name = n;
unicodes = (
);
width = 1152;
};
};
components = (
);
contours = {
};
lib = {
};
name = n;
points = {
};
segmentType = curve;
unicodes = (
);
width = 1195;
x = 137;
y = 113;
};
},
{
color = 3;
glyphname = eng;
lastChange = "2019-07-02 10:30:40 +0000";
layers = (
{
background = {
components = (
{
alignment = -1;
name = n;
},
{
alignment = -1;
name = _part.hook.lc;
transform = "{1, 0, 0, 1, 343, 0}";
}
);
};
layerId = "F1F93986-3ED8-4AAE-84C4-CA3EEECDDFA0";
paths = (
{
closed = 1;
nodes = (
"209 496 OFFCURVE",
"139 453 OFFCURVE",
"115 368 CURVE",
"126 354 LINE",
"126 484 LINE",
"85 484 LINE",
"85 0 LINE",
"127 0 LINE",
"127 282 LINE SMOOTH",
"127 388 OFFCURVE",
"194 456 OFFCURVE",
"297 456 CURVE SMOOTH",
"389 456 OFFCURVE",
"428 410 OFFCURVE",
"428 308 CURVE SMOOTH",
"428 -22 LINE SMOOTH",
"428 -101 OFFCURVE",
"388 -152 OFFCURVE",
"312 -152 CURVE SMOOTH",
"298 -152 OFFCURVE",
"284 -151 OFFCURVE",
"272 -148 CURVE",
"272 -185 LINE",
"287 -188 OFFCURVE",
"300 -189 OFFCURVE",
"315 -189 CURVE SMOOTH",
"414 -189 OFFCURVE",
"470 -127 OFFCURVE",
"470 -6 CURVE SMOOTH",
"470 312 LINE SMOOTH",
"470 434 OFFCURVE",
"411 496 OFFCURVE",
"294 496 CURVE SMOOTH"
);
}
);
width = 553.41176;
},
{
background = {
components = (
{
alignment = -1;
name = n;
},
{
alignment = -1;
name = _part.hook.lc;
transform = "{1, 0, 0, 1, 324, 0}";
}
);
};
layerId = "4121B50C-FD42-45C5-8FBE-41E76D98F91E";
paths = (
{
closed = 1;
nodes = (
"326 506 OFFCURVE",
"266 469 OFFCURVE",
"230 406 CURVE",
"247 386 LINE",
"247 494 LINE",
"44 494 LINE",
"44 0 LINE",
"252 0 LINE",
"252 272 LINE SMOOTH",
"252 318 OFFCURVE",
"280 348 OFFCURVE",
"322 348 CURVE SMOOTH",
"351 348 OFFCURVE",
"368 330 OFFCURVE",
"368 279 CURVE SMOOTH",
"368 9 LINE SMOOTH",
"368 -30 OFFCURVE",
"346 -43 OFFCURVE",
"306 -43 CURVE SMOOTH",
"288 -43 OFFCURVE",
"267 -43 OFFCURVE",
"250 -40 CURVE",
"250 -185 LINE",
"271 -188 OFFCURVE",
"294 -189 OFFCURVE",
"309 -189 CURVE SMOOTH",
"516 -189 OFFCURVE",
"576 -76 OFFCURVE",
"576 -12 CURVE SMOOTH",
"576 287 LINE SMOOTH",
"576 436 OFFCURVE",
"520 506 OFFCURVE",
"403 506 CURVE SMOOTH"
);
}
);
width = 616.88235;
}
);
leftKerningGroup = n;
leftMetricsKey = n;
widthMetricsKey = n;
rightKerningGroup = n;
unicode = 014B;
},
{
color = 3;
glyphname = o;
lastChange = "2019-07-05 12:23:16 +0000";
layers = (
{
anchors = (
{
name = bottom;
position = "{268, 0}";
},
{
name = center;
position = "{268, 245}";
},
{
name = ogonek;
position = "{320, 21}";
},
{
name = top;
position = "{268, 484}";
},
{
name = topright;
position = "{314, 484}";
}
);
background = {
anchors = (
{
name = bottom;
position = "{268, 0}";
},
{
name = center;
position = "{268, 245}";
},
{
name = ogonek;
position = "{320, 21}";
},
{
name = top;
position = "{268, 484}";
},
{
name = topright;
position = "{314, 484}";
}
);
paths = (
{
closed = 1;
nodes = (
"398 -7 OFFCURVE",
"484 92 OFFCURVE",
"484 245 CURVE SMOOTH",
"484 397 OFFCURVE",
"398 496 OFFCURVE",
"268 496 CURVE SMOOTH",
"138 496 OFFCURVE",
"52 397 OFFCURVE",
"52 245 CURVE SMOOTH",
"52 92 OFFCURVE",
"138 -7 OFFCURVE",
"268 -7 CURVE SMOOTH"
);
},
{
closed = 1;
nodes = (
"159 34 OFFCURVE",
"97 109 OFFCURVE",
"97 245 CURVE SMOOTH",
"97 377 OFFCURVE",
"161 455 OFFCURVE",
"268 455 CURVE SMOOTH",
"375 455 OFFCURVE",
"439 377 OFFCURVE",
"439 245 CURVE SMOOTH",
"439 109 OFFCURVE",
"377 34 OFFCURVE",
"267 34 CURVE SMOOTH"
);
}
);
};
layerId = "F1F93986-3ED8-4AAE-84C4-CA3EEECDDFA0";
paths = (
{
closed = 1;
nodes = (
"398 -7 OFFCURVE",
"484 92 OFFCURVE",
"484 245 CURVE SMOOTH",
"484 397 OFFCURVE",
"398 496 OFFCURVE",
"268 496 CURVE SMOOTH",
"138 496 OFFCURVE",
"52 397 OFFCURVE",
"52 245 CURVE SMOOTH",
"52 92 OFFCURVE",
"138 -7 OFFCURVE",
"268 -7 CURVE SMOOTH"
);
},
{
closed = 1;
nodes = (
"159 34 OFFCURVE",
"97 109 OFFCURVE",
"97 245 CURVE SMOOTH",
"97 377 OFFCURVE",
"161 455 OFFCURVE",
"268 455 CURVE SMOOTH",
"375 455 OFFCURVE",
"439 377 OFFCURVE",
"439 245 CURVE SMOOTH",
"439 109 OFFCURVE",
"377 34 OFFCURVE",
"267 34 CURVE SMOOTH"
);
}
);
width = 536.35294;
},
{
anchors = (
{
name = bottom;
position = "{307, 0}";
},
{
name = center;
position = "{307, 250}";
},
{
name = ogonek;
position = "{406, 37}";
},
{
name = top;
position = "{307, 494}";
},
{
name = topright;
position = "{379, 494}";
}
);
background = {
anchors = (
{
name = bottom;
position = "{307, 0}";
},
{
name = center;
position = "{307, 250}";
},
{
name = ogonek;
position = "{406, 37}";
},
{
name = top;
position = "{307, 494}";
},
{
name = topright;
position = "{379, 494}";
}
);
paths = (
{
closed = 1;
nodes = (
"479 -9 OFFCURVE",
"590 90 OFFCURVE",
"590 250 CURVE SMOOTH",
"590 409 OFFCURVE",
"479 506 OFFCURVE",
"307 506 CURVE SMOOTH",
"135 506 OFFCURVE",
"24 409 OFFCURVE",
"24 250 CURVE SMOOTH",
"24 90 OFFCURVE",
"135 -9 OFFCURVE",
"307 -9 CURVE SMOOTH"
);
},
{
closed = 1;
nodes = (
"257 145 OFFCURVE",
"229 174 OFFCURVE",
"229 250 CURVE SMOOTH",
"229 326 OFFCURVE",
"256 354 OFFCURVE",
"307 354 CURVE SMOOTH",
"359 354 OFFCURVE",
"385 326 OFFCURVE",
"385 250 CURVE SMOOTH",
"385 174 OFFCURVE",
"358 145 OFFCURVE",
"308 145 CURVE SMOOTH"
);
}
);
};
layerId = "4121B50C-FD42-45C5-8FBE-41E76D98F91E";
paths = (
{
closed = 1;
nodes = (
"479 -9 OFFCURVE",
"590 90 OFFCURVE",
"590 250 CURVE SMOOTH",
"590 409 OFFCURVE",
"479 506 OFFCURVE",
"307 506 CURVE SMOOTH",
"135 506 OFFCURVE",
"24 409 OFFCURVE",
"24 250 CURVE SMOOTH",
"24 90 OFFCURVE",
"135 -9 OFFCURVE",
"307 -9 CURVE SMOOTH"
);
},
{
closed = 1;
nodes = (
"257 145 OFFCURVE",
"229 174 OFFCURVE",
"229 250 CURVE SMOOTH",
"229 326 OFFCURVE",
"256 354 OFFCURVE",
"307 354 CURVE SMOOTH",
"359 354 OFFCURVE",
"385 326 OFFCURVE",
"385 250 CURVE SMOOTH",
"385 174 OFFCURVE",
"358 145 OFFCURVE",
"308 145 CURVE SMOOTH"
);
}
);
width = 614;
}
);
leftKerningGroup = o;
rightKerningGroup = o;
unicode = 006F;
userData = {
anchors = (
);
b = {
};
com.typemytype.robofont.guides = (
);
com.typemytype.robofont.layerData = {
b = {
anchors = (
);
components = (
);
contours = (
);
lib = {
};
name = o;
unicodes = (
);
width = 1144;
};
};
components = (
);
contours = (
);
lib = {
};
name = o;
unicodes = (
);
width = 1199;
};
},
{
color = 3;
glyphname = oe;
lastChange = "2019-07-02 10:55:00 +0000";
layers = (
{
anchors = (
{
name = bottom;
position = "{463, 0}";
},
{
name = top;
position = "{463, 484}";
}
);
background = {
anchors = (
{
name = bottom;
position = "{463, 0}";
},
{
name = top;
position = "{463, 484}";
}
);
paths = (
{
closed = 1;
nodes = (
"372 -7 OFFCURVE",
"445 56 OFFCURVE",
"470 161 CURVE",
"452 161 LINE",
"477 51 OFFCURVE",
"556 -7 OFFCURVE",
"672 -7 CURVE SMOOTH",
"740 -7 OFFCURVE",
"809 19 OFFCURVE",
"849 61 CURVE",
"829 97 LINE",
"777 53 OFFCURVE",
"727 34 OFFCURVE",
"668 34 CURVE SMOOTH",
"550 34 OFFCURVE",
"485 110 OFFCURVE",
"485 244 CURVE SMOOTH",
"485 377 OFFCURVE",
"551 457 OFFCURVE",
"660 457 CURVE SMOOTH",
"765 457 OFFCURVE",
"821 384 OFFCURVE",
"817 253 CURVE",
"834 277 LINE",
"465 277 LINE",
"465 238 LINE",
"857 238 LINE",
"857 264 LINE SMOOTH",
"857 410 OFFCURVE",
"785 496 OFFCURVE",
"664 496 CURVE SMOOTH",
"555 496 OFFCURVE",
"479 433 OFFCURVE",
"453 325 CURVE",
"472 324 LINE",
"447 432 OFFCURVE",
"373 496 OFFCURVE",
"269 496 CURVE SMOOTH",
"138 496 OFFCURVE",
"52 397 OFFCURVE",
"52 245 CURVE SMOOTH",
"52 92 OFFCURVE",
"138 -7 OFFCURVE",
"269 -7 CURVE SMOOTH"
);
},
{
closed = 1;
nodes = (
"159 34 OFFCURVE",
"97 109 OFFCURVE",
"97 245 CURVE SMOOTH",
"97 377 OFFCURVE",
"161 455 OFFCURVE",
"268 455 CURVE SMOOTH",
"376 455 OFFCURVE",
"439 377 OFFCURVE",
"439 245 CURVE SMOOTH",
"439 109 OFFCURVE",
"378 34 OFFCURVE",
"267 34 CURVE SMOOTH"
);
}
);
};
layerId = "F1F93986-3ED8-4AAE-84C4-CA3EEECDDFA0";
paths = (
{
closed = 1;
nodes = (
"372 -7 OFFCURVE",
"445 56 OFFCURVE",
"470 161 CURVE",
"452 161 LINE",
"477 51 OFFCURVE",
"556 -7 OFFCURVE",
"672 -7 CURVE SMOOTH",
"740 -7 OFFCURVE",
"809 19 OFFCURVE",
"849 61 CURVE",
"829 97 LINE",
"777 53 OFFCURVE",
"727 34 OFFCURVE",
"668 34 CURVE SMOOTH",
"550 34 OFFCURVE",
"485 110 OFFCURVE",
"485 244 CURVE SMOOTH",
"485 377 OFFCURVE",
"551 457 OFFCURVE",
"660 457 CURVE SMOOTH",
"765 457 OFFCURVE",
"821 384 OFFCURVE",
"817 253 CURVE",
"834 277 LINE",
"465 277 LINE",
"465 238 LINE",
"857 238 LINE",
"857 264 LINE SMOOTH",
"857 410 OFFCURVE",
"785 496 OFFCURVE",
"664 496 CURVE SMOOTH",
"555 496 OFFCURVE",
"479 433 OFFCURVE",
"453 325 CURVE",
"472 324 LINE",
"447 432 OFFCURVE",
"373 496 OFFCURVE",
"269 496 CURVE SMOOTH",
"138 496 OFFCURVE",
"52 397 OFFCURVE",
"52 245 CURVE SMOOTH",
"52 92 OFFCURVE",
"138 -7 OFFCURVE",
"269 -7 CURVE SMOOTH"
);
},
{
closed = 1;
nodes = (
"159 34 OFFCURVE",
"97 109 OFFCURVE",
"97 245 CURVE SMOOTH",
"97 377 OFFCURVE",
"161 455 OFFCURVE",
"268 455 CURVE SMOOTH",
"376 455 OFFCURVE",
"439 377 OFFCURVE",
"439 245 CURVE SMOOTH",
"439 109 OFFCURVE",
"378 34 OFFCURVE",
"267 34 CURVE SMOOTH"
);
}
);
width = 906.94118;
},
{
anchors = (
{
name = bottom;
position = "{482, 0}";
},
{
name = top;
position = "{482, 494}";
}
);
background = {
anchors = (
{
name = bottom;
position = "{482, 0}";
},
{
name = top;
position = "{482, 494}";
}
);
paths = (
{
closed = 1;
nodes = (
"1490 -9 OFFCURVE",
"1558 18 OFFCURVE",
"1606 68 CURVE",
"1567 66 LINE",
"1615 17 OFFCURVE",
"1688 -9 OFFCURVE",
"1781 -9 CURVE SMOOTH",
"1845 -9 OFFCURVE",
"1915 13 OFFCURVE",
"1962 48 CURVE",
"1911 183 LINE",
"1877 158 OFFCURVE",
"1825 142 OFFCURVE",
"1781 142 CURVE SMOOTH",
"1711 142 OFFCURVE",
"1684 171 OFFCURVE",
"1684 272 CURVE SMOOTH",
"1684 336 OFFCURVE",
"1702 368 OFFCURVE",
"1742 368 CURVE SMOOTH",
"1779 368 OFFCURVE",
"1796 343 OFFCURVE",
"1798 289 CURVE",
"1845 300 LINE",
"1679 300 LINE",
"1679 209 LINE",
"1970 209 LINE",
"1970 249 LINE SMOOTH",
"1970 407 OFFCURVE",
"1883 506 OFFCURVE",
"1749 506 CURVE SMOOTH",
"1673 506 OFFCURVE",
"1608 482 OFFCURVE",
"1565 433 CURVE",
"1604 436 LINE",
"1556 481 OFFCURVE",
"1489 506 OFFCURVE",
"1401 506 CURVE SMOOTH",
"1232 506 OFFCURVE",
"1124 407 OFFCURVE",
"1124 250 CURVE SMOOTH",
"1124 92 OFFCURVE",
"1232 -9 OFFCURVE",
"1401 -9 CURVE SMOOTH"
);
},
{
closed = 1;
nodes = (
"1357 145 OFFCURVE",
"1329 174 OFFCURVE",
"1329 250 CURVE SMOOTH",
"1329 326 OFFCURVE",
"1356 354 OFFCURVE",
"1404 354 CURVE SMOOTH",
"1453 354 OFFCURVE",
"1479 326 OFFCURVE",
"1479 250 CURVE SMOOTH",
"1479 174 OFFCURVE",
"1452 145 OFFCURVE",
"1405 145 CURVE SMOOTH"
);
},
{
closed = 1;
nodes = (
"870 202 LINE",
"870 249 LINE SMOOTH",
"870 407 OFFCURVE",
"784 506 OFFCURVE",
"650 506 CURVE SMOOTH",
"581 506 OFFCURVE",
"523 486 OFFCURVE",
"480 438 CURVE",
"521 439 LINE",
"483 488 OFFCURVE",
"427 506 OFFCURVE",
"345 506 CURVE SMOOTH",
"269 506 OFFCURVE",
"171 479 OFFCURVE",
"111 444 CURVE",
"162 305 LINE",
"211 333 OFFCURVE",
"267 352 OFFCURVE",
"319 352 CURVE SMOOTH",
"368 352 OFFCURVE",
"386 338 OFFCURVE",
"386 304 CURVE SMOOTH",
"386 195 LINE SMOOTH",
"386 159 OFFCURVE",
"364 128 OFFCURVE",
"331 128 CURVE SMOOTH",
"305 128 OFFCURVE",
"288 142 OFFCURVE",
"288 166 CURVE SMOOTH",
"288 191 OFFCURVE",
"316 204 OFFCURVE",
"370 204 CURVE SMOOTH",
"402 204 LINE",
"402 304 LINE",
"357 304 LINE SMOOTH",
"167 304 OFFCURVE",
"91 263 OFFCURVE",
"91 157 CURVE SMOOTH",
"91 60 OFFCURVE",
"178 -9 OFFCURVE",
"297 -9 CURVE SMOOTH",
"384 -9 OFFCURVE",
"450 29 OFFCURVE",
"479 103 CURVE",
"451 99 LINE",
"494 28 OFFCURVE",
"575 -9 OFFCURVE",
"681 -9 CURVE SMOOTH",
"745 -9 OFFCURVE",
"815 13 OFFCURVE",
"862 48 CURVE",
"812 183 LINE",
"777 158 OFFCURVE",
"728 143 OFFCURVE",
"683 143 CURVE SMOOTH",
"615 143 OFFCURVE",
"584 171 OFFCURVE",
"584 272 CURVE SMOOTH",
"584 338 OFFCURVE",
"602 370 OFFCURVE",
"643 370 CURVE SMOOTH",
"679 370 OFFCURVE",
"696 345 OFFCURVE",
"698 289 CURVE",
"745 303 LINE",
"574 303 LINE",
"574 202 LINE"
);
}
);
};
color = 11;
layerId = "4121B50C-FD42-45C5-8FBE-41E76D98F91E";
paths = (
{
closed = 1;
nodes = (
"390 -9 OFFCURVE",
"458 18 OFFCURVE",
"506 68 CURVE",
"467 66 LINE",
"515 17 OFFCURVE",
"588 -9 OFFCURVE",
"681 -9 CURVE SMOOTH",
"745 -9 OFFCURVE",
"815 13 OFFCURVE",
"862 48 CURVE",
"811 183 LINE",
"777 158 OFFCURVE",
"727 143 OFFCURVE",
"683 143 CURVE SMOOTH",
"615 143 OFFCURVE",
"584 171 OFFCURVE",
"584 272 CURVE SMOOTH",
"584 338 OFFCURVE",
"602 370 OFFCURVE",
"643 370 CURVE SMOOTH",
"680 370 OFFCURVE",
"696 345 OFFCURVE",
"698 289 CURVE",
"745 303 LINE",
"574 303 LINE",
"574 202 LINE",
"870 202 LINE",
"870 249 LINE SMOOTH",
"870 407 OFFCURVE",
"783 506 OFFCURVE",
"649 506 CURVE SMOOTH",
"573 506 OFFCURVE",
"508 482 OFFCURVE",
"465 433 CURVE",
"504 436 LINE",
"456 481 OFFCURVE",
"389 506 OFFCURVE",
"301 506 CURVE SMOOTH",
"132 506 OFFCURVE",
"24 407 OFFCURVE",
"24 250 CURVE SMOOTH",
"24 92 OFFCURVE",
"132 -9 OFFCURVE",
"301 -9 CURVE SMOOTH"
);
},
{
closed = 1;
nodes = (
"257 145 OFFCURVE",
"229 174 OFFCURVE",
"229 250 CURVE SMOOTH",
"229 326 OFFCURVE",
"256 354 OFFCURVE",
"304 354 CURVE SMOOTH",
"353 354 OFFCURVE",
"379 326 OFFCURVE",
"379 250 CURVE SMOOTH",
"379 174 OFFCURVE",
"352 145 OFFCURVE",
"305 145 CURVE SMOOTH"
);
}
);
width = 893.92157;
},
{
anchors = (
{
name = bottom;
position = "{482, 0}";
},
{
name = top;
position = "{482, 494}";
}
);
associatedMasterId = "4121B50C-FD42-45C5-8FBE-41E76D98F91E";
background = {
anchors = (
{
name = bottom;
position = "{482, 0}";
},
{
name = top;
position = "{482, 494}";
}
);
paths = (
{
closed = 1;
nodes = (
"870 209 LINE",
"870 249 LINE SMOOTH",
"870 407 OFFCURVE",
"784 506 OFFCURVE",
"650 506 CURVE SMOOTH",
"581 506 OFFCURVE",
"523 486 OFFCURVE",
"480 438 CURVE",
"521 439 LINE",
"483 488 OFFCURVE",
"427 506 OFFCURVE",
"345 506 CURVE SMOOTH",
"269 506 OFFCURVE",
"171 479 OFFCURVE",
"111 444 CURVE",
"162 309 LINE",
"211 337 OFFCURVE",
"279 356 OFFCURVE",
"323 356 CURVE SMOOTH",
"372 356 OFFCURVE",
"386 342 OFFCURVE",
"386 308 CURVE SMOOTH",
"386 199 LINE SMOOTH",
"386 161 OFFCURVE",
"364 128 OFFCURVE",
"331 128 CURVE SMOOTH",
"305 128 OFFCURVE",
"288 143 OFFCURVE",
"288 169 CURVE SMOOTH",
"288 195 OFFCURVE",
"316 209 OFFCURVE",
"370 209 CURVE SMOOTH",
"402 209 LINE",
"402 300 LINE",
"357 300 LINE SMOOTH",
"167 300 OFFCURVE",
"92 260 OFFCURVE",
"91 155 CURVE SMOOTH",
"90 59 OFFCURVE",
"178 -9 OFFCURVE",
"297 -9 CURVE SMOOTH",
"384 -9 OFFCURVE",
"450 29 OFFCURVE",
"479 103 CURVE",
"451 99 LINE",
"494 28 OFFCURVE",
"575 -9 OFFCURVE",
"681 -9 CURVE SMOOTH",
"745 -9 OFFCURVE",
"815 13 OFFCURVE",
"862 48 CURVE",
"812 183 LINE",
"777 158 OFFCURVE",
"726 142 OFFCURVE",
"691 142 CURVE SMOOTH",
"612 142 OFFCURVE",
"583 171 OFFCURVE",
"583 257 CURVE SMOOTH",
"583 339 OFFCURVE",
"602 372 OFFCURVE",
"643 372 CURVE SMOOTH",
"679 372 OFFCURVE",
"696 346 OFFCURVE",
"698 290 CURVE",
"745 300 LINE",
"574 300 LINE",
"574 209 LINE"
);
}
);
};
layerId = "95007EC8-EECD-456E-B787-BFE6C0A97F04";
name = "Bold [177]";
paths = (
{
closed = 1;
nodes = (
"390 -9 OFFCURVE",
"458 18 OFFCURVE",
"506 68 CURVE",
"467 66 LINE",
"515 17 OFFCURVE",
"588 -9 OFFCURVE",
"681 -9 CURVE SMOOTH",
"745 -9 OFFCURVE",
"815 13 OFFCURVE",
"862 48 CURVE",
"812 183 LINE",
"778 158 OFFCURVE",
"726 142 OFFCURVE",
"691 142 CURVE SMOOTH",
"612 142 OFFCURVE",
"583 171 OFFCURVE",
"583 257 CURVE SMOOTH",
"583 339 OFFCURVE",
"602 372 OFFCURVE",
"643 372 CURVE SMOOTH",
"679 372 OFFCURVE",
"696 346 OFFCURVE",
"698 289 CURVE",
"745 300 LINE",
"574 300 LINE",
"574 209 LINE",
"870 209 LINE",
"870 249 LINE SMOOTH",
"870 407 OFFCURVE",
"783 506 OFFCURVE",
"649 506 CURVE SMOOTH",
"573 506 OFFCURVE",
"508 482 OFFCURVE",
"465 433 CURVE",
"504 436 LINE",
"456 481 OFFCURVE",
"389 506 OFFCURVE",
"301 506 CURVE SMOOTH",
"132 506 OFFCURVE",
"24 407 OFFCURVE",
"24 250 CURVE SMOOTH",
"24 92 OFFCURVE",
"132 -9 OFFCURVE",
"301 -9 CURVE SMOOTH"
);
},
{
closed = 1;
nodes = (
"257 145 OFFCURVE",
"229 174 OFFCURVE",
"229 250 CURVE SMOOTH",
"229 326 OFFCURVE",
"256 354 OFFCURVE",
"304 354 CURVE SMOOTH",
"353 354 OFFCURVE",
"379 326 OFFCURVE",
"379 250 CURVE SMOOTH",
"379 174 OFFCURVE",
"352 145 OFFCURVE",
"305 145 CURVE SMOOTH"
);
}
);
width = 893.92157;
}
);
leftKerningGroup = o;
leftMetricsKey = o;
rightKerningGroup = e;
rightMetricsKey = e;
unicode = 0153;
},
{
color = 3;
glyphname = p;
lastChange = "2019-07-02 10:54:42 +0000";
layers = (
{
anchors = (
{
name = bottom;
position = "{281, 0}";
},
{
name = top;
position = "{281, 484}";
}
);
background = {
anchors = (
{
name = bottom;
position = "{281, 0}";
},
{
name = top;
position = "{281, 484}";
}
);
paths = (
{
closed = 1;
nodes = (
"204 496 OFFCURVE",
"140 449 OFFCURVE",
"116 361 CURVE",
"127 347 LINE",
"127 484 LINE",
"85 484 LINE",
"85 -180 LINE",
"127 -180 LINE",
"127 143 LINE",
"116 129 LINE",
"139 41 OFFCURVE",
"204 -7 OFFCURVE",
"297 -7 CURVE SMOOTH",
"426 -7 OFFCURVE",
"513 94 OFFCURVE",
"513 247 CURVE SMOOTH",
"513 398 OFFCURVE",
"427 496 OFFCURVE",
"297 496 CURVE SMOOTH"
);
},
{
closed = 1;
nodes = (
"187 34 OFFCURVE",
"127 111 OFFCURVE",
"127 245 CURVE SMOOTH",
"127 378 OFFCURVE",
"187 455 OFFCURVE",
"296 455 CURVE SMOOTH",
"404 455 OFFCURVE",
"467 379 OFFCURVE",
"467 247 CURVE SMOOTH",
"467 113 OFFCURVE",
"404 34 OFFCURVE",
"297 34 CURVE SMOOTH"
);
}
);
};
layerId = "F1F93986-3ED8-4AAE-84C4-CA3EEECDDFA0";
paths = (
{
closed = 1;
nodes = (
"204 496 OFFCURVE",
"140 449 OFFCURVE",
"116 361 CURVE",
"127 347 LINE",
"127 484 LINE",
"85 484 LINE",
"85 -180 LINE",
"127 -180 LINE",
"127 143 LINE",
"116 129 LINE",
"139 41 OFFCURVE",
"204 -7 OFFCURVE",
"297 -7 CURVE SMOOTH",
"426 -7 OFFCURVE",
"513 94 OFFCURVE",
"513 247 CURVE SMOOTH",
"513 398 OFFCURVE",
"427 496 OFFCURVE",
"297 496 CURVE SMOOTH"
);
},
{
closed = 1;
nodes = (
"187 34 OFFCURVE",
"127 111 OFFCURVE",
"127 245 CURVE SMOOTH",
"127 378 OFFCURVE",
"187 455 OFFCURVE",
"296 455 CURVE SMOOTH",
"404 455 OFFCURVE",
"467 379 OFFCURVE",
"467 247 CURVE SMOOTH",
"467 113 OFFCURVE",
"404 34 OFFCURVE",
"297 34 CURVE SMOOTH"
);
}
);
width = 564.70588;
},
{
anchors = (
{
name = bottom;
position = "{320, 0}";
},
{
name = top;
position = "{320, 494}";
}
);
background = {
anchors = (
{
name = bottom;
position = "{320, 0}";
},
{
name = top;
position = "{320, 494}";
}
);
paths = (
{
closed = 1;
nodes = (
"323 506 OFFCURVE",
"257 468 OFFCURVE",
"238 415 CURVE",
"249 394 LINE",
"249 494 LINE",
"44 494 LINE",
"44 -180 LINE",
"252 -180 LINE",
"252 99 LINE",
"240 77 LINE",
"261 28 OFFCURVE",
"326 -9 OFFCURVE",
"396 -9 CURVE SMOOTH",
"522 -9 OFFCURVE",
"614 97 OFFCURVE",
"614 252 CURVE SMOOTH",
"614 407 OFFCURVE",
"523 506 OFFCURVE",
"396 506 CURVE SMOOTH"
);
},
{
closed = 1;
nodes = (
"279 145 OFFCURVE",
"249 181 OFFCURVE",
"249 250 CURVE SMOOTH",
"249 317 OFFCURVE",
"279 353 OFFCURVE",
"330 353 CURVE SMOOTH",
"381 353 OFFCURVE",
"409 318 OFFCURVE",
"409 252 CURVE SMOOTH",
"409 183 OFFCURVE",
"379 145 OFFCURVE",
"329 145 CURVE SMOOTH"
);
}
);
};
layerId = "4121B50C-FD42-45C5-8FBE-41E76D98F91E";
paths = (
{
closed = 1;
nodes = (
"323 506 OFFCURVE",
"257 468 OFFCURVE",
"238 415 CURVE",
"249 394 LINE",
"249 494 LINE",
"44 494 LINE",
"44 -180 LINE",
"252 -180 LINE",
"252 99 LINE",
"240 77 LINE",
"261 28 OFFCURVE",
"326 -9 OFFCURVE",
"396 -9 CURVE SMOOTH",
"522 -9 OFFCURVE",
"614 97 OFFCURVE",
"614 252 CURVE SMOOTH",
"614 407 OFFCURVE",
"523 506 OFFCURVE",
"396 506 CURVE SMOOTH"
);
},
{
closed = 1;
nodes = (
"279 145 OFFCURVE",
"249 181 OFFCURVE",
"249 250 CURVE SMOOTH",
"249 317 OFFCURVE",
"279 353 OFFCURVE",
"330 353 CURVE SMOOTH",
"381 353 OFFCURVE",
"409 318 OFFCURVE",
"409 252 CURVE SMOOTH",
"409 183 OFFCURVE",
"379 145 OFFCURVE",
"329 145 CURVE SMOOTH"
);
}
);
width = 637.94118;
}
);
leftKerningGroup = n;
leftMetricsKey = n;
rightKerningGroup = o;
rightMetricsKey = o;
unicode = 0070;
userData = {
anchors = (
);
b = {
};
com.typemytype.robofont.layerData = {
b = {
anchors = (
);
components = (
);
contours = (
);
lib = {
};
name = p;
unicodes = (
);
width = 1181;
};
};
components = (
);
contours = (
);
lib = {
};
name = p;
unicodes = (
);
width = 1207;
};
},
{
color = 3;
glyphname = thorn;
lastChange = "2019-07-02 10:54:42 +0000";
layers = (
{
anchors = (
{
name = bottom;
position = "{281, 0}";
},
{
name = top;
position = "{281, 484}";
}
);
background = {
anchors = (
{
name = bottom;
position = "{281, 0}";
},
{
name = top;
position = "{281, 484}";
}
);
paths = (
{
closed = 1;
nodes = (
"204 496 OFFCURVE",
"139 448 OFFCURVE",
"116 361 CURVE",
"127 346 LINE",
"127 705 LINE",
"85 705 LINE",
"85 -180 LINE",
"127 -180 LINE",
"127 143 LINE",
"116 129 LINE",
"139 41 OFFCURVE",
"204 -7 OFFCURVE",
"297 -7 CURVE SMOOTH",
"426 -7 OFFCURVE",
"513 94 OFFCURVE",
"513 247 CURVE SMOOTH",
"513 398 OFFCURVE",
"427 496 OFFCURVE",
"297 496 CURVE SMOOTH"
);
},
{
closed = 1;
nodes = (
"187 34 OFFCURVE",
"127 111 OFFCURVE",
"127 245 CURVE SMOOTH",
"127 378 OFFCURVE",
"187 455 OFFCURVE",
"296 455 CURVE SMOOTH",
"404 455 OFFCURVE",
"467 379 OFFCURVE",
"467 247 CURVE SMOOTH",
"467 113 OFFCURVE",
"404 34 OFFCURVE",
"297 34 CURVE SMOOTH"
);
}
);
};
layerId = "F1F93986-3ED8-4AAE-84C4-CA3EEECDDFA0";
paths = (
{
closed = 1;
nodes = (
"204 496 OFFCURVE",
"139 448 OFFCURVE",
"116 361 CURVE",
"127 346 LINE",
"127 705 LINE",
"85 705 LINE",
"85 -180 LINE",
"127 -180 LINE",
"127 143 LINE",
"116 129 LINE",
"139 41 OFFCURVE",
"204 -7 OFFCURVE",
"297 -7 CURVE SMOOTH",
"426 -7 OFFCURVE",
"513 94 OFFCURVE",
"513 247 CURVE SMOOTH",
"513 398 OFFCURVE",
"427 496 OFFCURVE",
"297 496 CURVE SMOOTH"
);
},
{
closed = 1;
nodes = (
"187 34 OFFCURVE",
"127 111 OFFCURVE",
"127 245 CURVE SMOOTH",
"127 378 OFFCURVE",
"187 455 OFFCURVE",
"296 455 CURVE SMOOTH",
"404 455 OFFCURVE",
"467 379 OFFCURVE",
"467 247 CURVE SMOOTH",
"467 113 OFFCURVE",
"404 34 OFFCURVE",
"297 34 CURVE SMOOTH"
);
}
);
width = 564.70588;
},
{
anchors = (
{
name = bottom;
position = "{320, 0}";
},
{
name = top;
position = "{320, 494}";
}
);
background = {
anchors = (
{
name = bottom;
position = "{320, 0}";
},
{
name = top;
position = "{320, 494}";
}
);
paths = (
{
closed = 1;
nodes = (
"326 506 OFFCURVE",
"261 470 OFFCURVE",
"240 421 CURVE",
"252 398 LINE",
"252 705 LINE",
"44 705 LINE",
"44 -180 LINE",
"252 -180 LINE",
"252 99 LINE",
"240 77 LINE",
"261 28 OFFCURVE",
"326 -9 OFFCURVE",
"396 -9 CURVE SMOOTH",
"522 -9 OFFCURVE",
"614 97 OFFCURVE",
"614 252 CURVE SMOOTH",
"614 407 OFFCURVE",
"523 506 OFFCURVE",
"396 506 CURVE SMOOTH"
);
},
{
closed = 1;
nodes = (
"279 145 OFFCURVE",
"249 181 OFFCURVE",
"249 250 CURVE SMOOTH",
"249 317 OFFCURVE",
"279 353 OFFCURVE",
"330 353 CURVE SMOOTH",
"381 353 OFFCURVE",
"409 318 OFFCURVE",
"409 252 CURVE SMOOTH",
"409 183 OFFCURVE",
"379 145 OFFCURVE",
"329 145 CURVE SMOOTH"
);
}
);
};
layerId = "4121B50C-FD42-45C5-8FBE-41E76D98F91E";
paths = (
{
closed = 1;
nodes = (
"326 506 OFFCURVE",
"261 470 OFFCURVE",
"240 421 CURVE",
"252 398 LINE",
"252 705 LINE",
"44 705 LINE",
"44 -180 LINE",
"252 -180 LINE",
"252 99 LINE",
"240 77 LINE",
"261 28 OFFCURVE",
"326 -9 OFFCURVE",
"396 -9 CURVE SMOOTH",
"522 -9 OFFCURVE",
"614 97 OFFCURVE",
"614 252 CURVE SMOOTH",
"614 407 OFFCURVE",
"523 506 OFFCURVE",
"396 506 CURVE SMOOTH"
);
},
{
closed = 1;
nodes = (
"279 145 OFFCURVE",
"249 181 OFFCURVE",
"249 250 CURVE SMOOTH",
"249 317 OFFCURVE",
"279 353 OFFCURVE",
"330 353 CURVE SMOOTH",
"381 353 OFFCURVE",
"409 318 OFFCURVE",
"409 252 CURVE SMOOTH",
"409 183 OFFCURVE",
"379 145 OFFCURVE",
"329 145 CURVE SMOOTH"
);
}
);
width = 637.94118;
}
);
leftKerningGroup = h;
leftMetricsKey = n;
rightKerningGroup = o;
rightMetricsKey = o;
unicode = 00FE;
},
